<svg width="37" height="36" viewBox="0 0 37 36" fill="none" xmlns="http://www.w3.org/2000/svg">
<g clip-path="url(#clip0_526_9221)">
<path d="M18.9883 36C28.9294 36 36.9883 27.9411 36.9883 18C36.9883 8.05887 28.9294 0 18.9883 0C9.04716 0 0.988281 8.05887 0.988281 18C0.988281 27.9411 9.04716 36 18.9883 36Z" fill="#EDC4B4"/>
<path d="M15.8931 11.2497C15.475 11.252 15.0627 11.3482 14.6866 11.531C14.4746 10.4327 13.8612 9.45275 12.966 8.78217C12.0707 8.11159 10.9579 7.79845 9.84429 7.9038C8.73073 8.00915 7.69632 8.52544 6.94273 9.35201C6.18915 10.1786 5.7704 11.2562 5.76814 12.3747C5.76814 12.4 5.76814 12.4253 5.76814 12.4478C5.45858 12.3669 5.13532 12.353 4.81993 12.4069C4.50455 12.4609 4.2043 12.5814 3.93921 12.7606C3.67413 12.9398 3.45031 13.1735 3.28268 13.446C3.11506 13.7185 3.0075 14.0237 2.96717 14.3411C2.92683 14.6585 2.95466 14.9809 3.0488 15.2867C3.14293 15.5925 3.30121 15.8747 3.51306 16.1145C3.72491 16.3543 3.98546 16.5461 4.27733 16.6772C4.56921 16.8083 4.88568 16.8756 5.20564 16.8747H15.8931C16.6391 16.8747 17.3544 16.5784 17.8819 16.051C18.4093 15.5235 18.7056 14.8081 18.7056 14.0622C18.7056 13.3163 18.4093 12.6009 17.8819 12.0735C17.3544 11.546 16.6391 11.2497 15.8931 11.2497Z" fill="#EDC4B4"/>
<path d="M15.8931 9.84346C15.475 9.84579 15.0627 9.9419 14.6866 10.1247C14.4746 9.02645 13.8612 8.0465 12.966 7.37592C12.0707 6.70534 10.9579 6.3922 9.84429 6.49755C8.73073 6.6029 7.69632 7.1192 6.94273 7.94577C6.18915 8.77234 5.7704 9.84993 5.76814 10.9685C5.76814 10.9938 5.76814 11.0191 5.76814 11.0416C5.45858 10.9607 5.13532 10.9467 4.81993 11.0007C4.50455 11.0546 4.2043 11.1752 3.93921 11.3544C3.67413 11.5335 3.45031 11.7672 3.28268 12.0397C3.11506 12.3123 3.0075 12.6174 2.96717 12.9349C2.92683 13.2523 2.95466 13.5746 3.0488 13.8804C3.14293 14.1862 3.30121 14.4684 3.51306 14.7082C3.72491 14.948 3.98546 15.1398 4.27733 15.2709C4.56921 15.402 4.88568 15.4694 5.20564 15.4685H15.8931C16.6391 15.4685 17.3544 15.1721 17.8819 14.6447C18.4093 14.1173 18.7056 13.4019 18.7056 12.656C18.7056 11.91 18.4093 11.1947 17.8819 10.6672C17.3544 10.1398 16.6391 9.84346 15.8931 9.84346Z" fill="white"/>
<path d="M33.8931 5.90596C33.475 5.90829 33.0627 6.0044 32.6866 6.18721C32.4746 5.08895 31.8612 4.109 30.966 3.43842C30.0707 2.76784 28.9579 2.4547 27.8443 2.56005C26.7307 2.6654 25.6963 3.18169 24.9427 4.00826C24.1891 4.83484 23.7704 5.91243 23.7681 7.03096C23.7681 7.05628 23.7681 7.08159 23.7681 7.10409C23.4586 7.02318 23.1353 7.00923 22.8199 7.06317C22.5046 7.11711 22.2043 7.23769 21.9392 7.41687C21.6741 7.59605 21.4503 7.82971 21.2827 8.10225C21.1151 8.37479 21.0075 8.67995 20.9672 8.99736C20.9268 9.31477 20.9547 9.63713 21.0488 9.94293C21.1429 10.2487 21.3012 10.5309 21.5131 10.7707C21.7249 11.0105 21.9855 11.2023 22.2773 11.3334C22.5692 11.4645 22.8857 11.5319 23.2056 11.531H33.8931C34.6391 11.531 35.3544 11.2346 35.8819 10.7072C36.4093 10.1798 36.7056 9.46438 36.7056 8.71846C36.7056 7.97254 36.4093 7.25717 35.8819 6.72972C35.3544 6.20228 34.6391 5.90596 33.8931 5.90596Z" fill="#EDC4B4"/>
<path d="M2.39453 18.2812H5.20703" stroke="white" stroke-width="2" stroke-miterlimit="10" stroke-linecap="square"/>
<path d="M3.80078 19.6875V16.875" stroke="white" stroke-width="2" stroke-miterlimit="10" stroke-linecap="square"/>
<path d="M7.45703 5.0625C8.23368 5.0625 8.86328 4.4329 8.86328 3.65625C8.86328 2.8796 8.23368 2.25 7.45703 2.25C6.68038 2.25 6.05078 2.8796 6.05078 3.65625C6.05078 4.4329 6.68038 5.0625 7.45703 5.0625Z" stroke="#EDC4B4" stroke-width="3" stroke-miterlimit="10"/>
<path d="M33.3659 13.7477C33.2479 13.6299 33.0976 13.5496 32.934 13.5171C32.7704 13.4847 32.6009 13.5014 32.4468 13.5652C32.2927 13.629 32.161 13.737 32.0683 13.8756C31.9756 14.0142 31.926 14.1772 31.9259 14.344C31.9257 14.1772 31.8762 14.0142 31.7834 13.8756C31.6907 13.737 31.559 13.629 31.4049 13.5652C31.2508 13.5014 31.0813 13.4847 30.9177 13.5171C30.7541 13.5496 30.6039 13.6299 30.4859 13.7477C30.4101 13.825 30.3507 13.9168 30.3112 14.0176C30.2718 14.1184 30.253 14.2261 30.2562 14.3343C30.2594 14.4425 30.2843 14.5489 30.3296 14.6472C30.3748 14.7456 30.4395 14.8337 30.5196 14.9065L31.9259 16.594L33.3321 14.9065C33.4123 14.8337 33.4769 14.7456 33.5222 14.6472C33.5674 14.5489 33.5924 14.4425 33.5955 14.3343C33.5987 14.2261 33.58 14.1184 33.5405 14.0176C33.501 13.9168 33.4416 13.825 33.3659 13.7477Z" stroke="white" stroke-width="2" stroke-miterlimit="10" stroke-linecap="square"/>
<path d="M33.8931 4.49971C33.475 4.50204 33.0627 4.59815 32.6866 4.78096C32.4746 3.6827 31.8612 2.70275 30.966 2.03217C30.0707 1.36159 28.9579 1.04845 27.8443 1.1538C26.7307 1.25915 25.6963 1.77544 24.9427 2.60201C24.1891 3.42859 23.7704 4.50618 23.7681 5.62471C23.7681 5.65003 23.7681 5.67534 23.7681 5.69784C23.4586 5.61693 23.1353 5.60298 22.8199 5.65692C22.5046 5.71086 22.2043 5.83144 21.9392 6.01062C21.6741 6.1898 21.4503 6.42346 21.2827 6.696C21.1151 6.96854 21.0075 7.2737 20.9672 7.59111C20.9268 7.90852 20.9547 8.23088 21.0488 8.53668C21.1429 8.84248 21.3012 9.12469 21.5131 9.36447C21.7249 9.60425 21.9855 9.79609 22.2773 9.92719C22.5692 10.0583 22.8857 10.1256 23.2056 10.1247H33.8931C34.6391 10.1247 35.3544 9.8284 35.8819 9.30095C36.4093 8.7735 36.7056 8.05813 36.7056 7.31221C36.7056 6.56629 36.4093 5.85092 35.8819 5.32347C35.3544 4.79603 34.6391 4.49971 33.8931 4.49971Z" fill="white"/>
<path d="M35.3008 33.4688H12.2383" stroke="#9B857B" stroke-width="4" stroke-miterlimit="10" stroke-linecap="round"/>
<path d="M13.9258 33.4688H2.39453" stroke="#9B857B" stroke-width="4" stroke-miterlimit="10" stroke-linecap="round"/>
<path d="M12.3789 22.6045C11.7686 21.7889 10.9445 20.917 10.1289 20.917C9.31328 20.917 8.01953 22.8857 6.05078 21.4795C5.38703 21.0042 4.55453 22.2107 3.94141 23.0264C3.55449 23.5525 3.22452 24.1181 2.95703 24.7139H15.1914C15.1914 24.7139 12.992 23.4201 12.3789 22.6045Z" fill="#FFAB02"/>
<path d="M12.3789 22.6045C11.7658 21.7889 10.9445 20.917 10.1289 20.917C9.31328 20.917 8.01953 22.8857 6.05078 21.4795C5.38703 21.0042 4.55453 22.2107 3.94141 23.0264C3.55449 23.5525 3.22452 24.1181 2.95703 24.7139H15.1914C15.1914 24.7139 12.992 23.4201 12.3789 22.6045Z" stroke="#D68F27" stroke-width="4" stroke-miterlimit="10"/>
<path d="M2.67629 24.9944C2.42035 24.2265 3.4441 23.0903 4.64504 21.76C5.45504 20.8628 5.77004 20.7925 5.91067 20.7756C6.42535 20.7137 8.29566 21.0231 10.27 23.1662C11.8254 24.8537 13.2569 25 13.2232 25.135C12.8716 26.5187 3.23879 26.6903 2.67629 24.9944Z" fill="#FFC801"/>
<path d="M2.67629 24.9944C2.42035 24.2265 3.4441 23.0903 4.64504 21.76C5.45504 20.8628 5.77004 20.7925 5.91066 20.7756C6.42535 20.7137 8.29566 21.0231 10.27 23.1662C11.8254 24.8537 13.2569 25 13.2232 25.135C12.8716 26.5187 3.23879 26.6903 2.67629 24.9944Z" stroke="#D68F27" stroke-width="4" stroke-miterlimit="10"/>
<path d="M1.83203 24.4326V25.417C1.83203 25.417 1.83203 32.3076 7.17578 32.3076H10.5508C15.8945 32.3076 15.8945 25.417 15.8945 25.417V24.4326H1.83203Z" fill="#925A27"/>
<path d="M15.8748 25.8389H10.9727V26.9639H15.7539C15.813 26.5911 15.8533 26.2156 15.8748 25.8389Z" fill="#B27746"/>
<path d="M13.7852 24.7139H6.05078V25.8389H13.7852V24.7139Z" fill="#9B6736"/>
<path d="M10.9727 25.8389H3.23828V26.9639H10.9727V25.8389Z" fill="#82532B"/>
<path d="M10.2695 30.3389V31.4639H13.3436C13.7694 31.1518 14.141 30.7717 14.4433 30.3389H10.2695Z" fill="#82532B"/>
<path d="M1.98656 26.9639H3.23813V25.8389H1.85156C1.87775 26.2159 1.92281 26.5914 1.98656 26.9639Z" fill="#9B6736"/>
<path d="M10.9727 26.9639H3.23828V28.0889H10.9727V26.9639Z" fill="#9B6736"/>
<path d="M4.38375 31.4639H8.02031V30.3389H3.28125C3.58443 30.7719 3.95692 31.152 4.38375 31.4639Z" fill="#B27746"/>
<path d="M13.7852 29.2139H6.05078V30.3389H13.7852V29.2139Z" fill="#9B6736"/>
<path d="M15.4844 28.0889H12.3906V29.2139H15.0906C15.2477 28.8484 15.3793 28.4725 15.4844 28.0889Z" fill="#82532B"/>
<path d="M7.17563 32.3017L10.5506 32.3439C10.6941 32.3439 10.8319 32.3439 10.9725 32.3439V31.517L4.38281 31.4326C5.19582 32.0156 6.17538 32.3204 7.17563 32.3017Z" fill="#9B6736"/>
<path d="M2.64719 29.2139H7.17531V28.0889H2.24219C2.35093 28.4728 2.48625 28.8487 2.64719 29.2139Z" fill="#B27746"/>
<path d="M1.83203 25.417C1.83203 25.417 1.83203 25.5745 1.85172 25.8389H6.05078V24.7139H1.83203V25.417Z" fill="#B27746"/>
<path opacity="0.2" d="M14.7217 24.4326H1.83203V25.417C1.83203 25.417 1.83203 28.8848 3.73891 30.8986C3.86043 30.8717 3.97489 30.8195 4.07474 30.7452C4.17458 30.6709 4.25753 30.5763 4.31813 30.4676C4.37873 30.3589 4.41559 30.2385 4.42628 30.1145C4.43697 29.9906 4.42125 29.8657 4.38016 29.7482C4.02596 28.7149 3.83061 27.6339 3.80078 26.542V26.4014C3.80078 26.1776 3.88968 25.963 4.04791 25.8047C4.20614 25.6465 4.42075 25.5576 4.64453 25.5576H13.892C14.0863 25.5576 14.275 25.4925 14.4279 25.3727C14.5809 25.2529 14.6893 25.0853 14.7358 24.8967C14.7746 24.7437 14.7697 24.5829 14.7217 24.4326Z" fill="white"/>
<path d="M1.83203 24.4326V25.417C1.83203 25.417 1.83203 32.3076 7.17578 32.3076H10.5508C15.8945 32.3076 15.8945 25.417 15.8945 25.417V24.4326H1.83203Z" stroke="#7F4F2B" stroke-width="4" stroke-miterlimit="10"/>
<path d="M32.9102 22.6045C32.2998 21.7889 31.4758 20.917 30.6602 20.917C29.8445 20.917 28.5508 22.8857 26.582 21.4795C25.9183 21.0042 25.083 22.2107 24.4727 23.0264C24.0857 23.5525 23.7558 24.1181 23.4883 24.7139H35.7227C35.7227 24.7139 33.5233 23.4201 32.9102 22.6045Z" fill="#D64005"/>
<path d="M32.9102 22.6045C32.297 21.7889 31.4758 20.917 30.6602 20.917C29.8445 20.917 28.5508 22.8857 26.582 21.4795C25.9183 21.0042 25.0858 22.2107 24.4727 23.0264C24.0857 23.5525 23.7558 24.1181 23.4883 24.7139H35.7227C35.7227 24.7139 33.5233 23.4201 32.9102 22.6045Z" stroke="#B52B00" stroke-width="4" stroke-linejoin="round"/>
<path d="M23.2075 24.9944C22.9516 24.2265 23.9754 23.0903 25.1763 21.76C25.9863 20.8628 26.3013 20.7925 26.4419 20.7756C26.9566 20.7137 28.8269 21.0231 30.8013 23.1662C32.3566 24.8537 33.7882 25 33.7544 25.135C33.4029 26.5187 23.77 26.6903 23.2075 24.9944Z" fill="#F54F01"/>
<path d="M23.2075 24.9944C22.9516 24.2265 23.9754 23.0903 25.1763 21.76C25.9863 20.8628 26.3013 20.7925 26.4419 20.7756C26.9566 20.7137 28.8269 21.0231 30.8013 23.1662C32.3566 24.8537 33.7882 25 33.7544 25.135C33.4029 26.5187 23.77 26.6903 23.2075 24.9944Z" stroke="#B52B00" stroke-width="4" stroke-miterlimit="10"/>
<path d="M22.3633 24.4326V25.417C22.3633 25.417 22.3633 32.3076 27.707 32.3076H31.082C36.4258 32.3076 36.4258 25.417 36.4258 25.417V24.4326H22.3633Z" fill="#925A27"/>
<path d="M36.4061 25.8389H31.5039V26.9639H36.2852C36.3442 26.5911 36.3846 26.2156 36.4061 25.8389Z" fill="#B27746"/>
<path d="M34.3164 24.7139H26.582V25.8389H34.3164V24.7139Z" fill="#9B6736"/>
<path d="M31.5039 25.8389H23.7695V26.9639H31.5039V25.8389Z" fill="#82532B"/>
<path d="M30.8008 30.3389V31.4639H33.8748C34.3007 31.1518 34.6722 30.7717 34.9745 30.3389H30.8008Z" fill="#82532B"/>
<path d="M22.5178 26.9639H23.7694V25.8389H22.3828C22.409 26.2159 22.4541 26.5914 22.5178 26.9639Z" fill="#9B6736"/>
<path d="M31.5039 26.9639H23.7695V28.0889H31.5039V26.9639Z" fill="#9B6736"/>
<path d="M24.915 31.4639H28.5516V30.3389H23.8125C24.1157 30.7719 24.4882 31.152 24.915 31.4639Z" fill="#B27746"/>
<path d="M34.3164 29.2139H26.582V30.3389H34.3164V29.2139Z" fill="#9B6736"/>
<path d="M36.0156 28.0889H32.9219V29.2139H35.6219C35.779 28.8484 35.9105 28.4725 36.0156 28.0889Z" fill="#82532B"/>
<path d="M27.7069 32.3017L31.0819 32.3439C31.2253 32.3439 31.3631 32.3439 31.5037 32.3439V31.517L24.9141 31.4326C25.7271 32.0156 26.7066 32.3204 27.7069 32.3017Z" fill="#9B6736"/>
<path d="M23.1784 29.2139H27.7066V28.0889H22.7734C22.8822 28.4728 23.0175 28.8487 23.1784 29.2139Z" fill="#B27746"/>
<path d="M22.3633 25.417C22.3633 25.417 22.3633 25.5745 22.383 25.8389H26.582V24.7139H22.3633V25.417Z" fill="#B27746"/>
<path opacity="0.2" d="M35.253 24.4326H22.3633V25.417C22.3633 25.417 22.3633 28.8848 24.2702 30.8986C24.3917 30.8717 24.5061 30.8195 24.606 30.7452C24.7058 30.6709 24.7888 30.5763 24.8494 30.4676C24.91 30.3589 24.9468 30.2385 24.9575 30.1145C24.9682 29.9906 24.9525 29.8657 24.9114 29.7482C24.5572 28.7149 24.3619 27.6339 24.332 26.542V26.4014C24.332 26.1776 24.4209 25.963 24.5792 25.8047C24.7374 25.6465 24.952 25.5576 25.1758 25.5576H34.4233C34.6176 25.5576 34.8062 25.4925 34.9592 25.3727C35.1121 25.2529 35.2205 25.0853 35.267 24.8967C35.3058 24.7437 35.301 24.5829 35.253 24.4326Z" fill="white"/>
<path d="M22.3633 24.4326V25.417C22.3633 25.417 22.3633 32.3076 27.707 32.3076H31.082C36.4258 32.3076 36.4258 25.417 36.4258 25.417V24.4326H22.3633Z" stroke="#7F4F2B" stroke-width="4" stroke-miterlimit="10"/>
<path d="M27.4258 11.5312H26.3008V9H13.3633V11.5312H12.2383V13.2188H13.3633V15.1875C13.3633 15.6351 13.5411 16.0643 13.8575 16.3807C14.174 16.6972 14.6032 16.875 15.0508 16.875H24.6133C25.0608 16.875 25.4901 16.6972 25.8065 16.3807C26.123 16.0643 26.3008 15.6351 26.3008 15.1875V13.2188H27.4258V11.5312Z" fill="#4C2D1B"/>
<path d="M28.8152 3.41167C28.832 3.11354 28.832 2.8126 28.832 2.53135C28.832 0.37698 20.957 0.562605 18.707 0.562605C16.457 0.562605 10.832 0.37698 10.832 2.53135C10.832 2.8126 10.832 3.11354 10.8517 3.41448C10.8619 3.70597 10.9849 3.9821 11.1948 4.18464C11.4047 4.38718 11.685 4.50028 11.9767 4.5001H12.1623C12.0025 4.49895 11.8443 4.53186 11.6982 4.59664C11.5521 4.66142 11.4215 4.75659 11.315 4.87581C11.2086 4.99502 11.1288 5.13555 11.0809 5.28803C11.033 5.44051 11.0182 5.60144 11.0373 5.7601C11.2455 7.58823 12.6883 7.08198 12.888 8.09448C12.939 8.35105 13.0778 8.58182 13.2805 8.74711C13.4833 8.91239 13.7373 9.00185 13.9989 9.0001H25.6736C25.9325 9.00029 26.1836 8.91114 26.3845 8.74769C26.5853 8.58424 26.7237 8.35651 26.7761 8.10292C26.9814 7.10167 28.4298 7.62198 28.6352 5.74885C28.6526 5.59106 28.6365 5.43136 28.5878 5.28025C28.5392 5.12913 28.4591 4.99003 28.3528 4.87208C28.2466 4.75413 28.1165 4.66001 27.9713 4.5959C27.8261 4.53179 27.6689 4.49914 27.5102 4.5001H27.6845C27.9776 4.50172 28.2598 4.38888 28.471 4.18559C28.6821 3.98231 28.8056 3.70463 28.8152 3.41167Z" fill="#9B6736"/>
<path d="M21.9414 2.25016H22.5827C23.0889 2.16578 23.7217 1.82266 23.823 0.672344C21.8008 0.526094 19.7027 0.562656 18.707 0.562656C16.457 0.562656 10.832 0.377031 10.832 2.53141C10.832 2.81266 10.832 3.11359 10.8517 3.41453C10.8619 3.70602 10.9849 3.98216 11.1948 4.18469C11.4047 4.38723 11.685 4.50033 11.9767 4.50016H12.1623C12.0025 4.499 11.8443 4.53191 11.6982 4.59669C11.5521 4.66148 11.4215 4.75664 11.315 4.87586C11.2086 4.99508 11.1288 5.1356 11.0809 5.28808C11.033 5.44056 11.0182 5.60149 11.0373 5.76016C11.2286 7.43078 12.4436 7.16641 12.8092 7.86953C12.7697 7.73142 12.7415 7.59033 12.7248 7.44766C12.6489 6.77828 12.5589 5.70672 12.5336 5.10203C12.5195 4.80109 12.5195 4.50016 12.5195 4.21891C12.5195 2.06453 18.1445 2.25016 20.3945 2.25016C20.7714 2.25016 21.3114 2.25016 21.9414 2.25016Z" fill="#A87951"/>
<path d="M11.6758 4.5H27.9883" stroke="#6B4125" stroke-width="4" stroke-miterlimit="10"/>
<path d="M28.8152 3.41167C28.832 3.11354 28.832 2.8126 28.832 2.53135C28.832 0.37698 20.957 0.562605 18.707 0.562605C16.457 0.562605 10.832 0.37698 10.832 2.53135C10.832 2.8126 10.832 3.11354 10.8517 3.41448C10.8619 3.70597 10.9849 3.9821 11.1948 4.18464C11.4047 4.38718 11.685 4.50028 11.9767 4.5001H12.1623C12.0025 4.49895 11.8443 4.53186 11.6982 4.59664C11.5521 4.66142 11.4215 4.75659 11.315 4.87581C11.2086 4.99502 11.1288 5.13555 11.0809 5.28803C11.033 5.44051 11.0182 5.60144 11.0373 5.7601C11.2455 7.58823 12.6883 7.08198 12.888 8.09448C12.939 8.35105 13.0778 8.58182 13.2805 8.74711C13.4833 8.91239 13.7373 9.00186 13.9989 9.0001H25.6736C25.9325 9.00029 26.1836 8.91114 26.3845 8.74769C26.5853 8.58424 26.7237 8.35651 26.7761 8.10292C26.9814 7.10167 28.4298 7.62198 28.6352 5.74885C28.6526 5.59106 28.6365 5.43136 28.5878 5.28025C28.5392 5.12913 28.4591 4.99003 28.3528 4.87208C28.2466 4.75413 28.1165 4.66001 27.9713 4.5959C27.8261 4.53179 27.6689 4.49914 27.5102 4.5001H27.6845C27.9776 4.50172 28.2598 4.38888 28.471 4.18559C28.6821 3.98231 28.8056 3.70463 28.8152 3.41167Z" stroke="#7F4F2B" stroke-width="4" stroke-miterlimit="10"/>
<path d="M10.2695 3.375H29.3945" stroke="#B7AF80" stroke-width="4" stroke-miterlimit="10" stroke-linecap="round"/>
<path opacity="0.51" d="M26.582 11.25H13.082C12.4607 11.25 11.957 11.7537 11.957 12.375C11.957 12.9963 12.4607 13.5 13.082 13.5H26.582C27.2034 13.5 27.707 12.9963 27.707 12.375C27.707 11.7537 27.2034 11.25 26.582 11.25Z" fill="#A7E8EA"/>
<path opacity="0.7" d="M19.5733 11.25H13.082C12.7837 11.25 12.4975 11.3685 12.2865 11.5795C12.0756 11.7905 11.957 12.0766 11.957 12.375C11.957 12.6734 12.0756 12.9595 12.2865 13.1705C12.4975 13.3815 12.7837 13.5 13.082 13.5H18.707V12.9375C19.18 12.9369 19.6371 12.7661 19.9944 12.4562C20.3518 12.1464 20.5857 11.7182 20.6533 11.25H19.5733Z" fill="white"/>
<path d="M26.582 11.25H13.082C12.4607 11.25 11.957 11.7537 11.957 12.375C11.957 12.9963 12.4607 13.5 13.082 13.5H26.582C27.2034 13.5 27.707 12.9963 27.707 12.375C27.707 11.7537 27.2034 11.25 26.582 11.25Z" stroke="#A8C9CC" stroke-width="4" stroke-linecap="round" stroke-linejoin="round"/>
<path opacity="0.51" d="M13.2339 13.5C10.7111 21.6788 9.14453 21.9375 9.14453 25.7344C9.14453 33.1903 12.3761 33.6094 19.832 33.6094C27.288 33.6094 30.5195 33.1903 30.5195 25.7344C30.5195 21.9375 28.953 21.6788 26.4302 13.5H13.2339Z" fill="#A7E8EA"/>
<path opacity="0.52" d="M26.582 14.0625H13.082V15.1875H26.582V14.0625Z" fill="#8FCCCC"/>
<path d="M20.8652 33.6063H18.8008C16.1823 33.5866 14.1377 33.4629 12.6133 32.9004C13.0239 34.152 14.6805 35.4316 15.8898 35.4316H23.7705C24.9798 35.4316 26.6364 34.1463 27.047 32.9004C25.5283 33.4685 23.4892 33.5838 20.8652 33.6063Z" fill="#8E5A5A"/>
<path d="M9.25406 27.8435L30.3816 28.0713C30.4709 27.351 30.516 26.6259 30.5166 25.9001C29.175 25.1154 27.9122 24.2688 27.4228 23.6191C26.1994 21.9879 24.5541 20.2441 22.9228 20.2441C21.2916 20.2441 18.7069 24.1873 14.7694 21.3748C13.4419 20.427 11.7741 22.8373 10.5506 24.4685C10.0351 25.1647 9.57169 25.8979 9.16406 26.6623C9.18281 27.0748 9.21281 27.4685 9.25406 27.8435Z" fill="#A32B26"/>
<path d="M30.3789 25.8272C29.0908 25.065 27.8983 24.2522 27.4258 23.625C26.2023 21.9937 24.557 20.25 22.9258 20.25C21.2945 20.25 18.707 24.1875 14.7695 21.375" stroke="#962722" stroke-width="4" stroke-miterlimit="10"/>
<path d="M30.3536 28.288C28.458 27.8689 25.2686 26.9999 23.207 24.7499C19.2695 20.4664 15.5177 19.8477 14.4883 19.9686C14.1817 20.0052 13.577 20.1402 11.957 21.9374C10.8855 23.1242 9.88984 24.2324 9.14453 25.2336C9.14453 25.3939 9.14453 25.5599 9.14453 25.7342C9.14453 33.1902 12.3761 33.6092 19.832 33.6092C26.3233 33.6092 29.6111 33.2886 30.3536 28.288Z" fill="#B3372B"/>
<path d="M13.6445 25.5938C13.9552 25.5938 14.207 25.3419 14.207 25.0312C14.207 24.7206 13.9552 24.4688 13.6445 24.4688C13.3339 24.4688 13.082 24.7206 13.082 25.0312C13.082 25.3419 13.3339 25.5938 13.6445 25.5938Z" fill="#FF6152"/>
<path d="M25.1758 29.8125C25.4864 29.8125 25.7383 29.5607 25.7383 29.25C25.7383 28.9393 25.4864 28.6875 25.1758 28.6875C24.8651 28.6875 24.6133 28.9393 24.6133 29.25C24.6133 29.5607 24.8651 29.8125 25.1758 29.8125Z" fill="#FF6152"/>
<path d="M27.707 26.4375C28.0177 26.4375 28.2695 26.1857 28.2695 25.875C28.2695 25.5643 28.0177 25.3125 27.707 25.3125C27.3964 25.3125 27.1445 25.5643 27.1445 25.875C27.1445 26.1857 27.3964 26.4375 27.707 26.4375Z" fill="#FF6152"/>
<path d="M27.707 30.6562C28.0177 30.6562 28.2695 30.4044 28.2695 30.0938C28.2695 29.7831 28.0177 29.5312 27.707 29.5312C27.3964 29.5312 27.1445 29.7831 27.1445 30.0938C27.1445 30.4044 27.3964 30.6562 27.707 30.6562Z" fill="#FF6152"/>
<path d="M21.8008 31.5C22.1114 31.5 22.3633 31.2482 22.3633 30.9375C22.3633 30.6268 22.1114 30.375 21.8008 30.375C21.4901 30.375 21.2383 30.6268 21.2383 30.9375C21.2383 31.2482 21.4901 31.5 21.8008 31.5Z" fill="#FF6152"/>
<path d="M24.8945 23.9062C25.2052 23.9062 25.457 23.6544 25.457 23.3438C25.457 23.0331 25.2052 22.7812 24.8945 22.7812C24.5839 22.7812 24.332 23.0331 24.332 23.3438C24.332 23.6544 24.5839 23.9062 24.8945 23.9062Z" fill="#FF6152"/>
<path d="M13.6445 29.8125C13.9552 29.8125 14.207 29.5607 14.207 29.25C14.207 28.9393 13.9552 28.6875 13.6445 28.6875C13.3339 28.6875 13.082 28.9393 13.082 29.25C13.082 29.5607 13.3339 29.8125 13.6445 29.8125Z" fill="#FF6152"/>
<path d="M20.6758 28.6875C20.9864 28.6875 21.2383 28.4357 21.2383 28.125C21.2383 27.8143 20.9864 27.5625 20.6758 27.5625C20.3651 27.5625 20.1133 27.8143 20.1133 28.125C20.1133 28.4357 20.3651 28.6875 20.6758 28.6875Z" fill="#FF6152"/>
<path d="M17.582 31.5C17.8927 31.5 18.1445 31.2482 18.1445 30.9375C18.1445 30.6268 17.8927 30.375 17.582 30.375C17.2714 30.375 17.0195 30.6268 17.0195 30.9375C17.0195 31.2482 17.2714 31.5 17.582 31.5Z" fill="#FF6152"/>
<path d="M9.98828 26.7188C10.2989 26.7188 10.5508 26.4669 10.5508 26.1562C10.5508 25.8456 10.2989 25.5938 9.98828 25.5938C9.67762 25.5938 9.42578 25.8456 9.42578 26.1562C9.42578 26.4669 9.67762 26.7188 9.98828 26.7188Z" fill="#FF6152"/>
<path d="M16.7383 27.2812C17.0489 27.2812 17.3008 27.0294 17.3008 26.7188C17.3008 26.4081 17.0489 26.1562 16.7383 26.1562C16.4276 26.1562 16.1758 26.4081 16.1758 26.7188C16.1758 27.0294 16.4276 27.2812 16.7383 27.2812Z" fill="#FF6152"/>
<path d="M17.0195 25.0312C17.3302 25.0312 17.582 24.7794 17.582 24.4688C17.582 24.1581 17.3302 23.9062 17.0195 23.9062C16.7089 23.9062 16.457 24.1581 16.457 24.4688C16.457 24.7794 16.7089 25.0312 17.0195 25.0312Z" fill="#932121"/>
<path d="M15.0508 26.7188C15.3614 26.7188 15.6133 26.4669 15.6133 26.1562C15.6133 25.8456 15.3614 25.5938 15.0508 25.5938C14.7401 25.5938 14.4883 25.8456 14.4883 26.1562C14.4883 26.4669 14.7401 26.7188 15.0508 26.7188Z" fill="#DDD4A2"/>
<path d="M27.1445 25.3125C27.4552 25.3125 27.707 25.0607 27.707 24.75C27.707 24.4393 27.4552 24.1875 27.1445 24.1875C26.8339 24.1875 26.582 24.4393 26.582 24.75C26.582 25.0607 26.8339 25.3125 27.1445 25.3125Z" fill="#DDD4A2"/>
<path d="M11.1133 25.5938C11.4239 25.5938 11.6758 25.3419 11.6758 25.0312C11.6758 24.7206 11.4239 24.4688 11.1133 24.4688C10.8026 24.4688 10.5508 24.7206 10.5508 25.0312C10.5508 25.3419 10.8026 25.5938 11.1133 25.5938Z" fill="#DDD4A2"/>
<path d="M15.0508 22.7812C15.3614 22.7812 15.6133 22.5294 15.6133 22.2188C15.6133 21.9081 15.3614 21.6562 15.0508 21.6562C14.7401 21.6562 14.4883 21.9081 14.4883 22.2188C14.4883 22.5294 14.7401 22.7812 15.0508 22.7812Z" fill="#DDD4A2"/>
<path d="M17.8633 30.0938C18.1739 30.0938 18.4258 29.8419 18.4258 29.5312C18.4258 29.2206 18.1739 28.9688 17.8633 28.9688C17.5526 28.9688 17.3008 29.2206 17.3008 29.5312C17.3008 29.8419 17.5526 30.0938 17.8633 30.0938Z" fill="#DDD4A2"/>
<path d="M25.7383 28.9688C26.0489 28.9688 26.3008 28.7169 26.3008 28.4062C26.3008 28.0956 26.0489 27.8438 25.7383 27.8438C25.4276 27.8438 25.1758 28.0956 25.1758 28.4062C25.1758 28.7169 25.4276 28.9688 25.7383 28.9688Z" fill="#DDD4A2"/>
<path d="M23.207 30.375C23.5177 30.375 23.7695 30.1232 23.7695 29.8125C23.7695 29.5018 23.5177 29.25 23.207 29.25C22.8964 29.25 22.6445 29.5018 22.6445 29.8125C22.6445 30.1232 22.8964 30.375 23.207 30.375Z" fill="#DDD4A2"/>
<path d="M13.082 31.2188C13.3927 31.2188 13.6445 30.9669 13.6445 30.6562C13.6445 30.3456 13.3927 30.0938 13.082 30.0938C12.7714 30.0938 12.5195 30.3456 12.5195 30.6562C12.5195 30.9669 12.7714 31.2188 13.082 31.2188Z" fill="#DDD4A2"/>
<path d="M20.6758 26.1562C20.9864 26.1562 21.2383 25.9044 21.2383 25.5938C21.2383 25.2831 20.9864 25.0312 20.6758 25.0312C20.3651 25.0312 20.1133 25.2831 20.1133 25.5938C20.1133 25.9044 20.3651 26.1562 20.6758 26.1562Z" fill="#DDD4A2"/>
<path d="M11.6758 27C11.9864 27 12.2383 26.7482 12.2383 26.4375C12.2383 26.1268 11.9864 25.875 11.6758 25.875C11.3651 25.875 11.1133 26.1268 11.1133 26.4375C11.1133 26.7482 11.3651 27 11.6758 27Z" fill="#932121"/>
<path d="M18.4258 23.9062C18.7364 23.9062 18.9883 23.6544 18.9883 23.3438C18.9883 23.0331 18.7364 22.7812 18.4258 22.7812C18.1151 22.7812 17.8633 23.0331 17.8633 23.3438C17.8633 23.6544 18.1151 23.9062 18.4258 23.9062Z" fill="#932121"/>
<path d="M13.9258 23.0625C14.2364 23.0625 14.4883 22.8107 14.4883 22.5C14.4883 22.1893 14.2364 21.9375 13.9258 21.9375C13.6151 21.9375 13.3633 22.1893 13.3633 22.5C13.3633 22.8107 13.6151 23.0625 13.9258 23.0625Z" fill="#932121"/>
<path d="M26.582 29.25C26.8927 29.25 27.1445 28.9982 27.1445 28.6875C27.1445 28.3768 26.8927 28.125 26.582 28.125C26.2714 28.125 26.0195 28.3768 26.0195 28.6875C26.0195 28.9982 26.2714 29.25 26.582 29.25Z" fill="#932121"/>
<path d="M24.8945 31.7812C25.2052 31.7812 25.457 31.5294 25.457 31.2188C25.457 30.9081 25.2052 30.6562 24.8945 30.6562C24.5839 30.6562 24.332 30.9081 24.332 31.2188C24.332 31.5294 24.5839 31.7812 24.8945 31.7812Z" fill="#932121"/>
<path d="M23.207 28.9688C23.5177 28.9688 23.7695 28.7169 23.7695 28.4062C23.7695 28.0956 23.5177 27.8438 23.207 27.8438C22.8964 27.8438 22.6445 28.0956 22.6445 28.4062C22.6445 28.7169 22.8964 28.9688 23.207 28.9688Z" fill="#932121"/>
<path d="M11.3945 30.375C11.7052 30.375 11.957 30.1232 11.957 29.8125C11.957 29.5018 11.7052 29.25 11.3945 29.25C11.0839 29.25 10.832 29.5018 10.832 29.8125C10.832 30.1232 11.0839 30.375 11.3945 30.375Z" fill="#932121"/>
<path d="M14.7695 31.7812C15.0802 31.7812 15.332 31.5294 15.332 31.2188C15.332 30.9081 15.0802 30.6562 14.7695 30.6562C14.4589 30.6562 14.207 30.9081 14.207 31.2188C14.207 31.5294 14.4589 31.7812 14.7695 31.7812Z" fill="#932121"/>
<path d="M19.5508 31.2188C19.8614 31.2188 20.1133 30.9669 20.1133 30.6562C20.1133 30.3456 19.8614 30.0938 19.5508 30.0938C19.2401 30.0938 18.9883 30.3456 18.9883 30.6562C18.9883 30.9669 19.2401 31.2188 19.5508 31.2188Z" fill="#932121"/>
<path d="M13.3633 27.8438C13.6739 27.8438 13.9258 27.5919 13.9258 27.2812C13.9258 26.9706 13.6739 26.7188 13.3633 26.7188C13.0526 26.7188 12.8008 26.9706 12.8008 27.2812C12.8008 27.5919 13.0526 27.8438 13.3633 27.8438Z" fill="#932121"/>
<path d="M22.082 26.4375C22.3927 26.4375 22.6445 26.1857 22.6445 25.875C22.6445 25.5643 22.3927 25.3125 22.082 25.3125C21.7714 25.3125 21.5195 25.5643 21.5195 25.875C21.5195 26.1857 21.7714 26.4375 22.082 26.4375Z" fill="#932121"/>
<path d="M12.8008 24.4688C13.1114 24.4688 13.3633 24.2169 13.3633 23.9062C13.3633 23.5956 13.1114 23.3438 12.8008 23.3438C12.4901 23.3438 12.2383 23.5956 12.2383 23.9062C12.2383 24.2169 12.4901 24.4688 12.8008 24.4688Z" fill="#932121"/>
<path d="M28.5508 27C28.8614 27 29.1133 26.7482 29.1133 26.4375C29.1133 26.1268 28.8614 25.875 28.5508 25.875C28.2401 25.875 27.9883 26.1268 27.9883 26.4375C27.9883 26.7482 28.2401 27 28.5508 27Z" fill="#932121"/>
<path d="M23.4883 23.0625C23.7989 23.0625 24.0508 22.8107 24.0508 22.5C24.0508 22.1893 23.7989 21.9375 23.4883 21.9375C23.1776 21.9375 22.9258 22.1893 22.9258 22.5C22.9258 22.8107 23.1776 23.0625 23.4883 23.0625Z" fill="#932121"/>
<path d="M25.1758 25.0312C25.4864 25.0312 25.7383 24.7794 25.7383 24.4688C25.7383 24.1581 25.4864 23.9062 25.1758 23.9062C24.8651 23.9062 24.6133 24.1581 24.6133 24.4688C24.6133 24.7794 24.8651 25.0312 25.1758 25.0312Z" fill="#932121"/>
<path d="M16.457 29.25C16.7677 29.25 17.0195 28.9982 17.0195 28.6875C17.0195 28.3768 16.7677 28.125 16.457 28.125C16.1464 28.125 15.8945 28.3768 15.8945 28.6875C15.8945 28.9982 16.1464 29.25 16.457 29.25Z" fill="#932121"/>
<path d="M19.2695 25.5938C19.5802 25.5938 19.832 25.3419 19.832 25.0312C19.832 24.7206 19.5802 24.4688 19.2695 24.4688C18.9589 24.4688 18.707 24.7206 18.707 25.0312C18.707 25.3419 18.9589 25.5938 19.2695 25.5938Z" fill="#FF6152"/>
<path d="M15.8945 23.0625C16.2052 23.0625 16.457 22.8107 16.457 22.5C16.457 22.1893 16.2052 21.9375 15.8945 21.9375C15.5839 21.9375 15.332 22.1893 15.332 22.5C15.332 22.8107 15.5839 23.0625 15.8945 23.0625Z" fill="#FF6152"/>
<path d="M9.29688 25.0311C10.0169 24.0805 10.9562 23.0399 11.9575 21.9374C13.5775 20.1402 14.1822 20.0052 14.4887 19.9686C15.5181 19.8477 19.27 20.4664 23.2075 24.7499C25.1762 26.8986 28.2081 27.7986 30.1234 28.2374" stroke="#962722" stroke-width="4" stroke-miterlimit="10"/>
<path d="M12.668 33.0445C13.1545 34.2483 14.7295 35.438 15.8939 35.438H23.7689C24.9502 35.438 26.5617 34.2089 27.0173 32.9883" stroke="#6D3535" stroke-width="4" stroke-miterlimit="10" stroke-linecap="round"/>
<path opacity="0.51" d="M24.6125 15.1875H12.5525C12.2712 16.1522 11.7875 18 11.7875 18C9.98747 21.0938 9.14372 22.1681 9.14372 25.1719C9.112 26.3794 9.32436 27.5809 9.7681 28.7044C11.2334 28.0912 11.4078 26.6063 11.4303 26.2997V26.2434C11.675 22.4016 14.7687 17.6372 14.7687 17.6372L14.87 17.2856C14.9502 17.0063 15.1189 16.7605 15.3506 16.585C15.5823 16.4096 15.8646 16.314 16.1553 16.3125C16.3443 16.3125 16.5312 16.3524 16.7037 16.4296C16.8762 16.5069 17.0304 16.6197 17.1563 16.7607C17.2822 16.9017 17.3768 17.0677 17.434 17.2478C17.4913 17.428 17.5098 17.6181 17.4884 17.8059C17.0187 21.9516 16.7375 22.7587 16.7375 25.7344V25.7766C16.7276 26.5912 17.0328 27.3781 17.5894 27.9729C18.146 28.5678 18.9109 28.9246 19.7243 28.9688C20.1395 28.9831 20.5533 28.9137 20.9411 28.7647C21.3289 28.6156 21.6827 28.39 21.9814 28.1013C22.2801 27.8126 22.5176 27.4666 22.6797 27.0841C22.8418 26.7017 22.9252 26.2904 22.925 25.875C22.925 25.8244 22.925 25.7737 22.925 25.7231C22.925 22.6912 22.6437 21.9094 22.1459 17.5669C22.128 17.4089 22.1438 17.2489 22.1923 17.0974C22.2408 16.9459 22.3208 16.8065 22.4271 16.6882C22.5334 16.57 22.6636 16.4756 22.809 16.4113C22.9545 16.347 23.1119 16.3143 23.2709 16.3153H23.4228C23.7295 16.3214 24.0263 16.2065 24.2489 15.9954C24.4716 15.7844 24.6022 15.4941 24.6125 15.1875Z" fill="white"/>
<path opacity="0.8" d="M19.832 30.375C21.8513 30.375 23.4883 28.738 23.4883 26.7188C23.4883 24.6995 21.8513 23.0625 19.832 23.0625C17.8127 23.0625 16.1758 24.6995 16.1758 26.7188C16.1758 28.738 17.8127 30.375 19.832 30.375Z" fill="white"/>
<path d="M19.832 28.9688C20.1427 28.9688 20.3945 28.7169 20.3945 28.4062C20.3945 28.0956 20.1427 27.8438 19.832 27.8438C19.5214 27.8438 19.2695 28.0956 19.2695 28.4062C19.2695 28.7169 19.5214 28.9688 19.832 28.9688Z" fill="#B7AF80"/>
<path d="M21.5195 27.8438C21.8302 27.8438 22.082 27.5919 22.082 27.2812C22.082 26.9706 21.8302 26.7188 21.5195 26.7188C21.2089 26.7188 20.957 26.9706 20.957 27.2812C20.957 27.5919 21.2089 27.8438 21.5195 27.8438Z" fill="#B7AF80"/>
<path d="M18.1445 27.8438C18.4552 27.8438 18.707 27.5919 18.707 27.2812C18.707 26.9706 18.4552 26.7188 18.1445 26.7188C17.8339 26.7188 17.582 26.9706 17.582 27.2812C17.582 27.5919 17.8339 27.8438 18.1445 27.8438Z" fill="#B7AF80"/>
<path d="M19.832 26.7188C20.4534 26.7188 20.957 26.2151 20.957 25.5938C20.957 24.9724 20.4534 24.4688 19.832 24.4688C19.2107 24.4688 18.707 24.9724 18.707 25.5938C18.707 26.2151 19.2107 26.7188 19.832 26.7188Z" fill="#B7AF80"/>
<path d="M30.5189 25.5938C30.4795 21.9375 28.9214 21.5747 26.4323 13.5H13.2333C11.2645 19.8844 9.87797 21.4425 9.36328 23.625" stroke="#A8C9CC" stroke-width="4" stroke-linecap="round" stroke-linejoin="round"/>
<path d="M9.36485 23.625C9.20885 24.317 9.13521 25.0251 9.14547 25.7344C9.14547 33.1903 12.377 33.6094 19.833 33.6094C27.2889 33.6094 30.5205 33.1903 30.5205 25.7344C30.5205 25.6866 30.5205 25.6416 30.5205 25.5938" stroke="#B26464" stroke-width="4" stroke-miterlimit="10" stroke-linecap="round"/>
</g>
<defs>
<clipPath id="clip0_526_9221">
<rect width="36" height="36" fill="white" transform="translate(0.988281)"/>
</clipPath>
</defs>
</svg>
