<svg width="50" height="50" viewBox="0 0 50 50" fill="none" xmlns="http://www.w3.org/2000/svg">
<rect opacity="0.7" width="50" height="50" rx="12" fill="#262730"/>
<path d="M25.0074 14.4248C27.0639 13.1098 29.5809 12.7734 31.9008 13.5034C33.9185 14.1309 35.5963 15.5722 36.5442 17.4923C37.6525 19.8195 37.8034 22.501 36.9633 24.942C36.1901 27.1891 34.9225 29.2261 33.2574 30.8972C32.1657 32.0193 30.9893 33.0525 29.739 33.9872L29.6728 34.0434C29.2575 34.323 28.6989 34.2132 28.4155 33.7962C28.2714 33.5948 28.2135 33.3425 28.2551 33.097C28.2966 32.8514 28.4341 32.6334 28.6361 32.4928C29.8092 31.6088 30.9153 30.636 31.9449 29.5826C33.4277 28.1234 34.56 26.3354 35.2537 24.3577C35.921 22.387 35.786 20.2261 34.8787 18.3575C34.1487 16.8875 32.8623 15.7839 31.3162 15.3012C29.3442 14.673 27.1957 15.0538 25.5478 16.3237C25.2202 16.5709 24.7725 16.5709 24.4449 16.3237C22.7977 15.052 20.6484 14.6711 18.6764 15.3012C17.12 15.7733 15.8208 16.8735 15.0808 18.3462C14.1941 20.2135 14.0672 22.3619 14.7279 24.324C15.4246 26.297 16.5566 28.0807 18.0367 29.5376C20.2238 31.674 22.6354 33.5581 25.2279 35.1558C25.5577 35.3888 25.7027 35.8116 25.5871 36.2031C25.4716 36.5946 25.1218 36.8658 24.7206 36.875C24.5397 36.8761 24.3628 36.8212 24.2132 36.7177C21.5126 35.0537 19.001 33.0903 16.7242 30.8635C15.0499 29.1979 13.7776 27.1594 13.0073 24.9083C12.1963 22.4707 12.3627 19.8055 13.4705 17.4923C14.4184 15.5722 16.0962 14.1309 18.1139 13.5034C20.4338 12.7734 22.9508 13.1098 25.0074 14.4248ZM29.8603 18.1215C31.5049 18.6504 32.6755 20.1356 32.8273 21.8857L32.8343 22.0324C32.8284 22.2271 32.762 22.4164 32.6426 22.5719C32.4933 22.7662 32.2738 22.8914 32.0331 22.9194C31.528 22.9859 31.0649 22.6246 30.9964 22.1104C30.9503 21.072 30.2715 20.1739 29.2978 19.8631C28.9358 19.6329 28.775 19.1805 28.9084 18.7675C29.0418 18.3545 29.4349 18.0878 29.8603 18.1215Z" fill="#FFD166"/>
</svg>
