<svg width="33" height="29" viewBox="0 0 33 29" fill="none" xmlns="http://www.w3.org/2000/svg">
<g clip-path="url(#clip0_100_79)">
<path d="M27.6525 16.3858H3.72654C3.10493 16.3858 2.51439 16.6566 2.15385 17.1151C1.79332 17.5738 1.71251 18.1596 1.92386 18.6789L5.2122 26.6026C5.62868 27.6137 6.72272 28.2934 7.94109 28.2934H23.4442C24.6501 28.2934 25.7504 27.6137 26.1731 26.6026L29.4552 18.6845C29.9152 17.5793 28.9952 16.3858 27.6525 16.3858ZM26.5149 19.7619L24.4574 24.4255C24.3331 24.7128 23.9663 24.8454 23.6555 24.7405C23.3323 24.6245 23.1769 24.3039 23.3012 24.0221L25.3587 19.3586C25.4831 19.0712 25.8436 18.9331 26.1668 19.0436C26.4839 19.1541 26.6393 19.4746 26.5149 19.7619ZM8.68703 7.6333C8.68703 6.95365 8.62487 6.29058 8.41973 5.82643C8.30163 5.5391 7.94109 5.40096 7.61785 5.50589C7.29461 5.61646 7.13921 5.93689 7.25731 6.21875C7.39407 6.5337 7.45001 7.03648 7.45001 7.57798C5.05058 7.75486 3.16087 9.53962 3.16087 11.7222C3.16087 14.0154 5.26193 15.8829 7.84163 15.8829C10.4213 15.8829 12.5224 14.0154 12.5224 11.7222C12.5224 9.67776 10.8627 7.98141 8.68703 7.6333ZM7.95352 10.7221C7.94731 10.7221 7.94731 10.7221 7.94731 10.7221C7.17029 10.8105 5.8276 10.4182 6.33111 9.69434C6.77867 9.02574 7.32569 9.96509 8.5627 9.47331H8.56892C9.43918 9.14178 10.2286 10.6503 7.95352 10.7221ZM11.7205 15.1315C11.4408 15.2587 11.3102 15.5515 11.4159 15.8112C11.5193 16.0802 11.835 16.232 12.137 16.1648C19.901 14.6286 21.4612 9.47331 21.8528 6.30716C21.0447 6.67737 20.2677 6.82103 19.5591 6.82103C18.0112 6.82103 16.7556 6.14144 16.0532 5.64956C16.0532 5.71592 16.0532 5.77664 16.0594 5.84301C16.4506 10.8456 14.0287 14.1385 11.7205 15.1315ZM21.9772 4.94234C22.0786 3.77141 21.6108 2.97954 20.7703 2.5155C20.9093 2.39709 21.0666 2.27332 21.2638 2.13998C21.5371 1.95543 21.5899 1.60842 21.3823 1.36563C21.1753 1.12278 20.7843 1.07531 20.5111 1.26042C20.0306 1.58533 19.6856 1.89581 19.433 2.18435C18.0519 2.18154 16.8317 3.36948 16.3453 4.41183C16.4075 4.41183 18.8412 6.94315 21.9772 4.94234ZM29.3744 6.53923C28.0538 6.06237 26.5069 6.38871 25.9866 7.43984L22.1015 15.2807H27.6525C27.9633 15.2807 28.2679 15.3193 28.5601 15.4078L31.1025 9.28544C31.4991 8.36311 30.8915 7.09234 29.3744 6.53923ZM19.9994 12.9769C19.8586 13.4744 19.498 14.3232 19.172 14.5655C18.9085 14.7614 18.8733 15.1094 19.0931 15.3436C19.2163 15.4748 19.3923 15.5422 19.5708 15.5422C19.711 15.5422 19.8525 15.5001 19.9685 15.4138C20.7187 14.8569 21.1303 13.5111 21.205 13.2467C21.2888 12.951 21.0866 12.6504 20.7539 12.576C20.4194 12.5015 20.0831 12.6806 19.9994 12.9769Z" fill="#FFD166"/>
</g>
<defs>
<clipPath id="clip0_100_79">
<rect width="31.0807" height="27.6279" fill="white" transform="translate(0.974609 0.90625)"/>
</clipPath>
</defs>
</svg>
