<svg width="39" height="36" viewBox="0 0 39 36" fill="none" xmlns="http://www.w3.org/2000/svg">
<path d="M19.5242 0C9.14361 0 0.650391 8.1 0.650391 18C0.650391 27.9 9.14361 36 19.5242 36C29.9638 36 38.398 27.9 38.398 18C38.398 8.1 29.9638 0 19.5242 0ZM19.5242 34.9312C9.73342 34.9312 1.77102 27.3375 1.77102 18C1.77102 8.6625 9.73342 1.06875 19.5242 1.06875C29.315 1.06875 37.2774 8.6625 37.2774 18C37.2774 27.3375 29.315 34.9312 19.5242 34.9312Z" fill="#FFD166"/>
<path d="M19.5227 1.06836C9.73193 1.06836 1.76953 8.66211 1.76953 17.9996C1.76953 27.3371 9.73193 34.9309 19.5227 34.9309C29.3135 34.9309 37.2759 27.3371 37.2759 17.9996C37.2759 8.66211 29.3135 1.06836 19.5227 1.06836ZM19.5227 7.14336C22.3538 7.14336 24.713 9.33711 24.713 12.0934C24.713 14.7934 22.4128 17.0434 19.5227 17.0434C16.6916 17.0434 14.3324 14.8496 14.3324 12.0934C14.3914 9.39336 16.6916 7.14336 19.5227 7.14336ZM28.9007 28.3496H10.1448C9.84989 28.3496 9.55498 28.1246 9.55498 27.7871C9.55498 22.5559 14.0375 18.2809 19.5227 18.2809C25.0079 18.2809 29.4905 22.5559 29.4905 27.7871C29.4905 28.1246 29.2545 28.3496 28.9007 28.3496Z" fill="#FFF5E1"/>
<path d="M19.5227 1.06836C9.73193 1.06836 1.76953 8.66211 1.76953 17.9996C1.76953 27.3371 9.73193 34.9309 19.5227 34.9309C29.3135 34.9309 37.2759 27.3371 37.2759 17.9996C37.2759 8.66211 29.3135 1.06836 19.5227 1.06836ZM19.5227 33.8059C10.3807 33.8059 2.94915 26.7184 2.94915 17.9996C2.94915 9.28086 10.3807 2.19336 19.5227 2.19336C28.6647 2.19336 36.0963 9.28086 36.0963 17.9996C36.0963 26.7184 28.6647 33.8059 19.5227 33.8059Z" fill="#262730"/>
<path d="M19.5244 18.2812C14.0392 18.2812 9.55664 22.5563 9.55664 27.7875C9.55664 28.0688 9.79256 28.35 10.1464 28.35H28.9613C29.2562 28.35 29.5511 28.125 29.5511 27.7875C29.4921 22.5563 25.0096 18.2812 19.5244 18.2812ZM10.7363 27.2812C11.0312 22.8937 14.8649 19.4062 19.5244 19.4062C24.1839 19.4062 28.0176 22.8937 28.3125 27.2812H10.7363Z" fill="#FFD166"/>
<path d="M28.3126 27.2812H10.7363C11.0312 22.8937 14.865 19.4062 19.5245 19.4062C24.1839 19.4062 28.0177 22.8937 28.3126 27.2812Z" fill="#FFD166"/>
<path d="M19.5243 7.14355C16.6932 7.14355 14.334 9.3373 14.334 12.0936C14.334 14.7936 16.6342 17.0436 19.5243 17.0436C22.3554 17.0436 24.7146 14.8498 24.7146 12.0936C24.7146 9.39355 22.3554 7.14355 19.5243 7.14355ZM19.5243 15.9186C17.283 15.9186 15.5136 14.2311 15.5136 12.0936C15.5136 9.95605 17.342 8.26855 19.5243 8.26855C21.7656 8.26855 23.535 10.0123 23.535 12.0936C23.535 14.1748 21.7656 15.9186 19.5243 15.9186Z" fill="#262730"/>
<path d="M23.535 12.0936C23.535 14.2311 21.7066 15.9186 19.5244 15.9186C17.2831 15.9186 15.5137 14.2311 15.5137 12.0936C15.5137 9.95605 17.3421 8.26855 19.5244 8.26855C21.7656 8.26855 23.535 9.95605 23.535 12.0936Z" fill="#262730"/>
<path d="M19.5245 19.4062C14.865 19.4062 11.0312 22.8937 10.7363 27.2812H28.3716C28.0177 22.8937 24.1839 19.4062 19.5245 19.4062ZM19.5245 20.25C23.3582 20.25 26.6611 22.8937 27.3099 26.4375H11.739C12.3878 22.8937 15.6907 20.25 19.5245 20.25Z" fill="#FFD166"/>
<path d="M19.5244 8.26855C17.2831 8.26855 15.5137 10.0123 15.5137 12.0936C15.5137 14.1748 17.3421 15.9186 19.5244 15.9186C21.7656 15.9186 23.535 14.2311 23.535 12.0936C23.535 9.95605 21.7656 8.26855 19.5244 8.26855ZM19.5244 15.0748C17.8139 15.0748 16.3984 13.7248 16.3984 12.0936C16.3984 10.4623 17.8139 9.11231 19.5244 9.11231C21.2348 9.11231 22.6503 10.4623 22.6503 12.0936C22.6503 13.7248 21.2348 15.0748 19.5244 15.0748Z" fill="#262730"/>
</svg>
