<svg width="641" height="660" viewBox="0 0 641 660" fill="none" xmlns="http://www.w3.org/2000/svg">
<g filter="url(#filter0_d_242_696)">
<path d="M135.49 45.4767V41.6172L142.665 44.5118H148.302L149.84 48.3714L157.527 49.8187H160.602L162.652 55.6081V60.9149L164.189 63.8096L166.239 62.8447L170.852 66.7043V69.5989H172.902L174.952 72.4936L180.076 75.3882L178.027 81.1776H182.126L185.714 83.1073L190.839 88.4142V90.344L186.226 88.4142L183.151 84.5547L180.589 85.5196H177.514L177.002 87.4493L173.927 88.4142L171.877 90.344L167.777 93.7211L165.727 92.2738V101.923H162.139L159.577 104.817H155.477L153.427 107.23L151.377 104.817H142.665L140.102 103.37V97.5807H134.465V95.6509L131.39 90.8264L127.29 87.4493L124.215 84.0722L127.802 81.1776V76.3531L124.215 75.3882V70.5638L127.802 68.634L129.34 65.7394H122.677L122.165 61.8798L124.215 60.9149V57.5378H119.603V52.2309H124.215L125.24 49.3363H127.29L129.34 45.4767H135.49Z" stroke="black" stroke-width="2"/>
<path d="M204.164 93.054L205.175 91.5857L208.713 93.054L211.24 96.9693V99.4164H213.767H218.316L222.864 106.268V109.205L223.875 112.631L226.908 115.078L228.424 117.525L226.908 121.44L229.435 124.866L226.908 130.25L229.94 131.718L231.456 133.186H229.435L228.424 135.144H224.886L219.326 133.186L217.305 134.654H213.767L210.229 137.101L207.702 140.527L206.186 144.443L206.691 147.379L207.702 150.316L206.691 151.784L205.175 152.763L204.164 154.72L199.615 153.742H197.594L194.561 150.316L193.55 146.4L187.485 142.974L183.947 140.527V136.612L180.915 132.207H172.323V125.845L169.29 121.44L168.785 118.993L165.247 115.078H162.72V109.205H165.247L167.268 105.289L166.258 102.353V92.0751L168.785 94.0328L174.85 88.6492L177.377 87.6704L178.388 85.7127H180.915L183.442 84.7339L186.474 88.6492L191.023 90.6069L194.561 93.054H204.164Z" stroke="black" stroke-width="2"/>
<path d="M159.571 105.158L161.618 102.23H165.711L166.735 105.646L164.688 109.061H162.129V115.404H164.688L168.782 119.308V121.747L171.852 125.651V131.994H180.551L183.621 136.385L184.133 140.776L187.203 142.728L184.645 144.192L185.668 148.583L187.715 152.974V154.926H184.645L181.574 159.805L177.992 161.757L175.434 160.781L172.875 163.708V166.636L170.828 168.588L168.27 169.563H157.012L153.942 171.027L152.407 173.467L150.872 170.539L149.337 166.636L146.778 166.148L143.708 165.172H138.591L136.544 166.148L133.473 165.172H126.821L122.728 161.757V153.95L127.845 147.607L137.567 138.824V129.554L135.009 123.211L141.149 115.892L146.266 112.965L151.895 110.525L153.43 108.086L155.477 105.158H159.571Z" stroke="black" stroke-width="2"/>
<path d="M207.656 156.14L204.586 154.209V152.134L206.633 151.312L207.656 149.863L206.121 146.966V144.069L207.656 140.206L210.726 136.826L214.308 134.412H218.401L219.425 132.963L225.565 134.412H228.635L230.17 132.963H231.705L236.31 129.1L237.333 130.549L238.357 134.412L243.473 138.757L246.543 141.172L254.219 141.654L256.265 142.137L257.8 145.517L259.847 146.966L261.894 150.829L270.081 152.76L272.127 154.209L275.197 157.589V159.038L273.151 161.935L270.081 162.9L269.057 165.798L265.987 167.729L263.94 170.626V173.04V175.455L261.894 178.352V182.698L260.87 185.112L257.8 187.526V191.389L256.265 192.838L253.707 191.389H249.613L246.032 188.975L244.497 190.423L241.938 188.975L238.357 185.112H235.287L231.705 182.698L230.17 180.283L231.705 177.386L228.635 175.455L224.541 172.075L222.495 169.66L220.96 165.798L216.355 164.349V169.66L214.308 172.075H209.703L207.656 169.66L208.679 164.349V162.9L209.703 160.003V157.589L207.656 156.14Z" stroke="black" stroke-width="2"/>
<path d="M185.029 143.819L187.587 142.848L193.216 146.247L195.262 150.131L197.821 153.53L200.379 153.045L203.961 154.501V156.929L201.403 158.872L200.379 160.814L197.309 163.727L195.774 165.184L195.262 168.583L193.216 170.525L192.192 173.439V176.838L194.239 178.78V186.064L193.216 188.977L195.774 191.405L197.821 193.347V199.174L200.379 201.602L202.426 206.944V209.857L201.403 213.742L199.868 215.198L197.821 214.713L195.262 216.169L191.169 219.083L188.099 216.169V209.857L186.564 206.458L185.029 206.944L184.006 209.857L181.959 211.314L177.354 206.458V209.857L173.26 211.314L171.725 216.169L168.655 213.742V206.458L165.074 202.088L162.515 198.203L159.445 194.319V190.434L157.398 188.006L156.375 184.122V181.208H149.723L144.606 178.78L142.56 176.838V179.266H138.978L137.443 176.838V173.439L135.908 168.583L133.35 165.184L137.443 166.155L138.978 165.184H144.095L147.165 166.155L149.723 166.641L151.258 171.011L152.793 173.439L154.328 171.011L157.398 169.554H168.655L171.725 168.583L173.26 166.641V163.727L175.819 160.814L178.377 161.785L181.959 159.843L185.029 154.987H188.099V153.045L186.052 148.675L185.029 143.819Z" stroke="black" stroke-width="2"/>
<path d="M149.787 182.137H156.942V184.566V188.938L159.498 191.367V195.254L162.564 198.169L164.098 201.569L168.698 206.428V214.686L172.276 216.63L173.809 211.772L177.387 210.8V206.428L181.987 211.772L184.031 210.8L185.053 207.399H186.587L187.609 210.8V216.63L190.676 219.544L194.764 217.601L198.342 220.516V223.917L201.409 227.803V231.204L203.453 233.147L199.876 236.062L198.342 239.463L199.876 240.434L209.587 236.062H211.12L215.209 237.52V240.434L211.12 243.835H209.587L207.542 246.75H205.498L201.409 248.693H196.809L194.764 252.58H192.72L190.676 255.009L185.053 257.438L183.009 260.353L180.453 261.81L179.431 265.697L180.453 268.611L181.987 270.555L186.076 272.498L194.764 272.012L196.809 270.555H199.876V278.328H190.676L187.609 278.813V281.243L186.587 284.157L187.609 287.558H192.72L191.187 289.987L189.142 293.388H187.609V300.675L183.009 299.703L180.453 297.76H171.253V299.703V302.618L168.187 304.076V306.505H158.987V304.076L164.098 302.618V292.416H168.187L164.098 287.558L160.52 286.101H154.898L151.32 284.157L152.342 282.214L150.298 280.271L147.231 283.186L144.676 284.157L143.142 290.959V298.732L146.209 301.647V311.849L144.676 314.278L139.564 315.735L137.52 317.678V319.136L139.564 320.593H141.609V323.022L137.52 325.937H131.387V323.994H129.853L127.298 320.593L124.231 319.136L120.653 315.735L114.009 311.849L111.964 307.962V304.076H108.898L105.831 301.647L107.364 298.732V295.817L105.831 293.388H92.0312L88.4534 290.959L86.409 287.558L82.3201 289.016H69.5423L65.4534 287.558L60.3423 289.016V286.101L58.2979 282.214V279.299L52.1645 273.47V265.697H50.6312L44.4979 264.725L39.8979 260.353V245.292L37.3423 243.835H32.7423L28.6534 241.406L27.1201 238.977V232.176L30.1868 230.232L32.7423 225.374L37.3423 221.974L38.3646 220.03L39.8979 214.686L44.4979 212.743L47.0534 209.342L50.6312 211.286L54.209 214.686L55.2312 218.087H60.3423L63.9201 214.686H77.7201L79.2534 209.342L82.3201 205.456H83.8534L88.4534 195.254L92.0312 193.311L96.6312 189.91L99.6978 188.938L102.253 186.024L104.298 180.194L106.853 176.793L108.387 171.935V169.02L114.52 164.162L119.12 162.219H123.209L127.298 166.105H133.431L135.987 169.992L137.52 174.364V176.793L139.564 180.194H142.631V176.793L145.187 180.194L149.787 182.137Z" stroke="black" stroke-width="2"/>
<path d="M59.9485 288.795V292.209L57.4054 296.11L54.8623 298.06H49.2674V294.647H48.2502L47.2329 296.597H43.6726L39.6036 298.06L37.5691 300.011H32.9915H30.4484L27.3966 296.597L11.1207 296.11L9.59485 300.011V302.937L8.06898 307.813L4 309.276V312.689L5.01725 316.591L8.06898 320.004L12.6466 323.418L15.1897 326.831L20.2759 328.782H22.819L27.3966 331.22H30.4484L32.9915 328.782L39.6036 326.831H43.6726L45.1984 325.368L50.2847 324.393L48.2502 326.831L45.1984 328.782L43.6726 334.146L37.5691 338.047L31.9743 338.534L28.9225 338.047L25.8708 340.485H22.819L20.2759 338.047L16.7156 340.485V344.874L20.2759 348.287L22.819 352.676H25.8708L27.3966 357.065L30.4484 358.528L35.5346 363.892L41.1295 366.817L43.6726 370.719L47.2329 371.694L51.8105 375.595L54.8623 377.546H59.9485L66.052 375.595L73.1727 371.694L78.2589 370.719L84.871 366.817L87.9228 360.478V357.065L84.871 354.139V350.725H87.9228V344.874H93.009L90.9745 346.824V350.725H95.0435L94.0262 356.089L98.6038 358.528L101.147 357.065L95.0435 360.478V368.28L98.6038 370.719V373.157L101.147 377.546L98.6038 379.984L97.078 386.323L95.0435 392.175H98.6038V388.274L102.164 387.298L105.725 389.736H111.319V382.91L112.337 379.008L115.897 379.984H119.457L120.983 377.546V370.719L113.863 368.28L115.897 366.817H119.457L123.018 363.892L124.544 360.478L128.104 358.528H123.018L119.457 357.065V354.139L124.544 350.725H128.104V338.534V336.096L131.156 334.146H133.699L135.225 331.22L131.156 326.831V324.393H129.63L127.087 320.979L124.035 319.029L120.475 315.615L113.863 312.689L111.319 307.813V304.4H108.776L105.725 301.474L106.742 299.036V296.11L105.216 293.184H90.9745L87.9228 290.258L85.8883 287.82L82.8365 288.795H69.1037L66.052 287.82L59.9485 288.795Z" stroke="black" stroke-width="2"/>
<path d="M209.395 158.13L203.76 154.72L203.247 157.156L200.686 159.104L199.661 161.053L195.05 165.437L194.538 168.847L192.489 170.795L191.464 173.718V177.128L193.513 179.077V186.383L192.489 189.306L197.099 193.69V199.536L199.661 201.971L201.71 207.33V210.253L200.686 214.15L199.149 215.611L197.099 215.124L193.513 217.072L197.612 220.482L198.124 223.892L200.686 227.789V231.199L202.735 233.148L199.149 236.07L197.612 239.48L199.661 240.454L208.371 236.07H210.42L214.006 237.532H215.543L222.716 240.454L225.277 239.967L230.4 241.429L234.499 245.813V251.658L232.45 252.633V256.53L229.376 261.401L227.327 265.785H224.765L223.228 269.195H219.129L217.08 270.656V274.066L219.129 275.528L219.642 279.425L217.592 281.373H216.055V284.296L217.08 286.244V293.064L220.154 294.038L222.203 295.987L225.277 298.423L227.839 298.91L229.888 297.448H232.45V293.551L230.4 289.654H228.863L227.327 285.757L226.814 283.322L224.253 279.425V274.066L227.327 272.605L230.4 271.143H232.45V276.015L234.499 276.989L240.135 276.502L243.721 279.425H249.869L251.918 276.502L254.48 275.528L255.504 274.066H262.165V279.425H264.726L268.312 277.963H273.948L272.923 281.373L273.948 283.322H278.047L279.071 282.347L282.657 277.963L288.805 278.45L291.367 279.425L293.929 281.86L297.515 283.322L301.101 284.296L305.712 288.193H312.885L315.446 290.141L315.958 307.191H324.668L326.717 303.781L328.767 300.858L329.791 297.448L331.328 295.5L329.791 293.064V292.09H332.353L332.865 288.193L330.816 285.757L328.254 284.296L327.742 281.373V278.45L330.304 275.04L331.84 273.579L335.427 272.605L336.964 271.143L340.038 269.682L342.599 267.734L344.649 265.785L346.698 265.298L349.772 266.272L354.383 265.298L356.432 263.349L353.358 260.914L350.284 259.94L346.698 257.504L344.649 255.555V254.094L343.624 252.146H346.186V250.197L343.624 247.761L341.575 246.3L344.649 243.377H349.772V238.993L343.624 234.122L339.525 227.302V225.841H335.427L333.377 224.379L328.767 223.892V225.354L327.23 227.302L325.693 224.379L315.958 223.892L315.446 220.482L314.422 218.534H305.712L303.15 214.15H297.515L290.855 212.201L287.268 210.253L281.12 205.381L275.997 202.459L272.923 199.049L269.337 197.1H265.238L261.652 195.639L257.554 192.229L256.017 193.69L253.455 192.229H249.356L245.77 189.793L244.233 191.255L241.159 189.306L238.598 185.896H235.011L231.425 183.461L229.888 181.025L231.425 178.102L228.863 176.641L224.253 172.744L222.203 170.308L220.666 166.411L216.055 164.95V170.308L214.006 172.744H209.395L207.346 170.308L208.371 165.437V163.488L209.395 160.566V158.13Z" stroke="black" stroke-width="2"/>
<path d="M132.03 350.614H129.485H128.976V336.438L132.03 334.483H134.576L136.103 331.55L132.03 327.15V326.173H137.63L141.703 323.24V320.795H139.667L137.63 319.329V317.862L139.667 315.907L144.758 314.441L146.285 311.996V301.731L143.23 298.798V290.977L144.758 284.133L147.303 283.155L150.358 280.222L152.394 282.177L151.376 284.133L154.94 286.088H161.049L164.103 287.555L168.176 292.443H164.103V302.709L159.012 304.175V306.13L168.176 306.619L168.685 304.175L171.231 302.709V297.82H180.394L182.94 299.776L187.522 300.753V293.421H189.049L192.613 287.555H187.522L186.504 284.133L187.522 281.2V278.756L190.576 278.267H199.74V270.445H196.686L194.649 271.912L185.995 272.401L181.922 270.445L180.394 268.49L179.376 265.557L180.394 261.646L182.94 260.18L184.976 257.247L190.576 254.803L192.613 252.358H194.649L196.686 248.448H201.268L205.34 246.492H207.377L209.413 243.559H210.94L215.013 240.138V237.205H216.031L223.159 240.138L225.704 239.649L230.795 241.115L234.868 245.515V251.381L232.832 252.358V256.269L229.777 261.158L227.741 265.557H225.195L223.668 268.979H219.595L217.559 270.445V273.867L219.595 275.334L220.104 279.244L218.068 281.2H216.54V284.133L217.559 286.088V292.932L220.613 293.91L222.65 295.865L225.704 298.309L228.25 298.798L230.286 297.331H232.832V293.421L230.795 289.51H229.268L227.741 285.599L227.231 283.155L224.686 279.244V273.867L230.795 270.934H232.832V275.823L234.868 276.8L240.468 276.311L244.032 279.244H250.141L252.177 276.311L254.723 275.334L255.741 273.867H262.359V279.244H264.905L268.468 277.778H274.069L273.05 281.2L274.069 283.155H278.141L282.723 277.778L288.832 278.267L291.378 279.244L293.923 281.689L297.487 283.155L301.051 284.133L305.633 288.043H312.76L315.305 289.999L315.815 308.086L312.251 309.552H300.033L298.505 308.575L296.469 307.108H291.887L290.869 312.485V315.907H296.469L299.523 318.351H301.051L303.596 320.307V322.751L299.523 326.173L296.469 329.595L293.923 329.106L293.414 334.483L290.869 335.461L288.323 337.416L287.814 339.371H282.723L281.196 340.349L279.669 343.282V344.748L277.632 348.17H275.596L274.069 350.126V354.525L272.032 355.992V362.835L268.468 364.302L267.959 362.835L264.905 361.369L261.85 357.458H257.268V359.902L252.686 358.925L251.668 356.969L249.123 358.436H246.577L244.541 355.503L243.523 355.992H239.959L237.413 356.969L231.304 358.925L227.231 359.902H225.195L223.668 358.436H220.104L217.05 359.902L215.522 362.835L210.94 363.813H207.377L202.286 362.346L199.231 361.369L202.286 358.436V355.992H194.14L188.031 356.969L187.522 359.902L184.467 362.835L183.449 367.235L176.322 367.724L174.285 369.679L171.231 367.235L169.703 362.835L168.176 363.813H158.503L153.412 361.369H150.358L147.812 358.436L142.212 356.969L137.63 355.992L134.576 352.57V348.659L132.03 350.614Z" stroke="black" stroke-width="2"/>
<path d="M342.475 225.401H339.416V226.859L343.495 233.663L349.614 238.524V242.898H344.515L341.455 245.814L343.495 247.272L346.045 249.216V251.646H343.495L344.515 253.59V255.048L346.555 256.992L350.124 259.422L353.694 260.394L356.243 262.824L354.204 264.769L349.614 265.741L346.555 264.769L344.515 265.255L342.475 267.199L339.926 269.143L336.866 270.601L335.336 272.059L331.767 273.031L330.237 274.489L327.688 277.891V281.293L328.197 283.723L330.747 285.181L332.787 288.097L332.277 291.499H340.946L342.985 289.555L344.515 290.527L347.575 292.958L351.654 294.416L352.674 297.818H356.243L358.793 293.444L360.833 291.499L362.872 295.388H364.912L369.501 292.958H376.13L379.19 291.013V286.153H384.799L388.369 288.583L389.898 291.499L392.448 293.444L394.488 296.36L396.527 295.874L397.547 294.416V293.444L399.077 289.555L403.156 290.041H406.726L408.766 288.097V281.779L416.414 276.433L417.944 274.489H424.573V270.115L429.163 269.143L431.202 266.713L430.692 265.255L426.613 262.338L424.573 259.908V258.45L432.222 253.59L433.242 249.216H434.772L435.792 246.786L433.242 242.898L429.163 246.786L426.613 247.758H417.434L415.395 249.216L409.276 247.758L407.236 244.356H405.196L403.156 247.758H401.627L396.527 244.356H395.508L386.329 241.926L383.269 244.356L379.7 242.898V239.496L377.15 237.552L375.111 239.496L372.561 239.982H368.482V239.496L364.912 237.552L363.382 235.607L361.343 236.093L356.753 233.177L355.223 230.747L355.733 227.345H353.694L347.065 223.457L344.515 223.943L342.475 225.401Z" stroke="black" stroke-width="2"/>
<path d="M95.8574 399.177V392.346H99.4225V388.443L102.988 387.467L106.553 389.906H112.155V383.075L113.173 379.172L116.739 380.148H120.304L121.831 377.708V370.877L114.701 368.438L116.739 366.974H120.304L123.869 364.047L125.397 360.631L128.962 358.679H123.869L120.304 357.216V354.288L125.397 350.873H128.962V350.385H132.527L134.564 348.433V352.336L137.62 355.752L147.805 358.191L150.352 361.119H153.408L158.501 363.559H168.177L169.705 362.583L171.233 366.974L174.289 369.414L176.326 367.462L183.456 366.974L184.475 362.583L187.53 359.655L188.04 356.728L194.151 355.752H202.3V358.191L199.244 361.119L207.393 363.559H210.958L215.542 362.583L217.07 359.655L220.125 358.191H223.69L225.218 359.655H227.255L239.988 355.752H243.553L244.572 355.264L246.609 358.191H249.155L251.702 356.728L252.72 358.679L257.304 359.655V357.216H261.888L264.943 361.119L267.999 362.583L269.018 365.51L263.415 370.389L265.962 374.293L266.471 377.22L264.943 380.148L269.018 382.587V386.979H264.943V389.906H267.49V391.858L264.943 393.81V396.737L267.999 398.689L272.073 403.568V408.447H267.999L266.471 406.496H264.943L263.925 409.423V414.302L261.888 415.766V423.085L259.341 422.597H256.795L254.757 420.645V417.23L253.739 414.79V408.935L254.757 407.959L253.739 405.52L251.192 402.104H249.155V404.544H245.59L243.553 403.568L239.988 402.592L239.479 401.128H235.913L234.895 402.104H232.348L230.821 399.665L228.783 397.225H223.181L219.616 396.249V401.616L217.579 406.496V408.447L215.032 409.911L210.449 408.447L209.43 409.423L206.884 414.79L210.449 419.181V420.645L207.902 422.597L206.884 424.061L204.847 426.012L202.809 426.988L202.3 429.916H199.244L198.735 428.94L197.716 427.964L196.188 428.452L193.642 431.867L191.096 433.819H188.04L187.021 435.771V439.674H184.984L183.456 443.577H177.345L175.817 447.481V450.896H173.78L169.705 449.92L167.668 450.896L161.556 448.945H160.029L158.501 451.872L160.029 454.312V459.191H152.389L150.861 461.63H148.315L146.787 460.167L143.731 461.63L142.713 464.558L139.147 465.534V468.949L136.601 467.485H133.545L131.508 468.949V472.365L133.545 475.292H136.601L136.092 480.659L134.564 482.123L130.489 487.978H123.869L122.341 489.93L120.813 490.906L118.776 487.49L115.72 483.587V478.708L113.683 476.756L112.155 473.341V468.461L110.627 464.558V462.118L109.608 457.239V454.312L108.08 450.896V447.969L106.043 444.553V441.626L104.006 438.21L104.515 435.771L101.969 430.892V425.036L99.4225 423.085V405.52L95.8574 399.177Z" stroke="black" stroke-width="2"/>
<path d="M121.648 489.754L120.114 490.741L119.603 493.701H121.648V495.181L123.181 498.634L124.715 500.607V504.061L126.76 506.527L128.294 504.554H129.828L130.85 503.567V489.754L129.828 487.781H123.181L121.648 489.754Z" stroke="black" stroke-width="2"/>
<path d="M127.102 507.314V506.339L128.625 504.387H130.148L131.163 502.924V489.751L130.656 487.312L134.21 481.945L135.733 480.482L136.24 475.115H133.194L131.163 472.188V468.773L133.194 467.31H136.24L138.779 468.773V465.358L142.333 464.382L143.348 461.455L146.395 459.992L147.918 461.455H150.456L151.98 459.016H159.595V454.137L158.072 451.698L159.595 448.771H161.118L167.211 450.722L169.242 449.747L173.304 450.722H175.334V447.307L176.858 443.404H182.95L184.473 439.501H186.504V435.599L187.52 433.647H190.566L193.104 431.696L195.643 428.281L197.166 427.793L198.182 428.768L198.689 429.744H201.228L201.736 431.696V439.501L201.228 440.965L200.72 444.868L203.259 447.307L202.243 448.771L201.736 450.234L198.689 451.698L198.182 453.649L198.689 456.089V463.895L198.182 468.773H196.151V471.7H198.182L201.736 473.164V477.067L200.72 479.994L198.182 480.97H193.104L192.089 481.945V488.776L190.566 491.703V494.63L192.597 497.069L193.104 499.996L190.058 501.46L184.473 500.972L185.489 503.899L186.504 505.851L184.473 508.29V511.217L185.489 512.681L186.504 515.12L187.52 515.608V520.487L188.535 518.047L192.089 517.559H195.135L198.182 518.047V523.414H193.104L192.089 520.487H190.058L188.535 521.95L188.027 523.902L189.55 525.365V528.292L190.058 529.756L193.612 529.268L196.658 526.341L200.72 529.268L206.305 526.829L208.336 526.341L210.367 526.829H212.398L212.905 528.78L213.921 531.22L215.952 532.195H218.998L220.521 535.123V539.025H224.583V540.001L221.536 543.416V547.807L218.49 548.295L215.952 550.246L212.905 548.295H210.367L207.32 547.807L206.305 549.271L204.782 552.198H201.736L202.243 557.076L200.72 559.028V561.955L205.29 563.419V565.858V568.297L200.212 568.785L199.197 570.249H191.581L188.027 571.712L185.996 574.639H182.95L180.412 571.712H176.858L174.827 570.249H171.78L169.242 568.785L164.672 567.321L163.149 564.882L159.088 562.931L156.549 560.004L153.503 557.564L151.472 554.637L144.364 550.734L142.841 546.831H141.825V539.513L140.81 536.098V532.195L139.287 529.268V527.805L136.24 525.365V519.023L133.194 517.559V513.657L129.64 508.778L127.102 507.314Z" stroke="black" stroke-width="2"/>
<path d="M145.732 554.281L145.223 550.894L151.842 554.765L153.878 557.668L156.933 560.088L159.479 562.991L163.552 564.927L165.589 567.346L169.662 568.798L172.208 570.249H175.263L177.3 571.701L178.318 575.088L175.263 577.024L176.791 580.895H179.846L180.864 584.282L183.919 584.766L185.446 588.153L184.937 591.54L186.974 595.895V599.282L188.501 602.185L191.047 603.637L193.593 602.185H195.12L195.63 605.573V615.25L196.648 619.121L200.212 619.605L199.194 622.992L195.63 624.444V626.863L193.593 630.734L195.12 634.122V636.057L195.63 637.993V641.864L193.593 645.251L189.52 641.864L186.974 637.993H184.937L183.919 634.122L180.864 629.767L178.318 626.863V622.508L176.791 619.605V618.154H178.318L176.791 611.379V609.444L175.263 607.992L173.736 603.153L171.19 599.282V597.83L169.662 593.476L166.607 591.54L165.589 587.669V584.766L161.007 577.991L158.461 571.701H156.424L153.369 567.83L151.333 563.475L145.732 554.281Z" stroke="black" stroke-width="2"/>
<path d="M432.527 232.205L428.918 229.791L429.949 227.377V221.582L431.496 219.651V217.237L432.527 213.374L435.104 213.857L437.166 212.408L441.291 210.959H447.477V216.271L449.539 217.72L448.508 221.582V227.86L447.477 229.308L445.93 230.274L440.775 230.757L438.713 232.205H432.527Z" stroke="black" stroke-width="2"/>
<path d="M516.872 223.707V237.926L520.969 235.474L526.604 235.964L529.165 233.513H534.287L538.384 235.964H551.701L552.726 234.494L556.823 234.003L557.848 230.081L559.896 228.61L560.409 225.668L566.043 221.746L569.628 222.236L572.189 218.314H575.262L576.287 216.843L581.921 216.353L584.482 214.392H588.579L591.653 213.901L593.701 210.96H599.848L601.896 212.921L599.848 218.314V222.236L601.384 225.668V228.61L597.799 228.12L593.189 229.1L590.628 232.042L588.579 232.532L586.531 235.474L587.043 242.829L593.189 239.887L597.799 236.455L604.457 230.081L609.067 228.61H612.653L616.75 227.63L619.311 228.61L620.848 230.081L622.897 230.571L624.945 233.023H626.994V228.61L624.433 226.649L623.409 224.198L622.897 220.275L624.433 217.824L626.994 215.372L629.555 214.882L632.628 212.921V206.547L631.604 204.096L628.531 202.625L626.482 203.115H623.409L622.897 200.173L620.848 199.683L619.311 197.722L617.775 197.232L613.677 198.702L614.189 196.741L615.726 194.78V192.329L613.677 187.916L610.604 185.465L609.579 184.484L610.604 181.052L609.579 180.071H607.531L607.018 179.091H599.335L598.823 180.071L596.262 181.052L594.726 183.013L591.14 183.994L588.579 185.955L584.482 185.465L581.921 183.994H578.848L576.799 182.033L571.165 181.052L568.092 182.033L567.579 186.935L563.994 189.877L560.921 192.819L556.823 193.309L555.799 194.78L550.677 196.251L547.604 195.761L546.067 197.232L540.945 200.173V202.134H537.872L537.36 204.586L533.774 208.018L531.726 208.508V211.94L528.652 214.882L521.994 215.863H520.457L516.872 217.333H512.774L509.701 215.863L507.652 220.765L509.701 223.707H516.872Z" stroke="black" stroke-width="2"/>
<path d="M584.467 235.33H586.503L587.013 242.694L584.467 244.167V246.131L582.43 249.077L584.467 254.969L586.503 257.424L583.448 260.86L581.921 261.842L581.412 265.279L579.375 265.77L577.848 268.225L576.32 270.189L575.302 270.68L573.774 271.662V268.716L572.247 267.243H570.21L568.174 268.225L565.628 269.698H563.591L559.518 268.225H556.463L554.426 269.698V273.626L551.371 276.572H546.789L548.825 273.135V271.171L545.771 269.698L546.789 265.77L549.844 263.806L552.899 260.369L555.954 261.351L559.518 257.915L561.554 254.478L562.573 252.514L565.628 248.095L569.192 245.64H570.21L576.32 240.239L584.467 235.33Z" stroke="black" stroke-width="2"/>
<path d="M545.99 277.369L547.003 276.4H551.563L554.603 273.494V269.62L556.63 268.167H559.67L563.723 269.62H566.256L570.309 267.199H572.336L573.856 268.652V271.073L572.336 276.4L575.883 278.821L576.389 279.79L574.869 284.149L573.349 286.086L572.336 288.023L570.309 289.96L568.283 293.35L567.269 297.224L565.243 300.13V302.551L564.229 305.941H559.163L557.136 304.973H553.59L550.043 304.488H548.016L545.99 303.52V302.067H538.896V292.381L541.936 288.991V284.149L543.456 282.211L544.976 279.79L545.99 277.369Z" stroke="black" stroke-width="2"/>
<path d="M536.492 294.068L538.52 295.044V301.874H545.617V303.337L547.645 304.313L546.631 305.777V313.094L547.645 316.997V323.827L546.631 325.29L543.589 326.266L542.068 328.217L541.054 330.169V336.999L542.068 339.702V343.828L537.506 347.243L536.999 349.683L532.436 347.243H530.915L530.408 348.219H528.887V343.341V339.438L527.873 338.95V334.072L525.338 328.705L524.324 325.29V318.948L523.31 316.997L521.789 313.094L520.775 311.631L523.817 306.752V303.337L524.831 300.41L526.859 298.459L531.929 296.995L533.45 295.044L536.492 294.068Z" stroke="black" stroke-width="2"/>
<path d="M329.342 297.637L328.312 301.033H330.886L332.431 302.488V305.884L338.608 312.19V314.131H341.182V318.982L342.727 321.892L344.786 325.288L348.39 327.228H350.449V331.109L346.33 333.05L342.727 334.99V339.356L343.756 339.841L352.508 342.752L356.112 340.811L363.319 339.356L366.922 339.841V342.752L364.863 346.147L366.922 348.088H369.496L371.555 347.118L377.733 346.147L379.277 348.088L384.94 349.058L386.999 346.147V339.841L388.029 338.386H391.633L393.692 340.811L399.869 342.752L402.443 344.207L403.988 342.267V339.841L400.899 334.99L396.781 333.05L395.236 331.109V330.139L396.781 329.169V327.228H391.633L388.029 325.288L384.94 323.348V316.071L386.999 314.131H388.029L389.573 316.071L392.662 315.586L394.721 314.131L396.781 312.19H400.899L402.443 309.765L403.988 307.339L408.106 305.399L409.136 307.339L412.739 309.28L414.284 308.309V303.458H418.402L419.946 300.548H420.976L422.52 298.607V296.667H424.58V293.271L425.609 291.331L427.668 290.846V285.024L425.094 280.173V275.322H418.402L416.858 277.263L409.136 282.599V289.39L407.076 290.846L403.473 290.36H399.869L397.81 294.241V295.212L396.781 296.667H394.721L392.662 294.241L390.088 292.301L388.544 289.39L384.94 286.965H379.277V292.301L375.674 294.241H369.496L364.863 296.667H362.804L360.745 292.301L358.171 294.241L356.112 298.607H352.508L351.478 295.697L346.33 293.271L342.727 290.36L340.668 292.301H329.342V293.271L330.886 295.697L329.342 297.637Z" stroke="black" stroke-width="2"/>
<path d="M512.214 237.816H517.316L521.398 235.374L527.01 235.862L529.561 233.421H534.663L538.745 235.862H552.01L553.031 234.398L557.112 233.909L558.133 230.003L560.173 228.538L560.684 225.608L566.296 221.702L569.867 222.19L572.418 218.284H575.479L576.5 216.819L582.112 216.331L584.663 214.378H588.745L591.806 213.889L593.847 210.959H599.969L602.01 212.913L599.969 218.284V222.19L601.5 225.608V228.538L598.438 228.05L593.336 229.026L590.785 231.956L588.745 232.444L586.704 235.374H584.663L576.5 240.257L570.888 245.14H569.867L566.296 247.582L562.724 253.441L559.663 257.836L556.092 261.254L553.031 260.277L549.969 263.695L546.908 265.648L546.398 269.555L548.949 271.02V272.973L546.398 277.367L544.867 279.809L543.847 282.25L541.806 284.204V289.086L538.745 292.505V295.434L536.704 294.458L533.643 295.434L532.622 297.387L526.5 298.852L524.969 300.317L522.929 294.946L519.357 292.505L520.888 288.11V285.18L522.418 284.204H524.459H526.5V282.25L524.459 281.274V280.785L533.133 274.926V272.973L531.602 272.484L528.541 267.113L522.929 263.695L520.888 263.207V259.301L524.459 256.859H512.214L509.153 258.812L507.623 261.254L505.072 261.742L503.541 263.207H500.48L498.949 261.742L494.357 259.789H491.806L487.725 258.812H478.031L475.48 259.301L474.46 260.277L471.909 263.207V266.137L470.378 265.648L469.358 263.695V260.277L467.317 256.859L465.786 254.418L467.317 252.953H468.847V248.07L470.888 246.605V243.675L468.847 241.722L468.337 240.257L474.46 240.745L477.521 237.816H481.092L484.664 239.281L508.643 239.769L512.214 237.816Z" stroke="black" stroke-width="2"/>
<path d="M470.819 267.299L471.833 265.836V262.912L475.38 259.013L477.914 258.525H487.543L491.598 259.5H494.132L498.693 261.45L499.706 262.912H503.254L504.774 261.45L507.308 260.962L508.829 258.525L511.869 256.576H524.032L520.485 259.013V262.912L522.512 263.399L528.087 266.811L531.127 272.173L532.648 272.66V274.61L524.032 280.946L520.485 279.971L518.458 276.559H512.883L507.815 278.022H503.254L500.72 276.072H496.159L493.625 277.047L490.584 276.559L487.036 277.534H479.435L476.394 275.585L474.873 276.072L470.819 275.097L469.299 274.122L468.285 271.685L470.819 269.248V267.299Z" stroke="black" stroke-width="2"/>
<path d="M214.885 37.0376H203.671V34.6027L201.632 31.1937L196.535 29.7327L192.457 27.2977L190.928 23.8888L187.36 20.4798L182.263 18.5318L178.185 14.6359L174.617 14.1489L171.049 8.79192L166.462 5.86995V1H164.423L159.836 2.46099H157.287L153.719 1H150.151L146.583 2.46099H132.821V5.86995H120.078L121.097 8.79192L117.529 14.6359L113.961 14.1489L110.393 18.0448L108.354 23.8888L113.961 27.2977L121.097 27.7847L123.136 32.6547L130.272 34.6027V37.0376L133.33 37.5246L135.879 40.9336L143.525 44.3426H149.132L150.151 48.2385L157.287 49.6995H160.855L163.404 55.0565V59.9264L164.423 63.3354L166.462 62.3614L171.049 65.7704V68.6923H173.088L175.127 72.1013L180.224 74.5363L178.185 80.8672H182.263L185.321 82.3282L190.928 88.1721V90.1201L194.496 92.5551H200.613H203.671L205.2 91.0941L208.258 92.5551L211.317 95.9641V98.399L213.865 99.373L218.962 98.399V99.373L223.04 101.321L226.098 103.756L229.157 99.373V104.73H236.293L238.332 103.756H240.37L242.919 99.373V83.7892H237.312L232.215 80.8672L233.234 76.9713L234.254 74.5363L233.234 72.1013L232.215 67.7183H242.919L244.448 62.3614V58.4654H248.526V57.0045V54.0825H254.133L256.172 51.1605V45.8036L257.701 39.9596V37.0376L254.133 34.6027V33.1417H250.055L247.506 32.1677L242.919 28.2717L240.37 23.8888H233.234L228.137 29.7327L214.885 37.0376Z" stroke="black" stroke-width="2"/>
<path d="M429.394 233.471L428.375 229.569L431.942 232.008H438.057L440.095 230.545L444.682 230.057L446.21 229.081L447.739 233.471L450.287 235.911V237.862H460.478L463.536 240.301H467.612L468.122 241.764L470.16 243.716V246.643L468.122 248.106V252.984H466.593L465.064 254.448L463.536 254.936L462.517 258.838H462.007L458.95 257.863L455.383 255.424L452.835 253.472V250.545L450.796 248.594H449.268V251.521H447.739L444.682 250.057L439.586 250.545L431.942 257.863V260.302L435 262.741L437.038 263.717L438.567 267.619L442.134 271.034L445.191 270.546L447.739 272.497L450.287 275.424L449.777 276.888H445.191L440.605 277.863L438.057 279.815L437.547 281.766L430.923 286.156V290.059L431.942 292.01L433.98 293.962L436.019 294.937L438.057 296.401H444.172V301.279L445.191 303.23V305.182L443.153 307.133L440.605 308.596V310.548L442.134 313.475L442.643 314.45L445.191 315.914L445.701 319.816L449.777 324.695L448.249 329.085V332.012L450.287 335.427V342.744L452.325 346.647V348.598L449.268 349.574L452.325 352.501V360.306L449.268 358.354H443.153V352.988H442.643L440.605 358.354H437.038L433.98 355.915L431.942 352.988V349.086L433.98 346.647L430.923 344.695L428.375 339.329L427.866 340.793V342.744L429.904 345.671L430.413 347.134V349.086L428.885 351.525L427.356 353.476L420.732 356.891L419.203 357.379L418.184 356.403L417.165 354.452L416.145 353.476H413.088L410.54 349.574L405.954 347.134L401.877 344.208L403.406 342.256V339.817L400.349 334.939L396.272 332.988L394.743 331.036V330.061L396.272 328.597V327.134H391.176L384.552 323.231V315.914L386.59 313.962H387.609L389.138 315.914L392.195 315.426L394.234 313.962L396.272 312.011H400.349L403.406 307.133L407.483 305.182L408.502 307.133L412.069 309.084L413.597 308.109V303.23H417.674L419.203 300.303H420.222L421.751 298.352V296.401H423.789V293.474L424.808 291.035L426.846 290.547V284.693L424.299 279.815V270.546L429.394 269.57L430.923 266.644L430.413 265.18L426.337 262.741L424.299 259.814V258.838L431.942 253.96L432.961 249.57H434.49L435.509 247.131L432.961 243.228L430.413 245.179L431.942 239.813V236.398L429.394 233.471Z" stroke="black" stroke-width="2"/>
<path d="M266.072 424.999L261.45 423.053V415.756L263.504 414.296V409.431L264.531 406.512H266.072L267.613 408.458H271.721V407.972V403.593L267.613 398.728L264.531 396.782V393.863L267.099 391.917V389.971H264.531V387.052H268.64V382.674L264.531 380.241L266.072 377.322L265.559 374.89L262.991 370.511L268.64 365.646L268.126 364.187L271.721 362.727V355.916L273.775 354.457V350.078L275.316 348.132H277.37L279.424 344.727V343.267L280.965 340.348L282.506 339.375H287.641L288.155 337.429L290.723 335.483L293.29 334.51L293.804 328.673L296.372 329.646L299.453 326.727L303.561 322.835V320.402L300.994 318.456H299.453L296.372 316.024H290.723V312.132L291.75 307.267H296.372L299.966 309.699H312.292L315.887 308.24V307.267H324.617L326.671 303.861L329.239 300.942H331.293L332.834 302.888V305.807L338.996 312.132V314.078H341.564V318.943L345.159 325.267L348.754 327.213H350.808V331.105L343.105 334.997V339.375L341.051 340.348L335.401 345.7L332.834 346.673V353.484L331.293 356.403L329.752 358.835L328.725 361.754L325.13 367.106L323.59 367.592V368.565H312.805L309.21 372.457H307.67V391.917H314.346L315.887 396.296L312.805 398.728L304.588 393.863L298.426 391.917L295.345 393.863V396.296L296.885 398.728L299.966 402.62V405.053L302.021 409.431V420.134L299.966 423.053L293.804 429.864L289.695 432.297L288.155 435.216V441.54L285.587 441.054H278.397L276.857 440.081L275.316 436.675L273.775 434.243H271.721L269.667 430.351V427.918L268.64 426.945L266.072 424.999Z" stroke="black" stroke-width="2"/>
<path d="M293.519 441.051L288.945 441.54V435.179L289.962 432.243L294.535 429.797L300.633 423.436L302.666 420.011V408.757L300.633 404.843V401.418L296.568 396.525V393.589L299.617 391.632L305.715 394.079L313.337 398.482L316.387 395.547L314.862 391.632H308.256V372.061H309.78L313.337 368.146H324.009V367.168L325.534 366.678L329.091 361.296L330.107 358.36L333.156 352.978V346.128L335.697 345.149L341.287 339.767L343.32 338.789L352.975 342.214L356.532 340.257L363.646 338.789L367.204 339.278V342.214L365.171 345.639L367.204 347.596H370.253L371.777 346.617L377.875 345.639L379.4 347.596L384.99 348.574L387.022 345.639V339.278L388.039 337.81L392.104 338.299L393.12 340.257L399.726 342.214L402.267 343.682L406.841 346.617L411.414 349.064L413.447 352.489H415.988L417.512 353.957L418.529 355.914L419.545 356.892L413.447 357.871L409.89 359.828L407.857 361.296V363.253L405.316 365.7V371.082L406.841 374.018L407.857 377.443L406.841 381.357L404.3 382.825V386.25L399.726 387.718L397.694 390.164L396.169 393.589L394.645 394.568L394.137 393.589L392.104 393.1L390.071 390.654L390.579 395.547V396.525H388.039L385.498 397.504L379.4 397.014L376.351 395.547H372.793L368.728 399.461L369.236 401.418L367.712 403.375L367.204 406.8L364.663 409.247L361.614 412.672L357.04 412.183L353.991 414.629H350.942V419.033H343.828L339.254 418.543L335.189 414.629L334.172 412.672L329.091 412.183L327.566 414.629V420.5H324.009L323.501 428.329L317.911 428.818L318.419 429.797L311.305 430.776L310.797 428.329H309.272V425.883H307.239L306.223 427.84V436.647L303.174 435.669L299.617 438.115L297.584 437.626L293.519 439.583V441.051Z" stroke="black" stroke-width="2"/>
<path d="M283.807 445.597V441.226H279.697L277.642 440.255L276.1 437.341L274.559 434.427H272.504L270.449 430.542V428.114L266.852 425.2L262.228 423.258L259.659 422.772H257.09L255.035 420.83V417.431L254.007 414.778V409.175L255.035 408.204L254.007 405.776L251.438 402.376H249.383V404.804H246.3L243.732 403.833L240.135 402.862L239.621 401.405H236.025L234.997 402.376H232.428L230.887 399.948L228.832 397.52H223.694L219.583 396.549V401.891L217.528 406.747V408.689L214.959 410.146L210.335 408.689L209.308 410.146L206.739 415.002L210.335 419.373V420.83L207.766 422.772L207.252 423.744L204.684 426.172L202.628 427.143L202.115 430.057H201.601L202.115 431.999V439.769L201.601 441.226L201.087 445.111L203.656 447.539L202.628 448.996L202.115 450.453L199.032 451.91L198.518 453.852L199.032 456.28V464.05L198.518 468.906L196.463 469.392V471.82H198.518L202.115 473.277V477.162L201.087 480.076L203.142 481.532L209.821 476.676L214.446 474.734L221.125 476.676L228.318 473.763L231.914 476.676L239.107 473.763V470.849L244.245 466.964H247.328L250.411 467.935L253.494 465.021L255.549 462.593L259.659 458.708L263.256 456.766L264.797 458.708H268.393L269.421 454.338L273.531 451.91H276.1L280.724 454.338L282.266 449.967H288.945V446.568L285.862 445.597H283.807Z" stroke="black" stroke-width="2"/>
<path d="M259.535 535.971L262.075 534.022V542.792L260.551 547.664V552.048L259.535 553.997L258.519 558.382L256.996 559.356L255.472 561.792L253.44 563.254L250.9 566.664H248.361V570.075L249.884 571.536V579.331L248.361 580.306L250.9 582.742V601.255L249.376 602.229H242.773L240.741 603.691L239.726 605.64V610.512L236.678 611.486L234.138 615.384L232.614 618.307L233.63 621.717L236.678 622.692L242.773 623.179L243.789 626.102L240.741 624.64H231.091L226.519 625.615L224.995 627.076L221.948 628.538H219.408L216.36 632.923V639.256L214.328 642.179L207.217 646.564L205.185 647.538L202.138 649H196.55L193.503 645.59L195.535 642.179V637.795L195.027 636.333V634.384L193.503 630.974L195.535 627.076V624.64L199.09 623.179L200.106 619.768L196.55 619.281L195.535 615.384V605.64L195.027 602.229H193.503L190.963 603.691L188.423 602.229L186.899 599.306V595.896L184.868 591.511L185.376 588.101L183.852 584.69L180.804 584.203L179.788 580.793L176.741 580.306L175.217 576.895L178.264 574.947L177.249 571.536H180.804L183.344 574.459H186.392L188.423 571.536L191.979 570.075H199.598L200.614 568.613L205.693 568.126V563.254L201.122 561.305V558.869L202.646 556.92L202.138 552.048H205.185L206.201 549.125L207.725 547.664L210.773 548.151H213.313L218.9 552.048L223.471 551.561L224.995 549.125L226.519 546.202L229.567 544.253H234.646L238.71 543.279L241.249 539.869H250.9L255.472 534.997L259.535 535.971Z" stroke="black" stroke-width="2"/>
<path d="M359.394 415.223L361.431 413.281L356.847 412.796L353.791 414.738H350.736V419.593H342.587L339.022 419.108L334.948 415.223L333.929 413.281L328.836 412.796L327.308 415.223V421.05L323.743 421.535L323.234 428.818L317.632 429.304L318.141 430.275L311.011 431.246L310.501 428.818H308.973V426.391H306.936L305.918 428.818V437.072L302.862 436.101L299.297 439.014L297.26 437.558L293.185 439.986V441.442H289.111H286.565L283.509 440.957V445.812H285.546L288.602 446.783V450.182H281.981L280.453 454.552L275.869 452.124H273.323L269.248 454.552L268.23 458.921H264.665L263.137 456.979L259.063 458.921L255.498 462.806L253.97 464.748L250.405 468.146L247.858 467.175H244.293L239.2 471.06V473.973L232.07 476.886L228.505 473.973L221.375 476.886L214.754 474.944L209.661 476.886L203.549 481.741L201.512 480.285L198.966 481.256H193.873L192.854 482.227V489.024L191.326 492.423V494.851L193.364 497.278L193.873 500.192L190.308 501.648L185.215 500.677L186.233 504.076L187.252 506.018L185.215 508.446V511.359L186.233 512.816L187.252 515.243L188.271 515.729V520.099L189.289 518.156L192.854 517.671H196.419L198.966 518.156V523.497H193.873L192.854 520.584H190.817L189.289 522.041L188.78 523.983L190.308 525.439V528.353L190.817 529.809L194.382 529.324L197.438 526.41L201.512 529.324L207.115 526.896L209.152 526.41L211.189 526.896H213.226L214.754 531.266L216.791 531.751L219.847 532.237L221.375 535.15V539.034H225.449V540.005L222.393 543.404V547.774L219.338 548.26L216.791 550.202L219.338 552.144L223.921 551.658L225.958 548.745L226.977 546.317L230.033 544.375H235.126L239.2 543.404L241.747 540.005H251.423L256.007 535.15L260.081 536.121L262.628 534.665V531.266L260.081 525.439L259.063 520.099L260.081 517.185V514.272L258.044 509.417L257.535 498.25L259.572 494.851V493.394L265.174 486.111L268.739 484.655H272.814L273.832 486.111H275.36L277.397 485.14L280.453 482.712V480.285L281.981 477.857V473.487H295.732L305.918 469.118L306.936 467.661V456.494L310.501 454.552L317.632 452.124L323.743 449.211L327.308 445.326L328.836 442.899L331.382 441.442L333.929 438.529L335.457 436.101L339.022 433.674L341.059 431.731H343.096L345.133 429.789L348.189 428.333L353.791 422.992L356.847 419.593L359.394 415.223Z" stroke="black" stroke-width="2"/>
<path d="M518.948 294.122L519.982 292.194L523.082 294.604L525.149 299.907L524.116 303.281V306.655L521.015 311.476H517.915L516.881 312.44L514.815 315.332V318.225H513.264L512.231 321.599V325.937H506.547L503.963 322.081H502.413L501.896 318.225L499.313 316.296L498.279 312.44V307.619L500.346 305.691L508.097 300.389H510.681L514.815 297.978V297.014L515.848 295.086L518.948 294.122Z" stroke="black" stroke-width="2"/>
</g>
<defs>
<filter id="filter0_d_242_696" x="0" y="0" width="640.628" height="660" filterUnits="userSpaceOnUse" color-interpolation-filters="sRGB">
<feFlood flood-opacity="0" result="BackgroundImageFix"/>
<feColorMatrix in="SourceAlpha" type="matrix" values="0 0 0 0 0 0 0 0 0 0 0 0 0 0 0 0 0 0 127 0" result="hardAlpha"/>
<feOffset dx="2" dy="5"/>
<feGaussianBlur stdDeviation="2.5"/>
<feComposite in2="hardAlpha" operator="out"/>
<feColorMatrix type="matrix" values="0 0 0 0 0 0 0 0 0 0 0 0 0 0 0 0 0 0 0.25 0"/>
<feBlend mode="normal" in2="BackgroundImageFix" result="effect1_dropShadow_242_696"/>
<feBlend mode="normal" in="SourceGraphic" in2="effect1_dropShadow_242_696" result="shape"/>
</filter>
</defs>
</svg>
