<svg width="25" height="26" viewBox="0 0 25 26" fill="none" xmlns="http://www.w3.org/2000/svg">
<path d="M17.062 16.3507C18.4165 14.711 19.2719 12.6081 19.2719 10.2912C19.2719 5.08729 15.0304 0.845703 9.8264 0.845703C4.62244 0.845703 0.380859 5.08729 0.380859 10.2912C0.380859 15.4952 4.62244 19.7368 9.8264 19.7368C12.1076 19.7368 14.2462 18.917 15.8858 17.5269L23.2284 24.8695C23.4066 25.0477 23.6205 25.119 23.8343 25.119C24.0482 25.119 24.262 25.0477 24.4403 24.8695C24.7611 24.5487 24.7611 23.9784 24.4403 23.6576L17.062 16.3507ZM9.79076 18.0259C5.51353 18.0259 2.05611 14.5685 2.05611 10.2912C2.05611 6.01402 5.51353 2.55659 9.79076 2.55659C14.068 2.55659 17.5254 6.01402 17.5254 10.2912C17.5254 14.5685 14.068 18.0259 9.79076 18.0259Z" fill="#FFD166"/>
</svg>
