<svg width="140" height="95" viewBox="0 0 140 95" fill="none" xmlns="http://www.w3.org/2000/svg">
<path d="M22.9459 20V0.119999H25.4659V20H22.9459ZM0.384427 46.92C0.384427 45.7067 0.58976 44.5213 1.00043 43.364C1.42976 42.188 2.04576 41.124 2.84843 40.172C3.66976 39.2013 4.66843 38.436 5.84443 37.876C7.02043 37.2973 8.35509 37.008 9.84843 37.008C11.6218 37.008 13.1431 37.4187 14.4124 38.24C15.6818 39.0427 16.6244 40.0787 17.2404 41.348L15.2524 42.636C14.8604 41.796 14.3564 41.1333 13.7404 40.648C13.1431 40.144 12.4898 39.7893 11.7804 39.584C11.0898 39.3787 10.4084 39.276 9.73643 39.276C8.63509 39.276 7.65509 39.5 6.79643 39.948C5.95643 40.396 5.24709 40.9933 4.66843 41.74C4.08976 42.4867 3.65109 43.3267 3.35243 44.26C3.07243 45.1747 2.93243 46.0987 2.93243 47.032C2.93243 48.0587 3.10043 49.048 3.43643 50C3.79109 50.952 4.27643 51.792 4.89243 52.52C5.50843 53.248 6.23643 53.8267 7.07643 54.256C7.91643 54.6853 8.83109 54.9 9.82043 54.9C10.5111 54.9 11.2204 54.7787 11.9484 54.536C12.6764 54.2933 13.3578 53.92 13.9924 53.416C14.6271 52.8933 15.1311 52.2213 15.5044 51.4L17.6044 52.548C17.1938 53.5373 16.5591 54.3773 15.7004 55.068C14.8418 55.7587 13.8804 56.2813 12.8164 56.636C11.7711 56.9907 10.7351 57.168 9.70843 57.168C8.34576 57.168 7.09509 56.8787 5.95643 56.3C4.81776 55.7027 3.82843 54.9187 2.98843 53.948C2.16709 52.9587 1.52309 51.8573 1.05643 50.644C0.608427 49.412 0.384427 48.1707 0.384427 46.92ZM42.3405 76.36H35.4805V94H32.9605V76.36H26.1005V74.12H42.3405V76.36Z" fill="#FF7A5A"/>
<path d="M32.7393 4.768V20H30.2193V0.119999H32.3473L44.4993 15.66V0.147999H47.0193V20H44.7233L32.7393 4.768ZM51.7662 20V0.119999H58.6542C60.7822 0.119999 62.5555 0.567999 63.9742 1.464C65.4115 2.34133 66.4848 3.536 67.1942 5.048C67.9035 6.54133 68.2582 8.20267 68.2582 10.032C68.2582 12.048 67.8662 13.8027 67.0822 15.296C66.2982 16.7893 65.1875 17.9467 63.7502 18.768C62.3128 19.5893 60.6142 20 58.6542 20H51.7662ZM65.7102 10.032C65.7102 8.53867 65.4302 7.21333 64.8702 6.056C64.3288 4.89867 63.5355 3.99333 62.4902 3.34C61.4448 2.68667 60.1662 2.36 58.6542 2.36H54.2862V17.76H58.6542C60.1848 17.76 61.4728 17.424 62.5182 16.752C63.5635 16.0613 64.3568 15.1373 64.8982 13.98C65.4395 12.804 65.7102 11.488 65.7102 10.032ZM71.8091 20V0.119999H74.3291V20H71.8091ZM85.1306 0.119999H87.2586L95.3786 20H92.6906L90.3386 14.176H81.9946L79.6706 20H76.9826L85.1306 0.119999ZM89.7786 12.216L86.1946 3.032L82.4986 12.216H89.7786ZM100.552 4.768V20H98.0318V0.119999H100.16L112.312 15.66V0.147999H114.832V20H112.536L100.552 4.768ZM28.9624 57.14C27.3757 57.14 26.041 56.8693 24.9584 56.328C23.8757 55.768 23.0077 55.0213 22.3544 54.088C21.701 53.136 21.225 52.0627 20.9264 50.868C20.6277 49.6733 20.4784 48.4413 20.4784 47.172V37.12H22.9984V47.172C22.9984 48.1427 23.0917 49.0947 23.2784 50.028C23.4837 50.9427 23.8104 51.764 24.2584 52.492C24.7064 53.22 25.313 53.7987 26.0784 54.228C26.8437 54.6573 27.7957 54.872 28.9344 54.872C30.0917 54.872 31.053 54.6573 31.8184 54.228C32.5837 53.78 33.1904 53.192 33.6384 52.464C34.0864 51.7173 34.4037 50.8867 34.5904 49.972C34.7957 49.0573 34.8984 48.124 34.8984 47.172V37.12H37.4184V47.172C37.4184 48.516 37.2597 49.7947 36.9424 51.008C36.6437 52.2027 36.1584 53.2573 35.4864 54.172C34.8144 55.0867 33.937 55.8147 32.8544 56.356C31.7904 56.8787 30.493 57.14 28.9624 57.14ZM41.8951 57V37.12H44.4151V54.76H55.5031V57H41.8951ZM58.2466 57V37.12H60.7666V57H58.2466ZM68.0401 41.768V57H65.5201V37.12H67.6481L79.8001 52.66V37.148H82.3201V57H80.0241L68.0401 41.768ZM93.115 37.12H95.243L103.363 57H100.675L98.323 51.176H89.979L87.655 57H84.967L93.115 37.12ZM97.763 49.216L94.179 40.032L90.483 49.216H97.763ZM106.016 57V37.12H114.528C115.406 37.12 116.208 37.3067 116.936 37.68C117.664 38.0347 118.299 38.52 118.84 39.136C119.382 39.7333 119.802 40.4147 120.1 41.18C120.399 41.9267 120.548 42.692 120.548 43.476C120.548 44.3907 120.371 45.2587 120.016 46.08C119.68 46.9013 119.195 47.6013 118.56 48.18C117.944 48.7587 117.216 49.16 116.376 49.384L121.192 57H118.336L113.8 49.86H108.536V57H106.016ZM108.536 47.62H114.556C115.247 47.62 115.844 47.4333 116.348 47.06C116.871 46.668 117.272 46.1547 117.552 45.52C117.851 44.8853 118 44.204 118 43.476C118 42.7293 117.832 42.048 117.496 41.432C117.16 40.7973 116.722 40.2933 116.18 39.92C115.639 39.5467 115.042 39.36 114.388 39.36H108.536V47.62ZM124.3 37.12L130.32 47.48L136.396 37.12H139.14L131.58 49.748V57H129.06V49.692L121.528 37.12H124.3ZM51.2517 74.12H53.3797L61.4997 94H58.8117L56.4597 88.176H48.1157L45.7917 94H43.1037L51.2517 74.12ZM55.8997 86.216L52.3157 77.032L48.6197 86.216H55.8997ZM64.1529 94V74.12H66.6729V91.76H77.7609V94H64.1529ZM94.0005 91.76V94H80.5045V74.12H93.7485V76.36H83.0245V82.8H92.3485V84.9H83.0245V91.76H94.0005ZM109.134 78.292C108.91 78.0307 108.611 77.7787 108.238 77.536C107.864 77.2933 107.444 77.0787 106.978 76.892C106.511 76.6867 105.998 76.528 105.438 76.416C104.896 76.2853 104.327 76.22 103.73 76.22C102.199 76.22 101.07 76.5093 100.342 77.088C99.6136 77.6667 99.2496 78.46 99.2496 79.468C99.2496 80.1773 99.4363 80.7373 99.8096 81.148C100.183 81.5587 100.752 81.8947 101.518 82.156C102.302 82.4173 103.291 82.688 104.486 82.968C105.867 83.2667 107.062 83.6307 108.07 84.06C109.078 84.4893 109.852 85.068 110.394 85.796C110.935 86.5053 111.206 87.4573 111.206 88.652C111.206 89.604 111.019 90.4347 110.646 91.144C110.291 91.8347 109.787 92.4133 109.134 92.88C108.48 93.328 107.715 93.664 106.838 93.888C105.96 94.0933 105.008 94.196 103.982 94.196C102.974 94.196 101.984 94.0933 101.014 93.888C100.062 93.664 99.1563 93.3467 98.2976 92.936C97.4389 92.5253 96.6363 92.012 95.8896 91.396L97.0936 89.268C97.3923 89.5853 97.7749 89.9027 98.2416 90.22C98.7269 90.5187 99.2683 90.7987 99.8656 91.06C100.482 91.3213 101.144 91.536 101.854 91.704C102.563 91.8533 103.291 91.928 104.038 91.928C105.456 91.928 106.558 91.676 107.342 91.172C108.126 90.6493 108.518 89.8933 108.518 88.904C108.518 88.1573 108.294 87.56 107.846 87.112C107.416 86.664 106.772 86.2907 105.914 85.992C105.055 85.6933 104.01 85.3947 102.778 85.096C101.434 84.76 100.304 84.396 99.3896 84.004C98.4749 83.5933 97.7843 83.0613 97.3176 82.408C96.8696 81.7547 96.6456 80.9053 96.6456 79.86C96.6456 78.5907 96.9536 77.5173 97.5696 76.64C98.1856 75.7627 99.0349 75.1 100.118 74.652C101.2 74.204 102.423 73.98 103.786 73.98C104.682 73.98 105.512 74.0733 106.278 74.26C107.062 74.4467 107.79 74.708 108.462 75.044C109.134 75.38 109.75 75.7813 110.31 76.248L109.134 78.292Z" fill="#262730"/>
</svg>
