<svg width="37" height="36" viewBox="0 0 37 36" fill="none" xmlns="http://www.w3.org/2000/svg">
<path d="M18.9886 1.25977C15.724 1.26022 12.5308 2.21522 9.80203 4.00719C7.07326 5.79916 4.928 8.34991 3.63031 11.3455C2.33262 14.341 1.93913 17.6507 2.49828 20.867C3.05743 24.0833 4.54481 27.0659 6.77735 29.4478L2.40695 33.8182C2.33148 33.8933 2.27992 33.9892 2.25878 34.0936C2.23765 34.198 2.24786 34.3063 2.28815 34.405C2.3293 34.5039 2.39874 34.5884 2.48777 34.648C2.5768 34.7075 2.68144 34.7395 2.78855 34.7398H18.9886C23.4283 34.7398 27.6862 32.9761 30.8255 29.8367C33.9649 26.6974 35.7286 22.4395 35.7286 17.9998C35.7286 13.56 33.9649 9.30216 30.8255 6.1628C27.6862 3.02344 23.4283 1.25977 18.9886 1.25977ZM18.9886 33.6598H4.09175L7.91495 29.8366C7.96546 29.7867 8.00556 29.7273 8.03292 29.6617C8.06029 29.5962 8.07438 29.526 8.07438 29.455C8.07438 29.384 8.06029 29.3137 8.03292 29.2482C8.00556 29.1827 7.96546 29.1233 7.91495 29.0734C5.35302 26.5116 3.75861 23.1407 3.40339 19.5352C3.04817 15.9296 3.95411 12.3124 5.96686 9.29994C7.9796 6.28745 10.9746 4.06604 14.4416 3.01423C17.9086 1.96241 21.633 2.14526 24.9803 3.53161C28.3276 4.91797 31.0906 7.42205 32.7986 10.6172C34.5066 13.8124 35.0538 17.5009 34.3471 21.0543C33.6405 24.6077 31.7235 27.8062 28.923 30.1047C26.1225 32.4033 22.6116 33.6596 18.9886 33.6598Z" fill="#262730"/>
<path d="M18.9899 11.5195C19.3794 11.5195 19.7601 11.404 20.0839 11.1876C20.4078 10.9712 20.6602 10.6637 20.8092 10.3038C20.9583 9.94401 20.9973 9.54807 20.9213 9.16608C20.8453 8.7841 20.6577 8.43322 20.3823 8.15782C20.1069 7.88242 19.7561 7.69488 19.3741 7.61889C18.9921 7.54291 18.5962 7.58191 18.2363 7.73095C17.8765 7.88 17.569 8.13239 17.3526 8.45623C17.1362 8.78006 17.0207 9.16078 17.0207 9.55026C17.0207 10.0725 17.2282 10.5734 17.5975 10.9427C17.9668 11.312 18.4676 11.5195 18.9899 11.5195ZM18.9899 8.66106C19.1658 8.66106 19.3377 8.71321 19.4839 8.81091C19.6301 8.90862 19.7441 9.04749 19.8114 9.20997C19.8787 9.37245 19.8963 9.55124 19.862 9.72373C19.8277 9.89622 19.743 10.0547 19.6187 10.179C19.4943 10.3034 19.3359 10.3881 19.1634 10.4224C18.9909 10.4567 18.8121 10.4391 18.6496 10.3718C18.4871 10.3045 18.3483 10.1905 18.2506 10.0443C18.1529 9.89804 18.1007 9.72612 18.1007 9.55026C18.1054 9.31723 18.201 9.09527 18.3672 8.93181C18.5333 8.76835 18.7568 8.67635 18.9899 8.67546V8.66106ZM22.0067 24.4795H20.9591V14.0827C20.9591 13.5604 20.7516 13.0595 20.3823 12.6902C20.013 12.3209 19.5122 12.1135 18.9899 12.1135H16.6319C16.1096 12.1135 15.6088 12.3209 15.2395 12.6902C14.8702 13.0595 14.6627 13.5604 14.6627 14.0827C14.6627 14.6049 14.8702 15.1058 15.2395 15.4751C15.6088 15.8444 16.1096 16.0519 16.6319 16.0519H17.0207V24.4795H15.9731C15.7145 24.4795 15.4584 24.5304 15.2195 24.6294C14.9806 24.7283 14.7635 24.8734 14.5807 25.0562C14.3978 25.2391 14.2528 25.4562 14.1538 25.6951C14.0548 25.934 14.0039 26.1901 14.0039 26.4487C14.0039 26.7073 14.0548 26.9633 14.1538 27.2022C14.2528 27.4411 14.3978 27.6582 14.5807 27.8411C14.7635 28.0239 14.9806 28.169 15.2195 28.268C15.4584 28.3669 15.7145 28.4179 15.9731 28.4179H22.0067C22.2653 28.4179 22.5214 28.3669 22.7603 28.268C22.9992 28.169 23.2163 28.0239 23.3991 27.8411C23.582 27.6582 23.727 27.4411 23.826 27.2022C23.925 26.9633 23.9759 26.7073 23.9759 26.4487C23.9759 26.1901 23.925 25.934 23.826 25.6951C23.727 25.4562 23.582 25.2391 23.3991 25.0562C23.2163 24.8734 22.9992 24.7283 22.7603 24.6294C22.5214 24.5304 22.2653 24.4795 22.0067 24.4795ZM22.0067 27.3379H15.9731C15.7373 27.3379 15.5111 27.2442 15.3443 27.0774C15.1776 26.9107 15.0839 26.6845 15.0839 26.4487C15.0839 26.2128 15.1776 25.9867 15.3443 25.8199C15.5111 25.6531 15.7373 25.5595 15.9731 25.5595H17.5499C17.6931 25.5595 17.8305 25.5026 17.9317 25.4013C18.033 25.3 18.0899 25.1627 18.0899 25.0195V15.5119C18.0899 15.3686 18.033 15.2313 17.9317 15.13C17.8305 15.0287 17.6931 14.9719 17.5499 14.9719H16.6319C16.3961 14.9719 16.1699 14.8782 16.0031 14.7114C15.8364 14.5447 15.7427 14.3185 15.7427 14.0827C15.7427 13.8468 15.8364 13.6207 16.0031 13.4539C16.1699 13.2871 16.3961 13.1935 16.6319 13.1935H18.9899C19.2254 13.1944 19.4511 13.2884 19.6176 13.4549C19.7842 13.6215 19.8782 13.8471 19.8791 14.0827V25.0051C19.8771 25.0781 19.89 25.1508 19.917 25.2187C19.9439 25.2866 19.9843 25.3483 20.0358 25.4002C20.0873 25.452 20.1488 25.4928 20.2165 25.5202C20.2843 25.5476 20.3569 25.5609 20.4299 25.5595H22.0175C22.2533 25.5595 22.4795 25.6531 22.6463 25.8199C22.813 25.9867 22.9067 26.2128 22.9067 26.4487C22.9067 26.6845 22.813 26.9107 22.6463 27.0774C22.4795 27.2442 22.2533 27.3379 22.0175 27.3379H22.0067Z" fill="#262730"/>
</svg>
