<svg width="546" height="632" viewBox="0 0 546 632" fill="none" xmlns="http://www.w3.org/2000/svg">
<g clip-path="url(#clip0_208_1683)">
<path opacity="0.18" d="M71.8053 498.792C64.7378 464.17 79.2112 426.617 66.6528 393.592C56.295 366.42 29.9615 348.812 14.5042 324.179C-5.3015 292.626 -4.7725 249.496 15.7949 218.44C37.5473 185.638 76.3758 169.205 106.931 144.371C126.853 128.161 143.474 108.098 164.063 92.7661C184.651 77.4338 211.334 67.0218 236.006 74.143C251.823 78.7141 264.879 89.8774 280.061 96.2367C314.33 110.606 353.169 98.8292 390.23 95.9511C422.584 93.4605 455.094 97.9755 485.545 109.188C504.832 116.299 523.919 126.774 535.155 143.99C546.972 162.105 548.401 185.606 542.941 206.536C537.482 227.466 525.791 246.227 512.852 263.559C492.75 290.414 467.781 321.809 478.605 353.5C485.461 373.604 504.928 386.302 517.878 403.105C545.914 439.568 537.567 498.485 500.537 525.711C485.503 536.757 466.681 543.18 454.958 557.698C448.473 565.729 444.685 575.686 438.031 583.611C420.849 604.234 390.294 605.832 363.463 605.621C330.898 605.367 298.34 604.859 265.789 604.097C237.128 603.43 197.559 609.112 170.209 600.51C129.72 587.749 80.3856 540.789 71.8053 498.792Z" fill="#FF7A5A"/>
<path opacity="0.19" d="M122.61 573.274C106.74 577.908 87.8975 587.876 89.2094 604.361C90.5531 621.228 111.544 627.852 128.355 629.418C160.37 632.381 192.597 632.116 224.749 631.841L359.252 630.709C390.304 630.444 421.568 630.159 452.028 624.148C461.677 622.244 471.717 619.493 478.689 612.509C485.662 605.525 488.148 593.219 481.525 585.939C475.357 579.167 464.66 579.474 456.577 575.157C447.542 570.332 442.718 560.343 435.417 553.159C419.389 537.53 394.208 537.53 371.811 538.493L225.141 544.937C206.922 545.73 181.763 542.186 164.634 549.169C150.034 555.01 140.818 573.274 122.61 573.274Z" fill="url(#paint0_linear_208_1683)"/>
<path d="M391.617 157.513H178.854C165.03 157.513 153.822 168.722 153.822 182.549V588.521C153.822 602.348 165.03 613.557 178.854 613.557H391.617C405.442 613.557 416.65 602.348 416.65 588.521V182.549C416.65 168.722 405.442 157.513 391.617 157.513Z" fill="#FFD166"/>
<path d="M401.436 157.513H188.673C174.848 157.513 163.641 168.722 163.641 182.549V588.521C163.641 602.348 174.848 613.557 188.673 613.557H401.436C415.261 613.557 426.468 602.348 426.468 588.521V182.549C426.468 168.722 415.261 157.513 401.436 157.513Z" fill="#FF7A5A"/>
<path d="M413.889 193.384V533.297C413.889 539.09 411.588 544.645 407.493 548.741C403.398 552.836 397.843 555.137 392.052 555.137H198.058C192.267 555.134 186.714 552.833 182.62 548.737C178.525 544.642 176.224 539.089 176.221 533.297V193.384C176.224 187.592 178.525 182.039 182.62 177.944C186.714 173.849 192.267 171.547 198.058 171.544H250.164V178.824C250.164 180.334 250.462 181.83 251.039 183.225C251.617 184.621 252.465 185.889 253.532 186.957C254.6 188.025 255.868 188.872 257.263 189.45C258.659 190.028 260.154 190.326 261.664 190.326H339.078C342.128 190.326 345.053 189.114 347.21 186.957C349.367 184.8 350.578 181.874 350.578 178.824V171.586H392.052C397.836 171.586 403.384 173.881 407.478 177.968C411.572 182.055 413.878 187.599 413.889 193.384Z" fill="url(#paint1_linear_208_1683)"/>
<path opacity="0.19" d="M339.722 177.29C336.496 180.337 331.735 182.136 330.137 186.284C328.815 189.712 330.19 193.522 330.666 197.162C331.724 205.341 328.264 213.309 325.969 221.234C323.701 229.067 322.564 237.184 322.594 245.338C322.594 249.338 322.837 253.623 320.731 256.978C318.626 260.332 313.029 261.824 310.702 258.575C310.222 257.856 309.864 257.062 309.644 256.226C305.867 244.111 308.141 231.022 307.983 218.292C307.824 205.563 303.856 191.257 292.557 185.406C290.08 207.531 286.157 229.471 280.813 251.084C279.671 255.74 277.174 261.401 272.349 261.295C271.461 254.438 271.111 247.539 270.762 240.619L266.805 161.905C266.7 159.788 266.615 157.439 267.599 155.556C269.069 152.635 272.487 151.323 275.629 150.413C287.563 146.865 299.899 144.849 312.342 144.414C320.668 144.117 332.941 145.747 338.918 152.477C344.494 158.72 346.166 171.195 339.722 177.29Z" fill="url(#paint2_linear_208_1683)"/>
<path d="M319.165 596.521H276.38C272.911 596.521 269.585 595.143 267.133 592.69C264.681 590.237 263.303 586.911 263.303 583.442C263.297 581.722 263.631 580.017 264.286 578.426C264.941 576.835 265.904 575.389 267.119 574.171C268.334 572.953 269.777 571.987 271.366 571.328C272.956 570.669 274.659 570.331 276.38 570.332H319.165C320.881 570.332 322.58 570.67 324.165 571.327C325.751 571.983 327.191 572.946 328.404 574.16C329.618 575.373 330.58 576.814 331.237 578.399C331.893 579.985 332.231 581.684 332.231 583.4C332.238 585.12 331.905 586.825 331.252 588.417C330.598 590.009 329.637 591.455 328.423 592.675C327.209 593.894 325.766 594.861 324.177 595.521C322.589 596.181 320.885 596.521 319.165 596.521Z" fill="url(#paint3_linear_208_1683)"/>
<path d="M262.624 337.249C265.763 323.946 257.525 310.616 244.223 307.476C230.922 304.336 217.594 312.576 214.454 325.879C211.315 339.182 219.553 352.512 232.854 355.652C246.156 358.792 259.484 350.553 262.624 337.249Z" stroke="white" stroke-width="0.82" stroke-miterlimit="10"/>
<path d="M326.245 337.247C329.384 323.944 321.146 310.614 307.844 307.474C294.543 304.334 281.215 312.573 278.075 325.877C274.936 339.18 283.174 352.51 296.475 355.65C309.777 358.789 323.105 350.55 326.245 337.247Z" stroke="white" stroke-width="0.82" stroke-miterlimit="10"/>
<path d="M389.854 337.246C392.994 323.942 384.755 310.612 371.454 307.472C358.152 304.333 344.824 312.572 341.685 325.875C338.545 339.178 346.783 352.508 360.085 355.648C373.386 358.788 386.715 350.549 389.854 337.246Z" stroke="white" stroke-width="0.82" stroke-miterlimit="10"/>
<path d="M262.628 402.817C265.767 389.513 257.529 376.184 244.227 373.044C230.926 369.904 217.597 378.143 214.458 391.446C211.318 404.75 219.557 418.08 232.858 421.219C246.16 424.359 259.488 416.12 262.628 402.817Z" stroke="white" stroke-width="0.82" stroke-miterlimit="10"/>
<path d="M326.237 402.814C329.376 389.511 321.138 376.181 307.837 373.041C294.535 369.901 281.207 378.14 278.067 391.443C274.928 404.747 283.166 418.077 296.468 421.216C309.769 424.356 323.097 416.117 326.237 402.814Z" stroke="white" stroke-width="0.82" stroke-miterlimit="10"/>
<path d="M328.573 513.375C341.641 500.305 341.641 479.113 328.573 466.043C315.504 452.973 294.316 452.973 281.247 466.043C268.178 479.113 268.178 500.305 281.247 513.375C294.316 526.445 315.504 526.445 328.573 513.375Z" fill="#FF354E"/>
<path d="M389.856 402.812C392.996 389.509 384.757 376.179 371.456 373.039C358.154 369.899 344.826 378.139 341.686 391.442C338.547 404.745 346.785 418.075 360.087 421.215C373.388 424.355 386.717 416.116 389.856 402.812Z" stroke="white" stroke-width="0.82" stroke-miterlimit="10"/>
<path d="M284.325 488.052C284.094 488.049 283.867 487.989 283.664 487.878C283.462 487.767 283.289 487.608 283.162 487.415C283.035 487.222 282.957 487.001 282.934 486.771C282.912 486.54 282.946 486.308 283.034 486.095C284.177 483.195 287.266 474.138 304.565 474.138C320.9 474.138 324.582 483.174 325.788 486.073C325.88 486.287 325.918 486.521 325.899 486.753C325.879 486.985 325.803 487.209 325.676 487.405C325.55 487.6 325.377 487.762 325.173 487.875C324.969 487.988 324.741 488.049 324.508 488.052H317.97C317.721 488.052 317.477 487.986 317.263 487.859C317.048 487.733 316.872 487.551 316.753 487.333C315.896 485.745 313.949 478.116 304.258 478.116C296.365 478.116 293.435 482.349 291.805 487.089C291.711 487.367 291.534 487.608 291.297 487.781C291.06 487.953 290.776 488.048 290.483 488.052H284.325Z" fill="white"/>
<path d="M291.139 486.75H282.739C280.577 486.75 278.824 488.503 278.824 490.666V492.306C278.824 494.468 280.577 496.221 282.739 496.221H291.139C293.301 496.221 295.054 494.468 295.054 492.306V490.666C295.054 488.503 293.301 486.75 291.139 486.75Z" fill="white"/>
<path d="M325.27 486.75H316.87C314.708 486.75 312.955 488.503 312.955 490.666V492.306C312.955 494.468 314.708 496.221 316.87 496.221H325.27C327.432 496.221 329.185 494.468 329.185 492.306V490.666C329.185 488.503 327.432 486.75 325.27 486.75Z" fill="white"/>
<path d="M275.936 86.4173C274.254 83.645 267.842 68.5349 265.494 63.1384L257.199 44.2085C256.778 45.0796 256.56 46.0345 256.56 47.002C256.56 47.9694 256.778 48.9243 257.199 49.7954C251.683 50.0591 246.191 50.6848 240.758 51.6683C238.885 52.0069 236.6 52.8323 236.441 54.7263C236.325 56.0172 237.309 57.1177 238.282 57.9748C241.586 60.8463 245.535 62.8757 249.793 63.8897C252.152 64.4505 254.861 64.8526 256.257 66.8313C256.945 67.9984 257.351 69.3101 257.442 70.6617C258.73 79.3522 260.514 87.9618 262.785 96.4484C263.589 99.4746 264.848 102.903 267.821 103.855C269.726 104.48 271.789 103.855 273.682 103.22C279.438 101.284 285.204 98.9879 289.902 95.1469C295.541 90.5123 315.293 65.5192 305.518 59.636C300.735 56.7473 287.786 72.1643 285.246 75.3069C281.385 80.132 280.634 82.3435 275.936 86.4173Z" fill="url(#paint4_linear_208_1683)"/>
<path d="M389.765 118.881C387.737 119.998 385.493 120.669 383.185 120.849C381.704 121.05 380.191 121.177 378.688 121.24C369.664 121.611 360.427 119.537 353.466 113.897C349.763 110.892 346.769 106.966 342.642 104.564C339.477 102.884 336.011 101.845 332.443 101.506C329.544 101.115 326.582 100.935 323.694 100.586C317.24 99.8133 310.151 97.5701 307.157 91.7927C305.041 87.8141 305.454 83.0419 306.099 78.5978C307.326 70.1328 309.347 61.6677 309.707 53.044C309.908 48.3882 309.559 43.5208 307.062 39.574C305.39 36.9498 302.893 34.9817 300.936 32.5691C295.456 25.7971 299.243 15.0677 306.448 11.0362C307.817 10.4136 309.119 9.65125 310.331 8.76121C311.802 7.47029 312.606 5.58682 313.897 4.10544C317.504 -0.0635935 323.852 -0.158825 329.301 0.0739634L338.664 0.476053C341.69 0.603028 345.182 0.994536 346.79 3.55521C348.028 5.52333 347.795 8.38029 349.615 9.82992C350.26 10.2922 350.974 10.6493 351.731 10.8881C355.14 12.1615 358.213 14.1972 360.716 16.8398C363.219 19.4823 365.085 22.6619 366.172 26.1357C368.87 35.0875 366.098 45.0022 368.785 53.9434C368.982 54.7769 369.378 55.5503 369.939 56.1972C370.735 56.8207 371.639 57.294 372.605 57.5939C378.487 60.1863 380.307 67.7202 379.831 74.1219C379.566 77.7301 378.836 81.5288 380.169 84.8514C381.132 87.2639 383.058 89.1474 384.888 90.9885C388.75 94.8507 392.559 99.0726 394.146 104.3C395.733 109.527 394.41 116.013 389.765 118.881Z" fill="#3F3D56"/>
<path d="M378.688 121.24C369.664 121.611 360.427 119.537 353.466 113.897C349.763 110.892 346.769 106.966 342.642 104.564C339.477 102.884 336.011 101.845 332.443 101.506C328.645 97.2738 324.889 92.9672 321.25 88.5865C318.435 85.2005 315.663 81.6981 313.981 77.6243C312.299 73.5505 311.865 69.4132 311.326 65.1807C309.897 53.3825 308.511 41.1505 312.204 29.8603C312.668 28.2363 313.382 26.6942 314.32 25.2892C320.668 16.5067 337.511 17.8823 343.044 26.7071C344.461 29.2305 345.445 31.9739 345.954 34.8229C346.964 39.4333 347.629 44.1126 347.943 48.822C348.197 52.7476 348.345 57.0331 350.916 60.0064C352.524 61.8582 354.883 62.9269 356.618 64.6728C363.263 71.3284 358.004 83.7191 363.369 91.4646C364.751 93.2528 366.412 94.807 368.288 96.0675C372.573 99.2419 377.175 102.353 379.841 106.977C382.508 111.601 382.539 117.876 378.688 121.24Z" fill="#25233A"/>
<path d="M291.816 127.103C291.816 127.103 252.575 134.287 251.443 144.795C250.311 155.302 258.552 242.312 258.552 242.312H267.535C267.535 242.312 283.669 194.696 280.887 180.697C278.104 166.698 275.279 162.804 275.279 162.804C275.279 162.804 291.625 170.878 307.083 153.069C322.54 135.261 315.642 123.357 315.642 123.357L291.816 127.103Z" fill="#3F3D56"/>
<path d="M313.886 124.965C313.886 124.965 276.465 138.785 277.142 149.302C277.819 159.82 300.852 244.132 300.852 244.132L309.707 242.587C309.707 242.587 317.441 192.94 312.299 179.586C307.157 166.232 303.75 162.952 303.75 162.952C303.75 162.952 325.397 172.899 338.114 153.038C348.885 136.192 331.047 119.114 320.065 122.87L313.886 124.965Z" fill="#25233A"/>
<path d="M291.817 127.103V104.998C291.817 104.998 285.321 92.9357 284.263 86.7245C283.649 83.1269 288.188 72.0906 293.414 67.8263C297.054 64.8635 299.762 59.5835 304.418 59.4353L327.26 58.7476L338.453 90.4915L334.507 127.293C334.507 127.293 324.911 122.32 291.817 127.103Z" fill="#FF7A5A"/>
<path d="M315.314 122.045C315.05 122.479 313.759 124.478 313.886 124.965C314.013 125.452 319.969 125.611 322.106 125.822C325.746 126.182 330.867 126.88 334.506 127.282C336.971 115.188 335.744 107.538 337.543 101.009C337.877 100.242 338.047 99.4125 338.04 98.5754C337.828 97.1152 332.612 89.613 331.311 89.0522C327.079 87.2216 327.079 93.6233 326.592 95.9935C324.815 105.358 320.255 114.003 315.314 122.045Z" fill="url(#paint5_linear_208_1683)"/>
<path d="M299.709 21.9985C299.709 21.9985 294.419 39.6375 298.037 42.6638C301.656 45.69 304.808 46.1133 305.549 47.6158C306.29 49.1184 308.152 55.4989 305.549 59.6891C302.946 63.8793 304.184 69.8365 307.982 67.8261C311.781 65.8157 320.223 59.6468 320.223 59.6468L325.09 41.9442C325.09 41.9442 332.877 23.3846 331.671 19.3214C330.465 15.2582 311.495 4.37004 299.709 21.9985Z" fill="url(#paint6_linear_208_1683)"/>
<path d="M322.625 26.6014C323.196 28.8235 322.181 31.236 322.805 33.4475C323.577 36.1775 326.54 37.68 329.301 38.3043C332.062 38.9286 335.057 39.1508 337.416 40.7486C340.082 42.5474 341.711 46.0392 344.822 46.727C346.38 46.9534 347.969 46.801 349.456 46.2826C352.884 45.3938 356.576 44.3356 358.734 41.521C359.855 39.9694 360.525 38.1386 360.671 36.2304C361.432 28.76 356.312 21.7128 349.932 17.7448C343.552 13.7768 336.019 12.232 328.772 10.3379C324.752 9.27979 315.23 6.29586 313.008 11.7135C311.431 15.5545 315.029 22.5382 319.525 18.9088C319.091 21.8927 321.937 23.8926 322.625 26.6014Z" fill="#3F3D56"/>
<path d="M331.872 43.0236C331.872 43.0236 327.186 46.8117 324.34 45.7747C321.494 44.7377 316.616 51.0653 316.616 51.0653C316.616 51.0653 315.114 53.626 318.436 54.8746C320.286 55.533 322.249 55.8151 324.209 55.7042C326.169 55.5934 328.088 55.0919 329.852 54.2292C335.925 51.15 342.897 42.3252 345.499 39.7222C351.223 33.8919 349.943 20.6758 343.458 19.9034C336.972 19.131 338.041 26.4956 338.273 26.8342C338.713 27.1453 339.189 27.4011 339.691 27.596C340.067 27.7648 340.402 28.012 340.674 28.3209C340.946 28.6298 341.149 28.9934 341.269 29.3872C341.389 29.7809 341.424 30.1959 341.371 30.6042C341.318 31.0125 341.178 31.4047 340.961 31.7545C338.57 35.5849 334.295 42.0183 331.872 43.0236Z" fill="url(#paint7_linear_208_1683)"/>
<path d="M252.723 252.364C252.553 252.689 252.476 253.056 252.501 253.422C252.567 253.667 252.702 253.887 252.89 254.058C253.077 254.228 253.309 254.342 253.559 254.385C254.059 254.461 254.57 254.436 255.061 254.311C258.307 253.814 261.377 252.512 263.991 250.523C265.286 249.518 266.32 248.215 267.004 246.725C267.687 245.234 268 243.6 267.916 241.963C267.916 241.698 259.06 241.963 258.087 242.661C255.579 244.428 253.866 249.613 252.723 252.364Z" fill="url(#paint8_linear_208_1683)"/>
<path d="M248.904 258.236L252.723 252.364C252.723 252.364 261.505 256.692 266.583 247.528C269.186 242.819 267.916 241.994 267.916 241.994C267.916 241.994 270.995 242.682 271.492 248.248C271.787 251.571 271.787 254.913 271.492 258.236L269.196 259.506L267.959 254.47C267.959 254.47 262.097 262.448 260.309 265.114C259.378 266.5 255.019 267.548 251.094 268.236C250.353 268.361 249.592 268.28 248.894 268.002C248.196 267.723 247.588 267.258 247.137 266.657C246.685 266.056 246.408 265.342 246.336 264.594C246.263 263.846 246.397 263.093 246.725 262.416C247.306 261.21 248.026 259.834 248.904 258.236Z" fill="url(#paint9_linear_208_1683)"/>
<path d="M296.344 252.893C296.192 253.224 296.144 253.593 296.206 253.951C296.285 254.177 296.427 254.375 296.614 254.523C296.801 254.671 297.027 254.763 297.264 254.787C297.739 254.835 298.219 254.781 298.671 254.629C301.694 253.97 304.503 252.562 306.839 250.534C307.994 249.511 308.886 248.225 309.438 246.785C309.991 245.344 310.188 243.792 310.013 242.259C309.96 242.026 301.687 242.788 300.808 243.497C298.46 245.349 297.201 250.269 296.344 252.893Z" fill="url(#paint10_linear_208_1683)"/>
<path d="M293.055 258.671L296.345 252.893C296.345 252.893 304.809 256.449 309.041 247.539C311.21 242.957 309.972 242.249 309.972 242.249C309.972 242.249 312.903 242.725 313.696 247.92C314.167 251.025 314.362 254.166 314.278 257.306L312.162 258.639L310.702 253.973C310.702 253.973 305.666 261.824 304.132 264.427C303.338 265.781 299.328 267.03 295.668 267.908C294.969 268.082 294.235 268.057 293.55 267.834C292.865 267.612 292.256 267.202 291.792 266.651C291.328 266.1 291.028 265.43 290.926 264.717C290.823 264.004 290.923 263.277 291.214 262.618C291.722 261.559 292.325 260.226 293.055 258.671Z" fill="url(#paint11_linear_208_1683)"/>
<path d="M321.207 71.0744C321.207 71.0744 338.061 121.283 357.338 102.437C361.072 98.7868 346.239 45.4782 345.456 44.2402C344.673 43.0022 346.514 34.7171 344.673 33.1828C343.273 32.0725 341.728 31.1577 340.082 30.4634C340.082 30.4634 337.479 30.8866 337.574 32.6537C337.669 34.4208 335.077 35.9974 334.548 37.246C334.019 38.4946 331.258 42.325 331.702 43.9122C332.315 45.7088 333.135 47.4276 334.146 49.0336C334.548 49.4462 341.404 80.9256 341.404 80.9256C341.404 80.9256 334.898 56.7685 327.259 58.7049C319.62 60.6412 321.207 71.0744 321.207 71.0744Z" fill="url(#paint12_linear_208_1683)"/>
</g>
<defs>
<linearGradient id="paint0_linear_208_1683" x1="89.1459" y1="585.072" x2="485.429" y2="585.072" gradientUnits="userSpaceOnUse">
<stop stop-color="#183866"/>
<stop offset="1" stop-color="#1A7FC1"/>
</linearGradient>
<linearGradient id="paint1_linear_208_1683" x1="287.363" y1="726.819" x2="302.443" y2="14.8561" gradientUnits="userSpaceOnUse">
<stop offset="0.01" stop-opacity="0"/>
<stop offset="0.93" stop-opacity="0.89"/>
<stop offset="0.98"/>
</linearGradient>
<linearGradient id="paint2_linear_208_1683" x1="291.436" y1="202.812" x2="368.574" y2="202.812" gradientUnits="userSpaceOnUse">
<stop stop-color="#183866"/>
<stop offset="1" stop-color="#1A7FC1"/>
</linearGradient>
<linearGradient id="paint3_linear_208_1683" x1="295.783" y1="476.814" x2="301.551" y2="787.143" gradientUnits="userSpaceOnUse">
<stop offset="0.01" stop-opacity="0"/>
<stop offset="0.93" stop-opacity="0.89"/>
<stop offset="0.98"/>
</linearGradient>
<linearGradient id="paint4_linear_208_1683" x1="236.483" y1="74.1642" x2="308.237" y2="74.1642" gradientUnits="userSpaceOnUse">
<stop stop-color="#ECC4D7"/>
<stop offset="0.42" stop-color="#EFD4D1"/>
<stop offset="1" stop-color="#F2EAC9"/>
</linearGradient>
<linearGradient id="paint5_linear_208_1683" x1="284.156" y1="97.5173" x2="377.24" y2="120.516" gradientUnits="userSpaceOnUse">
<stop offset="0.01" stop-opacity="0"/>
<stop offset="0.93" stop-opacity="0.89"/>
<stop offset="0.98"/>
</linearGradient>
<linearGradient id="paint6_linear_208_1683" x1="296.757" y1="40.2512" x2="331.83" y2="40.2512" gradientUnits="userSpaceOnUse">
<stop stop-color="#ECC4D7"/>
<stop offset="0.42" stop-color="#EFD4D1"/>
<stop offset="1" stop-color="#F2EAC9"/>
</linearGradient>
<linearGradient id="paint7_linear_208_1683" x1="323.102" y1="30.7741" x2="350.198" y2="52.2334" gradientUnits="userSpaceOnUse">
<stop stop-color="#68E1FD"/>
<stop offset="0.3" stop-color="#58A0BA"/>
<stop offset="0.55" stop-color="#4C718A"/>
<stop offset="0.68" stop-color="#485F77"/>
<stop offset="0.69" stop-color="#475C74"/>
<stop offset="0.87" stop-color="#41455E"/>
<stop offset="0.99" stop-color="#3F3D56"/>
</linearGradient>
<linearGradient id="paint8_linear_208_1683" x1="252.48" y1="248.184" x2="267.958" y2="248.184" gradientUnits="userSpaceOnUse">
<stop stop-color="#ECC4D7"/>
<stop offset="0.42" stop-color="#EFD4D1"/>
<stop offset="1" stop-color="#F2EAC9"/>
</linearGradient>
<linearGradient id="paint9_linear_208_1683" x1="251.792" y1="248.819" x2="265.781" y2="261.822" gradientUnits="userSpaceOnUse">
<stop stop-color="#68E1FD"/>
<stop offset="0.3" stop-color="#58A0BA"/>
<stop offset="0.55" stop-color="#4C718A"/>
<stop offset="0.68" stop-color="#485F77"/>
<stop offset="0.69" stop-color="#475C74"/>
<stop offset="0.87" stop-color="#41455E"/>
<stop offset="0.99" stop-color="#3F3D56"/>
</linearGradient>
<linearGradient id="paint10_linear_208_1683" x1="296.122" y1="248.534" x2="310.055" y2="248.534" gradientUnits="userSpaceOnUse">
<stop stop-color="#ECC4D7"/>
<stop offset="0.42" stop-color="#EFD4D1"/>
<stop offset="1" stop-color="#F2EAC9"/>
</linearGradient>
<linearGradient id="paint11_linear_208_1683" x1="296.229" y1="250.386" x2="308.386" y2="260.574" gradientUnits="userSpaceOnUse">
<stop stop-color="#68E1FD"/>
<stop offset="0.3" stop-color="#58A0BA"/>
<stop offset="0.55" stop-color="#4C718A"/>
<stop offset="0.68" stop-color="#485F77"/>
<stop offset="0.69" stop-color="#475C74"/>
<stop offset="0.87" stop-color="#41455E"/>
<stop offset="0.99" stop-color="#3F3D56"/>
</linearGradient>
<linearGradient id="paint12_linear_208_1683" x1="321.07" y1="68.5561" x2="357.941" y2="68.5561" gradientUnits="userSpaceOnUse">
<stop stop-color="#ECC4D7"/>
<stop offset="0.42" stop-color="#EFD4D1"/>
<stop offset="1" stop-color="#F2EAC9"/>
</linearGradient>
<clipPath id="clip0_208_1683">
<rect width="546" height="632" fill="white"/>
</clipPath>
</defs>
</svg>
