<svg width="37" height="36" viewBox="0 0 37 36" fill="none" xmlns="http://www.w3.org/2000/svg">
<g clip-path="url(#clip0_526_9359)">
<path d="M28.0445 14.9624C27.5945 13.3874 27.5383 11.6999 27.2008 10.0687C26.8633 8.43742 26.3008 6.74992 25.0633 5.68117C23.657 4.49992 21.6883 4.21867 19.832 4.04992C17.6383 3.82492 15.332 3.59992 13.4195 4.72492C11.282 5.96242 10.2695 8.49367 9.70702 10.8562C9.14452 13.2749 8.80701 15.8062 7.45702 17.8312C6.38826 19.4062 4.75701 20.5874 4.19451 22.4437C3.63201 24.1874 4.25077 26.0999 5.43202 27.4499C6.61327 28.8562 8.18826 29.7562 9.87576 30.4312C16.5133 33.1312 24.3883 32.5687 30.5758 28.9687C31.8133 28.2374 33.0508 27.3937 33.782 26.0999C34.4008 25.0874 34.5133 23.8499 34.1195 22.7249C33.7258 21.7124 32.9945 21.4312 32.1508 20.8124C30.1258 19.3499 28.7195 17.2687 28.0445 14.9624Z" fill="#262730"/>
<path d="M16.007 9.45C16.007 10.35 15.2758 11.025 14.432 11.025C13.5883 11.025 12.8008 10.35 12.8008 9.45C12.8008 8.55 13.532 7.875 14.3758 7.875C15.2195 7.875 16.007 8.55 16.007 9.45Z" fill="#262730" stroke="#FF7A5A" stroke-width="1.267" stroke-miterlimit="10" stroke-linecap="round" stroke-linejoin="round"/>
<path d="M16.2887 20.6441V24.6941C16.2887 25.2566 15.8387 25.7066 15.3324 25.7066C15.0512 25.7066 14.8262 25.5941 14.6574 25.4254C14.4887 25.2566 14.3762 24.9754 14.3762 24.6941C14.3762 25.2566 13.9262 25.7066 13.4199 25.7066C13.1387 25.7066 12.9137 25.5941 12.7449 25.4254C12.5762 25.2566 12.4637 24.9754 12.4637 24.6941V20.2504L11.1699 13.5004C11.4512 12.8816 12.0699 12.4316 12.7449 12.4316H15.9512C16.4574 12.4316 16.9074 12.6566 17.2449 13.0504" fill="#FFD166"/>
<path d="M16.2887 20.6441V24.6941C16.2887 25.2566 15.8387 25.7066 15.3324 25.7066C15.0512 25.7066 14.8262 25.5941 14.6574 25.4254C14.4887 25.2566 14.3762 24.9754 14.3762 24.6941M14.3762 24.6941V19.8004M14.3762 24.6941C14.3762 25.2566 13.9262 25.7066 13.4199 25.7066C13.1387 25.7066 12.9137 25.5941 12.7449 25.4254C12.5762 25.2566 12.4637 24.9754 12.4637 24.6941V20.2504L11.1699 13.5004C11.4512 12.8816 12.0699 12.4316 12.7449 12.4316H15.9512C16.4574 12.4316 16.9074 12.6566 17.2449 13.0504" stroke="#FF7A5A" stroke-width="1.267" stroke-miterlimit="10" stroke-linecap="round" stroke-linejoin="round"/>
<path d="M26.1324 9.45C26.1324 10.35 25.4012 11.025 24.5574 11.025C23.6574 11.025 22.9824 10.2937 22.9824 9.45C22.9824 8.55 23.7137 7.875 24.5574 7.875C25.4012 7.875 26.1324 8.55 26.1324 9.45Z" fill="#262730" stroke="#FF7A5A" stroke-width="1.267" stroke-miterlimit="10" stroke-linecap="round" stroke-linejoin="round"/>
<path d="M26.4137 20.2504V24.7504C26.4137 25.3129 26.0199 25.7629 25.4574 25.7629C25.1762 25.7629 24.9512 25.6504 24.7824 25.4816C24.6137 25.3129 24.5012 25.0316 24.5012 24.7504C24.5012 25.3129 24.0512 25.7629 23.5449 25.7629C23.2637 25.7629 23.0387 25.6504 22.8699 25.4816C22.7012 25.3129 22.5887 25.0316 22.5887 24.7504V20.7004L21.5762 13.0504C21.9137 12.6566 22.3637 12.4316 22.8699 12.4316H26.0762C26.7512 12.4316 27.3699 12.8816 27.6512 13.5004" fill="#FFD166"/>
<path d="M26.4137 20.2504V24.7504C26.4137 25.3129 26.0199 25.7629 25.4574 25.7629C25.1762 25.7629 24.9512 25.6504 24.7824 25.4816C24.6137 25.3129 24.5012 25.0316 24.5012 24.7504M24.5012 24.7504V19.8566M24.5012 24.7504C24.5012 25.3129 24.0512 25.7629 23.5449 25.7629C23.2637 25.7629 23.0387 25.6504 22.8699 25.4816C22.7012 25.3129 22.5887 25.0316 22.5887 24.7504V20.7004L21.5762 13.0504C21.9137 12.6566 22.3637 12.4316 22.8699 12.4316H26.0762C26.7512 12.4316 27.3699 12.8816 27.6512 13.5004" stroke="#FF7A5A" stroke-width="1.267" stroke-miterlimit="10" stroke-linecap="round" stroke-linejoin="round"/>
<path d="M21.2375 9.67539C21.2375 10.6316 20.45 11.4191 19.4938 11.4191C18.5375 11.4191 17.75 10.6316 17.75 9.67539C17.75 8.71914 18.5375 7.93164 19.4938 7.93164C20.45 7.93164 21.2375 8.71914 21.2375 9.67539Z" fill="#262730" stroke="#FF7A5A" stroke-width="1.267" stroke-miterlimit="10" stroke-linecap="round" stroke-linejoin="round"/>
<path d="M17.4141 19.8004C17.4141 20.3066 17.0203 20.7004 16.5703 20.7004C16.1203 20.7004 15.7266 20.3066 15.7266 19.8004V15.1316C15.7266 13.9504 16.6266 12.9941 17.6953 12.9941H21.2391C22.3078 12.9941 23.2078 13.9504 23.2078 15.1316V19.8004C23.2078 20.3066 22.8141 20.7004 22.3641 20.7004C21.9141 20.7004 21.5203 20.3066 21.5203 19.8004" fill="#FFF5E1"/>
<path d="M17.4141 19.8004C17.4141 20.3066 17.0203 20.7004 16.5703 20.7004C16.1203 20.7004 15.7266 20.3066 15.7266 19.8004V15.1316C15.7266 13.9504 16.6266 12.9941 17.6953 12.9941H21.2391C22.3078 12.9941 23.2078 13.9504 23.2078 15.1316V19.8004C23.2078 20.3066 22.8141 20.7004 22.3641 20.7004C21.9141 20.7004 21.5203 20.3066 21.5203 19.8004" stroke="#FF7A5A" stroke-width="1.267" stroke-miterlimit="10" stroke-linecap="round" stroke-linejoin="round"/>
<path d="M21.5758 16.7627V26.6627C21.5758 27.2814 21.1258 27.7877 20.507 27.7877C19.9445 27.7877 19.4383 27.2814 19.4383 26.6627C19.4383 27.2814 18.9883 27.7877 18.3695 27.7877C17.807 27.7877 17.3008 27.2814 17.3008 26.6627V16.7627" fill="#FFF5E1"/>
<path d="M21.5758 16.7627V26.6627C21.5758 27.2814 21.1258 27.7877 20.507 27.7877C19.9445 27.7877 19.4383 27.2814 19.4383 26.6627M19.4383 26.6627V21.2064M19.4383 26.6627C19.4383 27.2814 18.9883 27.7877 18.3695 27.7877C17.807 27.7877 17.3008 27.2814 17.3008 26.6627V16.7627" stroke="#FF7A5A" stroke-width="1.267" stroke-miterlimit="10" stroke-linecap="round" stroke-linejoin="round"/>
<path d="M11.0016 10.6316C11.0016 11.4754 10.2703 12.2066 9.42656 12.2066C8.58281 12.2066 7.85156 11.4754 7.85156 10.6316C7.85156 9.78789 8.58281 9.05664 9.42656 9.05664C10.3266 9.05664 11.0016 9.73164 11.0016 10.6316Z" fill="#262730" stroke="#FF7A5A" stroke-width="1.267" stroke-miterlimit="10" stroke-linecap="round" stroke-linejoin="round"/>
<path d="M7.56992 19.575C7.56992 20.025 7.23242 20.3625 6.83867 20.3625C6.44492 20.3625 6.10742 20.025 6.10742 19.575V15.4125C6.10742 14.3437 6.89492 13.5 7.85117 13.5H11.0012C11.9574 13.5 12.7449 14.3437 12.7449 15.4125V19.575C12.7449 20.025 12.4074 20.3625 12.0137 20.3625C11.6199 20.3625 11.2824 20.025 11.2824 19.575" fill="#262730"/>
<path d="M7.56992 19.575C7.56992 20.025 7.23242 20.3625 6.83867 20.3625C6.44492 20.3625 6.10742 20.025 6.10742 19.575V15.4125C6.10742 14.3437 6.89492 13.5 7.85117 13.5H11.0012C11.9574 13.5 12.7449 14.3437 12.7449 15.4125V19.575C12.7449 20.025 12.4074 20.3625 12.0137 20.3625C11.6199 20.3625 11.2824 20.025 11.2824 19.575" stroke="#FF7A5A" stroke-width="1.267" stroke-miterlimit="10" stroke-linecap="round" stroke-linejoin="round"/>
<path d="M11.2828 16.875V25.65C11.2828 26.2125 10.8891 26.6625 10.3828 26.6625C9.87656 26.6625 9.48281 26.2125 9.48281 25.65C9.48281 26.2125 9.08906 26.6625 8.52656 26.6625C8.02031 26.6625 7.57031 26.2125 7.57031 25.65V16.875" fill="#262730"/>
<path d="M11.2828 16.875V25.65C11.2828 26.2125 10.8891 26.6625 10.3828 26.6625C9.87656 26.6625 9.48281 26.2125 9.48281 25.65M9.48281 25.65V20.8125M9.48281 25.65C9.48281 26.2125 9.08906 26.6625 8.52656 26.6625C8.02031 26.6625 7.57031 26.2125 7.57031 25.65V16.875" stroke="#FF7A5A" stroke-width="1.267" stroke-miterlimit="10" stroke-linecap="round" stroke-linejoin="round"/>
<path d="M31.0816 10.6316C31.0816 11.4754 30.3504 12.2066 29.5066 12.2066C28.6629 12.2066 27.9316 11.4754 27.9316 10.6316C27.9316 9.78789 28.6629 9.05664 29.5066 9.05664C30.3504 9.05664 31.0816 9.73164 31.0816 10.6316Z" fill="#262730" stroke="#FF7A5A" stroke-width="1.267" stroke-miterlimit="10" stroke-linecap="round" stroke-linejoin="round"/>
<path d="M27.65 19.575C27.65 20.025 27.3125 20.3625 26.9187 20.3625C26.525 20.3625 26.1875 20.025 26.1875 19.575V15.4125C26.1875 14.3437 26.975 13.5 27.9313 13.5H31.0813C32.0375 13.5 32.825 14.3437 32.825 15.4125V19.575C32.825 20.025 32.4875 20.3625 32.0938 20.3625C31.7 20.3625 31.3625 20.025 31.3625 19.575" fill="#262730"/>
<path d="M27.65 19.575C27.65 20.025 27.3125 20.3625 26.9187 20.3625C26.525 20.3625 26.1875 20.025 26.1875 19.575V15.4125C26.1875 14.3437 26.975 13.5 27.9313 13.5H31.0813C32.0375 13.5 32.825 14.3437 32.825 15.4125V19.575C32.825 20.025 32.4875 20.3625 32.0938 20.3625C31.7 20.3625 31.3625 20.025 31.3625 19.575" stroke="#FF7A5A" stroke-width="1.267" stroke-miterlimit="10" stroke-linecap="round" stroke-linejoin="round"/>
<path d="M31.3629 16.875V25.65C31.3629 26.2125 30.9691 26.6625 30.4629 26.6625C29.9566 26.6625 29.5629 26.2125 29.5629 25.65C29.5629 26.2125 29.1691 26.6625 28.6066 26.6625C28.1004 26.6625 27.6504 26.2125 27.6504 25.65V16.875" fill="#262730"/>
<path d="M31.3629 16.875V25.65C31.3629 26.2125 30.9691 26.6625 30.4629 26.6625C29.9566 26.6625 29.5629 26.2125 29.5629 25.65M29.5629 25.65V20.8125M29.5629 25.65C29.5629 26.2125 29.1691 26.6625 28.6066 26.6625C28.1004 26.6625 27.6504 26.2125 27.6504 25.65V16.875" stroke="#FF7A5A" stroke-width="1.267" stroke-miterlimit="10" stroke-linecap="round" stroke-linejoin="round"/>
<path d="M0.988281 18.8441L2.05703 17.7754L3.01328 18.7316" stroke="#FFF5E1" stroke-width="1.387" stroke-miterlimit="10" stroke-linecap="round" stroke-linejoin="round"/>
<path d="M35.1328 22.2752L36.0891 21.2627L36.9891 22.1627" stroke="#FFD166" stroke-width="1.267" stroke-miterlimit="10" stroke-linecap="round" stroke-linejoin="round"/>
<path d="M3.74414 12.375L2.33789 13.8375" stroke="#FFD166" stroke-width="1.387" stroke-miterlimit="10" stroke-linecap="round" stroke-linejoin="round"/>
<path d="M35.8625 12.2061L34.3438 13.7248" stroke="#FFF5E1" stroke-width="1.387" stroke-miterlimit="10" stroke-linecap="round" stroke-linejoin="round"/>
<path d="M12.7453 30.5996L11.2266 32.1184" stroke="#FF7A5A" stroke-width="1.267" stroke-miterlimit="10" stroke-linecap="round" stroke-linejoin="round"/>
<path d="M25.2312 29.1377L23.6562 30.6564" stroke="#262730" stroke-width="1.267" stroke-miterlimit="10" stroke-linecap="round" stroke-linejoin="round"/>
</g>
<defs>
<clipPath id="clip0_526_9359">
<rect width="36" height="36" fill="white" transform="translate(0.988281)"/>
</clipPath>
</defs>
</svg>
