<svg width="59" height="57" viewBox="0 0 59 57" fill="none" xmlns="http://www.w3.org/2000/svg">
<path d="M22.3738 10.6563C22.2599 8.27919 21.5515 4.70656 18.8613 1" stroke="#2D605A" stroke-width="2" stroke-miterlimit="10"/>
<path d="M23.299 9.53445C20.126 9.1693 17.3248 11.6737 17.3595 14.8885C17.3704 15.9194 17.3175 16.95 17.2011 17.9742C16.0626 27.9978 9.03961 35.9032 0 38.5996C0.345856 38.6545 0.693842 38.704 1.0451 38.7444C14.3421 40.2746 26.3539 30.664 27.8739 17.2784C27.9622 16.5013 28.013 15.7286 28.0279 14.962C28.082 12.1974 26.028 9.84847 23.299 9.53445Z" fill="#EF5B62"/>
<path d="M31.7735 50.4858C40.6565 50.4858 47.8575 43.2368 47.8575 34.2947C47.8575 25.3525 40.6565 18.1035 31.7735 18.1035C22.8905 18.1035 15.6895 25.3525 15.6895 34.2947C15.6895 43.2368 22.8905 50.4858 31.7735 50.4858Z" fill="#2DA55D"/>
<path d="M58.7191 52.2573C52.4378 58.5804 42.254 58.5804 35.9727 52.2573C29.6914 45.9341 29.6914 35.6825 35.9727 29.3594" fill="#55BC7F"/>
<path d="M57.2115 50.7412C51.7711 56.2179 42.919 56.2179 37.4787 50.7412C32.0384 45.2645 32.0383 36.3535 37.4787 30.877" fill="#FFDE76"/>
<path d="M47.0261 40.4883V40.5665H33.4277V41.2262H46.6001L37.3223 50.5658L37.7744 51.021L47.0261 41.7077V54.841C47.2444 54.846 47.463 54.8458 47.6814 54.8405V41.226H47.7591L47.0261 40.4883Z" fill="#55BC7F"/>
</svg>
