<svg width="120" height="96" viewBox="0 0 120 96" fill="none" xmlns="http://www.w3.org/2000/svg">
<path d="M71.7527 88.537H48.2253C42.3393 88.5394 36.5028 87.7432 31.0059 86.188V94.2682C31.0059 94.5069 31.1342 94.7358 31.3626 94.9046C31.5909 95.0734 31.9007 95.1682 32.2236 95.1682H87.7543C88.0773 95.1682 88.3871 95.0734 88.6154 94.9046C88.8438 94.7358 88.9721 94.5069 88.9721 94.2682V86.188C83.4752 87.7432 77.6387 88.5394 71.7527 88.537Z" fill="#E6560F"/>
<path d="M77.1137 19.4229C76.3789 17.8331 75.4411 16.2986 74.3129 14.8401C73.3922 13.4721 72.1764 12.224 70.7131 11.1447C69.8814 10.5669 70.0056 10.7847 67.1122 9.07473C66.1241 8.40958 65.0525 7.81558 63.9118 7.30082C62.6596 6.83319 61.3052 6.53304 59.9114 6.4143C55.9269 5.9481 53.4462 5.6583 50.9108 6.4143C48.2147 7.2171 46.8812 8.77591 45.1094 10.8486C42.6868 13.4552 41.4281 16.5565 41.5096 19.7181C41.6192 21.7791 42.5983 21.8151 43.1658 22.8447L52.5208 31.0473L55.9208 32.382L71.4767 27.1845L77.1137 19.4229Z" fill="#F4AC56"/>
<path d="M98.737 35.7325C99.3617 34.9648 99.3812 33.4627 99.3154 31.84C99.2813 30.9724 98.9951 30.202 97.5155 27.997C95.4453 24.9091 94.409 23.3656 93.3142 22.6744C91.8894 21.7744 91.831 22.2784 85.7153 20.3092C82.6222 19.3147 82.09 19.0096 80.7139 18.979C79.9832 18.9628 78.3672 19.0105 74.7127 20.6053C72.8738 21.4081 72.2893 20.6854 69.6406 22.6105V23.3575L75.0768 35.6803L80.877 42.7228C80.877 42.7228 90.5876 50.6005 94.6623 43.1665L98.737 35.7325Z" fill="#F29E41"/>
<path d="M87.4157 39.8524C88.3205 39.3619 88.2876 38.8309 89.3154 37.0507C90.3331 35.4148 90.4936 33.5581 89.766 31.8397C89.1717 30.6652 88.6152 30.8173 87.3669 29.0677C85.9543 27.0922 86.3659 26.4775 85.4161 25.4092C83.9998 23.8162 81.4814 23.377 78.5149 22.8595C75.1221 22.2011 71.5567 22.2011 68.1638 22.8595C65.7015 23.3518 61.2907 24.2338 58.7126 27.2938C57.3695 28.8495 56.4235 30.5739 55.9215 32.3815L52.8125 40.2295L63.4766 47.1217L71.4774 49.414C71.4774 49.414 76.0282 52.9177 81.7225 46.3846L87.4157 39.8524Z" fill="#FFB957"/>
<path d="M54.1348 40.2275C55.1921 39.4129 55.8971 38.3839 56.16 37.2719C56.6962 35.938 56.7482 34.5232 56.311 33.1697C55.9298 32.3726 55.4783 31.5948 54.9592 30.8414C53.5466 28.2755 53.9582 27.8417 53.0108 26.8499C52.3045 26.1119 50.9795 25.6079 48.3589 24.6323C46.4147 23.8016 44.3523 23.1321 42.2091 22.6361C39.3568 22.2109 36.4018 22.3642 33.6579 23.0798C31.2491 23.636 27.1549 24.5819 24.6561 27.515C21.088 31.7018 23.666 36.5393 24.0557 37.271C24.4255 38.1932 25.0532 39.0477 25.8982 39.7793L35.8073 46.3907H46.0159L54.1348 40.2275Z" fill="#F29E41"/>
<path d="M59.6109 60.1124C61.2617 59.9577 62.848 59.5418 64.2616 58.8929C65.4564 58.5619 66.4977 57.9847 67.2622 57.2297C68.0075 56.3423 67.6592 55.7393 67.8613 54.347C68.2876 51.4193 70.2604 51.1196 69.962 49.2467C69.7976 48.2153 68.9025 47.4134 67.1124 45.8096C65.8061 44.6312 64.2924 43.5872 62.6115 42.7055C60.5659 41.5698 58.2114 40.7755 55.7104 40.3772C53.9732 40.178 52.209 40.1408 50.4593 40.2665C46.18 40.397 43.7737 40.4708 41.1579 41.486C39.0576 42.5762 37.1414 43.8482 35.4502 45.275L33.207 50.9837L34.6075 57.2603L33.6576 60.2231C33.6576 60.2231 42.5912 61.1141 59.6109 60.1124ZM89.679 40.0937C90.3135 39.2252 90.3159 39.2459 92.3155 38.0489C93.5455 37.3127 96.4194 35.5919 100.117 35.6837C102.136 35.7332 104.529 36.9491 109.317 39.3791C110.867 40.0699 112.225 40.9732 113.317 42.0404C114.293 43.0603 114.974 44.2177 115.318 45.4406C115.582 46.3937 115.399 46.5368 115.318 49.4321C115.237 52.3517 115.407 52.7936 114.917 53.7188C114.161 54.9306 113.072 56.0127 111.718 56.8958L101.582 54.0419L89.679 40.0937Z" fill="#F4AC56"/>
<path d="M7.85469 57.8946C6.55903 56.8837 5.58544 55.6716 5.00509 54.3468C4.20575 52.3889 4.25769 50.295 5.15363 48.36C5.82376 47.2379 6.62698 46.1618 7.55388 45.1443C10.1161 41.826 9.59977 41.6316 10.5545 40.9314C12.7964 39.2889 16.2354 39.279 19.7061 39.2682C22.6215 39.2592 22.1733 39.657 26.9068 39.8226C29.402 39.9099 30.5102 39.8334 32.0081 40.377C33.5326 40.8958 34.7561 41.8 35.458 42.9267C36.3178 44.5188 35.0233 45.2109 34.7079 48.36C34.4835 50.1037 34.6356 51.8626 35.1585 53.571C35.7686 55.4808 36.5467 56.1783 36.2082 57.4518C35.8323 58.5709 34.9279 59.5539 33.6582 60.2238" fill="#FFB957"/>
<path d="M68.0781 48.4416L71.4757 49.4145C71.4757 49.4145 76.0265 52.9182 81.7209 46.3851L87.4152 39.8529C88.2141 39.4191 88.2847 38.9511 88.9983 37.6191C87.7282 37.4016 86.427 37.2985 85.1233 37.3122C82.2289 37.3507 79.3932 37.922 76.8729 38.9745C72.7276 40.7115 69.9718 44.8515 69.9718 44.8515C69.1679 45.9945 68.533 47.1981 68.0781 48.4416Z" fill="#ED8120"/>
<path d="M24.8057 53.0525C25.1253 53.498 25.2041 54.0165 25.0261 54.5033C24.8545 54.9783 24.4965 55.4052 23.9971 55.73C23.8025 55.8576 23.5921 55.9716 23.3687 56.0702C23.2883 56.099 23.247 56.1197 23.2299 56.0891C23.2202 56.0648 23.2177 55.9766 23.1641 55.9397C23.0582 55.847 22.9352 55.982 22.9876 56.1548C23.0398 56.3806 23.113 56.6034 23.2068 56.8217C22.8544 56.8873 22.4835 56.8729 22.1424 56.7803C21.9105 56.714 21.7061 56.6041 21.5495 56.4613C21.3929 56.3186 21.2896 56.1481 21.2498 55.9667C21.2016 55.7237 21.2552 55.4756 21.4032 55.2557C21.5054 55.1009 21.6344 54.9566 21.7868 54.8264C21.9692 54.672 22.1644 54.5262 22.3714 54.3899C22.7038 54.173 22.9973 54.0092 23.3773 53.7932C23.7669 53.5853 24.1785 53.3369 24.8057 53.0525ZM21.0062 44.2568C21.1051 44.1153 21.2465 43.9924 21.4196 43.8976C21.5927 43.8027 21.7929 43.7384 22.0048 43.7096C22.1907 43.6898 22.3801 43.7 22.5603 43.7393C22.7404 43.7785 22.9069 43.8461 23.0484 43.9373C23.221 44.0345 23.3562 44.1634 23.4406 44.3111C23.5251 44.4589 23.5558 44.6203 23.5299 44.7795C23.5039 44.9388 23.4221 45.0902 23.2926 45.2189C23.1631 45.3476 22.9904 45.449 22.7915 45.5132C22.4752 45.3937 22.13 45.3215 21.7759 45.3008C21.5774 45.299 21.5104 45.3332 21.4641 45.3035C21.3996 45.2184 21.3548 45.1259 21.3314 45.0299C21.2306 44.7702 21.1222 44.5121 21.0062 44.2559V44.2568ZM12.6048 46.6958C12.395 46.6865 12.1902 46.6443 12.0042 46.572C11.8182 46.4997 11.6551 46.3989 11.5258 46.2764C11.4235 46.1712 11.3524 46.0513 11.3171 45.9244C11.2819 45.7976 11.2833 45.6666 11.3212 45.5402C11.365 45.3938 11.4518 45.2562 11.5756 45.1374C11.6993 45.0186 11.857 44.9213 12.0373 44.8526C12.2428 44.7772 12.4747 44.7506 12.7014 44.7764C12.9281 44.8022 13.1385 44.8791 13.3038 44.9966C13.2838 45.2534 13.3646 45.5091 13.5364 45.7328C13.646 45.8498 13.7227 45.8741 13.7008 45.9227C13.6862 45.9722 13.5948 46.0415 13.428 46.1594L12.6048 46.6958ZM31.9078 53.8652C32.0653 53.736 32.2798 53.6522 32.513 53.6288C32.7462 53.6054 32.9831 53.6439 33.1816 53.7374C33.4923 53.8601 33.725 54.0684 33.8294 54.317C33.8706 54.422 33.8827 54.5321 33.8649 54.6407C33.8472 54.7493 33.7999 54.8541 33.7259 54.9488C33.511 55.2008 33.1876 55.392 32.8077 55.4915C32.458 55.3925 32.1265 55.2613 31.8213 55.1009C31.6721 55.0337 31.5557 54.9331 31.4889 54.8138C31.456 54.7292 31.5035 54.6581 31.6167 54.5447C31.7278 54.4532 31.8111 54.3453 31.861 54.2281C31.911 54.1109 31.9278 53.9872 31.9078 53.8652ZM15.5043 53.8652C15.7651 54.0732 16.0399 54.2715 16.3275 54.4592C16.5066 54.5744 16.6198 54.5834 16.6052 54.5627C16.6052 54.5375 16.4627 54.5789 16.5309 54.7337C16.6478 54.9994 16.8072 55.2538 17.0058 55.4915C16.9033 55.6528 16.7442 55.7909 16.545 55.8914C16.3459 55.9919 16.1139 56.0511 15.8733 56.063C15.6152 56.0627 15.3612 56.0155 15.1336 55.9256C14.9059 55.8357 14.7117 55.7058 14.5679 55.5474C14.4242 55.389 14.3353 55.2069 14.3092 55.0171C14.2831 54.8274 14.3204 54.6358 14.418 54.4592C14.5193 54.3018 14.6716 54.1653 14.8613 54.0616C15.0509 53.958 15.2722 53.8906 15.5055 53.8652H15.5043ZM30.2066 45.8462C30.4391 45.7676 30.692 45.7273 30.9478 45.7283C31.2035 45.7292 31.4559 45.7713 31.6873 45.8516C32.1027 45.994 32.439 46.2378 32.6397 46.5419C32.8717 46.8601 32.9249 47.233 32.7877 47.58C32.6505 47.927 32.334 48.2201 31.9066 48.3959C31.4146 48.1169 31.1576 47.9306 30.9177 47.7731C30.7321 47.6496 30.5764 47.5034 30.4574 47.3411C30.3568 47.1687 30.2947 46.9855 30.2735 46.7984C30.2353 46.4817 30.213 46.1641 30.2066 45.8462ZM27.9062 49.4111C27.9633 49.2569 28.0713 49.1156 28.2205 48.9998C28.3697 48.8841 28.5554 48.7975 28.761 48.7478C28.9527 48.7083 29.1542 48.7025 29.3495 48.7306C29.5448 48.7587 29.7286 48.8201 29.8863 48.9098C30.0603 49.0014 30.2013 49.1231 30.2969 49.2643C30.3924 49.4056 30.4396 49.562 30.4343 49.7198C30.42 49.8837 30.3444 50.0415 30.2161 50.1756C30.0877 50.3097 29.9116 50.4148 29.7073 50.4794C29.3836 50.3742 29.0373 50.3124 28.6843 50.2967C28.593 50.2932 28.5027 50.3129 28.4286 50.3525C28.4201 50.2755 28.3971 50.1998 28.3604 50.1275C28.236 49.8798 28.0841 49.6402 27.9062 49.4111ZM10.5041 50.9825C10.302 50.9057 10.1298 50.7919 10.0041 50.652C9.87831 50.5121 9.80311 50.3507 9.78563 50.1833C9.78009 50.0222 9.82322 49.8623 9.91187 49.7151C10.0005 49.5679 10.1325 49.4371 10.2982 49.3324C10.4638 49.2276 10.659 49.1515 10.8694 49.1096C11.0799 49.0676 11.3004 49.0608 11.5149 49.0898C11.7363 49.1293 11.9401 49.2104 12.1068 49.3251C12.2734 49.4399 12.3971 49.5845 12.4659 49.745C12.2651 49.9727 12.0951 50.2145 11.9581 50.4668C11.8778 50.6108 11.9192 50.6855 11.8875 50.6963C11.4068 50.7293 10.9381 50.8262 10.5041 50.9825ZM19.6058 49.403C19.3862 49.366 19.1831 49.288 19.0159 49.1764C18.8488 49.0649 18.7231 48.9235 18.6511 48.7658C18.5908 48.6204 18.5749 48.4669 18.6046 48.3164C18.6343 48.1659 18.7088 48.0221 18.8227 47.8955C18.9326 47.7578 19.0867 47.6423 19.2714 47.5592C19.4561 47.476 19.6657 47.4278 19.8816 47.4188C20.0975 47.4098 20.3131 47.4403 20.5093 47.5076C20.7055 47.5749 20.8761 47.6769 21.0062 47.8046C20.9349 48.0709 20.8901 48.3407 20.8723 48.6119C20.8577 48.7694 20.9052 48.8441 20.8674 48.8729C20.422 49.0151 19.9989 49.1928 19.6058 49.403ZM38.5081 52.9049C38.2412 52.8875 37.9838 52.8233 37.7572 52.7176C37.5306 52.612 37.3413 52.4679 37.2051 52.2974C37.071 52.1273 36.9844 51.9391 36.9503 51.7439C36.9162 51.5487 36.9353 51.3503 37.0066 51.1607C37.0823 50.9468 37.2236 50.7487 37.4196 50.5817C37.6156 50.4147 37.861 50.2833 38.1367 50.1977C38.4034 50.1149 38.6986 50.0962 38.9805 50.1441C39.2624 50.1921 39.5167 50.3044 39.7076 50.465C39.4896 50.7157 39.3622 51.0036 39.3374 51.3011C39.3545 51.4676 39.3983 51.5369 39.3545 51.6377C39.2805 51.7813 39.1896 51.9198 39.0829 52.0517C38.9368 52.2479 38.7773 52.4927 38.5081 52.9049ZM59.1178 53.8652C59.2606 53.7045 59.4626 53.5774 59.6999 53.4988C59.9373 53.4202 60.2001 53.3934 60.4573 53.4215C60.8489 53.4583 61.2104 53.596 61.4781 53.8103C61.7458 54.0247 61.9026 54.3019 61.9209 54.5933C61.9393 54.8847 61.8179 55.1716 61.5783 55.4034C61.3386 55.6351 60.996 55.797 60.6108 55.8605C60.2028 55.5347 59.997 55.3205 59.8192 55.1585C59.7129 55.0779 59.6128 54.9929 59.5197 54.9038C59.4953 54.8768 59.5745 54.8291 59.544 54.659C59.463 54.3787 59.319 54.1103 59.1178 53.8652ZM48.209 56.8217C48.7338 56.6579 49.0054 56.5391 49.2489 56.4554C49.422 56.3838 49.6182 56.3483 49.8164 56.3528C50.0243 56.374 50.2211 56.4348 50.3876 56.5292C50.7162 56.6973 51.0247 56.8861 51.3094 57.0935C51.2793 57.2584 51.2056 57.4172 51.0923 57.561C50.979 57.7048 50.8285 57.8307 50.6494 57.9314C50.3447 58.0942 49.9705 58.17 49.596 58.1447C49.2087 58.1166 48.8481 57.9862 48.5804 57.7775C48.419 57.652 48.301 57.4996 48.2363 57.3332C48.1717 57.1668 48.1623 56.9913 48.209 56.8217ZM43.5083 47.1206C43.9292 47.2037 44.3401 47.312 44.7371 47.4446C44.9673 47.5178 45.1794 47.6191 45.3642 47.7443C45.5103 47.8555 45.6221 47.9887 45.6918 48.1349C45.8589 48.4101 46.066 48.6712 46.3092 48.9134C46.1717 49.0829 45.975 49.2219 45.7397 49.3158C45.5044 49.4097 45.2393 49.455 44.9721 49.4471C44.4979 49.4342 44.0459 49.2956 43.6986 49.0567C43.3513 48.8177 43.1321 48.4943 43.0809 48.1457C43.0563 47.9624 43.0815 47.7773 43.1549 47.6013C43.2283 47.4253 43.3484 47.2619 43.5083 47.1206ZM57.1109 48.9152C57.319 48.8362 57.5512 48.7982 57.7849 48.8048C58.0187 48.8115 58.2463 48.8625 58.4456 48.953C58.6267 49.0381 58.7813 49.1507 58.8988 49.2834C59.0164 49.4161 59.0944 49.5658 59.1276 49.7225C59.1654 49.8768 59.1582 50.0353 59.1065 50.1874C59.0549 50.3395 58.9599 50.4817 58.828 50.6045C58.6799 50.7342 58.4923 50.8361 58.2806 50.9018C58.0689 50.9675 57.8392 50.9951 57.6102 50.9825C57.2826 50.6297 57.1182 50.4308 56.9611 50.2868C56.8308 50.1437 56.7298 50.0843 56.7249 50.0195C56.7103 49.8899 56.9222 49.7153 57.1109 48.9152ZM39.7076 57.0404C40.0769 57.1456 40.4563 57.2304 40.8426 57.2942C41.0862 57.3302 41.1714 57.2771 41.1483 57.269C41.13 57.2564 41.1324 57.3428 41.3455 57.44C41.5599 57.548 41.8814 57.6461 42.4087 57.8567C42.4209 58.0394 42.3735 58.2216 42.2705 58.388C42.1675 58.5543 42.0119 58.6999 41.8168 58.8125C41.5872 58.9277 41.3227 58.9994 41.0466 59.021C40.7706 59.0427 40.4916 59.0137 40.2344 58.9366C39.9771 58.8595 39.7496 58.7367 39.5719 58.5791C39.3942 58.4216 39.2718 58.234 39.2157 58.0331C39.176 57.8503 39.2004 57.6631 39.2866 57.4894C39.3727 57.3156 39.5177 57.161 39.7076 57.0404ZM47.7097 51.6854C48.0015 51.5428 48.327 51.4421 48.6693 51.3884C48.7517 51.3723 48.8381 51.3704 48.9218 51.3829C49.0054 51.3954 49.084 51.4219 49.1515 51.4604C49.2075 51.5078 49.2476 51.5643 49.2685 51.6252C49.2895 51.6862 49.2907 51.75 49.2721 51.8114C49.2819 51.9439 49.2548 52.0765 49.1925 52.201C49.1302 52.3255 49.0339 52.4392 48.9097 52.535C48.7855 52.6309 48.6359 52.7068 48.4704 52.7582C48.3048 52.8096 48.1267 52.8353 47.9471 52.8338C47.8649 52.8502 47.7786 52.8521 47.6953 52.8393C47.6119 52.8264 47.5338 52.7993 47.4673 52.76C47.4122 52.7117 47.3729 52.6547 47.3524 52.5933C47.3319 52.532 47.3308 52.468 47.3492 52.4063C47.4071 52.1514 47.5294 51.9069 47.7097 51.6854ZM55.9199 44.9957C56.2555 44.9768 56.593 44.9956 56.9209 45.0515C57.1182 45.0947 57.223 45.1541 57.2498 45.2279C57.2741 45.3017 57.2181 45.3899 57.0683 45.4943C56.8445 45.6869 56.5444 45.8227 56.2105 45.8824C55.8766 45.9422 55.5258 45.9229 55.2075 45.8273C55.009 45.7841 54.9043 45.7247 54.8824 45.6509C54.858 45.5762 54.9153 45.4889 55.065 45.3827C55.322 45.2226 55.6102 45.0921 55.9199 44.9957ZM65.6232 50.9825C65.958 50.964 66.2947 50.9831 66.6217 51.0392C66.8202 51.0815 66.9262 51.1409 66.9505 51.2147C66.9773 51.2885 66.9201 51.3767 66.7716 51.482C66.5475 51.6747 66.2473 51.8105 65.9132 51.8703C65.579 51.93 65.228 51.9107 64.9095 51.815C64.7123 51.7718 64.6063 51.7124 64.5844 51.6377C64.5613 51.5639 64.6185 51.4757 64.7671 51.3704C65.0244 51.2102 65.313 51.0798 65.6232 50.9834V50.9825ZM50.1501 45.8435C50.4853 45.8246 50.8224 45.8435 51.1499 45.8993C51.3472 45.9425 51.4531 46.0019 51.4787 46.0757C51.5043 46.1495 51.447 46.2377 51.2984 46.3421C51.0745 46.5349 50.7743 46.6708 50.4401 46.7306C50.106 46.7903 49.7549 46.7709 49.4365 46.6751C49.2392 46.6319 49.1332 46.5725 49.1113 46.4987C49.0882 46.424 49.1454 46.3367 49.294 46.2305C49.5512 46.0702 49.8399 45.9398 50.1501 45.8435ZM62.2743 33.3533C62.0075 33.336 61.7501 33.272 61.5235 33.1665C61.2968 33.061 61.1076 32.9171 60.9713 32.7467C60.837 32.5765 60.7502 32.3881 60.7162 32.1927C60.6821 31.9973 60.7013 31.7989 60.7728 31.6091C60.8486 31.3951 60.9901 31.197 61.1863 31.03C61.3825 30.863 61.6281 30.7316 61.9041 30.6461C62.1709 30.5634 62.4662 30.5448 62.7481 30.593C63.03 30.6411 63.2843 30.7535 63.475 30.9143C63.2568 31.1647 63.1289 31.4522 63.1036 31.7495C63.1206 31.9169 63.1645 31.9853 63.1206 32.0861C63.0471 32.2297 62.9567 32.3682 62.8503 32.5001C62.7042 32.6963 62.5434 32.942 62.2743 33.3533ZM82.884 34.3145C83.0267 34.1535 83.2288 34.0261 83.4664 33.9473C83.704 33.8685 83.9671 33.8417 84.2247 33.8699C84.617 33.9061 84.9793 34.0436 85.2477 34.2581C85.5162 34.4726 85.6735 34.7502 85.6918 35.0421C85.7102 35.3339 85.5884 35.6212 85.3481 35.8531C85.1077 36.0851 84.7642 36.2468 84.3782 36.3098C83.969 35.9831 83.7632 35.7698 83.5866 35.6069C83.4804 35.5262 83.3804 35.4412 83.287 35.3522C83.2627 35.3252 83.3419 35.2784 83.3102 35.1083C83.2291 34.8279 83.0851 34.5596 82.884 34.3145ZM71.9763 37.271C72.5 37.1063 72.7715 36.9875 73.0151 36.9047C73.188 36.8327 73.3842 36.797 73.5826 36.8012C73.7906 36.8226 73.9874 36.8837 74.1537 36.9785C74.4827 37.1463 74.7916 37.3348 75.0768 37.5419C75.0465 37.7068 74.9725 37.8657 74.859 38.0095C74.7456 38.1533 74.5948 38.2791 74.4155 38.3798C74.1112 38.5426 73.7376 38.6187 73.3634 38.594C72.9758 38.5654 72.6151 38.4344 72.3477 38.225C72.1868 38.0997 72.069 37.9476 72.0043 37.7815C71.9397 37.6155 71.9301 37.4404 71.9763 37.271ZM67.2757 27.5699C67.6961 27.653 68.1067 27.7613 68.5032 27.8939C68.7335 27.9668 68.9455 28.0678 69.1304 28.1927C69.2771 28.304 69.3893 28.4376 69.4592 28.5842C69.626 28.8591 69.8326 29.1198 70.0754 29.3618C69.9378 29.5313 69.7411 29.6703 69.5058 29.7642C69.2706 29.8581 69.0054 29.9034 68.7383 29.8955C68.2643 29.8826 67.8123 29.7442 67.4651 29.5054C67.1179 29.2666 66.8985 28.9435 66.847 28.595C66.8225 28.4115 66.8478 28.2262 66.9214 28.05C66.995 27.8739 67.1154 27.7103 67.2757 27.569V27.5699ZM80.877 29.3636C81.0851 29.2845 81.3173 29.2465 81.5511 29.2531C81.7849 29.2597 82.0125 29.3108 82.2117 29.4014C82.3929 29.4865 82.5474 29.5991 82.665 29.7318C82.7826 29.8645 82.8605 30.0142 82.8937 30.1709C82.9315 30.3252 82.9244 30.4837 82.8727 30.6358C82.821 30.7879 82.7261 30.9301 82.5941 31.0529C82.4461 31.1826 82.2585 31.2845 82.0468 31.3502C81.8351 31.4159 81.6053 31.4436 81.3763 31.4309C81.0488 31.0781 80.8844 30.8792 80.7285 30.7352C80.597 30.593 80.4959 30.5336 80.4923 30.4679C80.4764 30.3383 80.6883 30.1637 80.877 29.3636ZM63.475 37.4888C63.8439 37.594 64.2229 37.6788 64.6088 37.7426C64.8523 37.7786 64.9376 37.7255 64.9156 37.7174C64.8962 37.7048 64.8986 37.7912 65.1129 37.8884C65.326 37.9964 65.6487 38.0945 66.1748 38.306C66.1868 38.4883 66.1394 38.6701 66.0366 38.8361C65.9339 39.0021 65.7787 39.1475 65.5842 39.26C65.3548 39.3755 65.0903 39.4473 64.8142 39.4691C64.5382 39.4909 64.2591 39.4621 64.0018 39.385C63.7445 39.308 63.5169 39.1853 63.3392 39.0277C63.1614 38.87 63.0391 38.6824 62.983 38.4815C62.9434 38.2987 62.9678 38.1115 63.0539 37.9378C63.1401 37.764 63.2851 37.6094 63.475 37.4888ZM71.4758 32.1338C71.768 31.9911 72.094 31.8904 72.4366 31.8368C72.5189 31.8208 72.6051 31.819 72.6885 31.8315C72.7719 31.844 72.8503 31.8704 72.9177 31.9088C72.9739 31.9561 73.0142 32.0125 73.0353 32.0735C73.0565 32.1345 73.0579 32.1983 73.0394 32.2598C73.0495 32.3924 73.0225 32.5252 72.9602 32.6498C72.8978 32.7744 72.8014 32.8881 72.677 32.984C72.5527 33.0799 72.4029 33.1559 72.2371 33.2072C72.0713 33.2585 71.893 33.284 71.7133 33.2822C71.6311 33.2986 71.5448 33.3005 71.4615 33.2877C71.3781 33.2748 71.3 33.2477 71.2335 33.2084C71.1785 33.1602 71.1393 33.1033 71.1188 33.0422C71.0983 32.981 71.0972 32.9172 71.1154 32.8556C71.1732 32.6004 71.2955 32.3556 71.4758 32.1338ZM79.6873 25.4441C80.0221 25.4256 80.3588 25.4447 80.6859 25.5008C80.8844 25.5431 80.9903 25.6025 81.0147 25.6763C81.0415 25.7501 80.9842 25.8383 80.8356 25.9436C80.6116 26.1363 80.3114 26.2721 79.9773 26.3319C79.6432 26.3916 79.2921 26.3723 78.9737 26.2766C78.7764 26.2325 78.6704 26.1731 78.6485 26.0993C78.6254 26.0255 78.6826 25.9373 78.8312 25.832C79.0884 25.6717 79.3771 25.5404 79.6873 25.4441ZM89.3893 31.4318C89.7245 31.413 90.0616 31.4318 90.3891 31.4876C90.5876 31.5308 90.6923 31.5902 90.7179 31.664C90.7435 31.7369 90.6875 31.826 90.5377 31.9304C90.3138 32.1232 90.0135 32.2591 89.6794 32.3189C89.3452 32.3786 88.9941 32.3592 88.6757 32.2634C88.4784 32.2202 88.3737 32.1608 88.3505 32.0861C88.3286 32.0123 88.3847 31.9241 88.5332 31.8188C88.7905 31.6585 89.0791 31.528 89.3893 31.4318ZM73.9162 26.2919C74.2514 26.2734 74.5886 26.2925 74.916 26.3486C75.1145 26.3909 75.2205 26.4503 75.2448 26.5241C75.2704 26.5979 75.2144 26.6861 75.0646 26.7914C74.8408 26.984 74.5407 27.1198 74.2068 27.1795C73.873 27.2393 73.5221 27.22 73.2038 27.1244C73.0053 27.0803 72.8994 27.0209 72.8787 26.9471C72.8543 26.8733 72.9116 26.7851 73.0614 26.6798C73.3182 26.5196 73.6064 26.3891 73.9162 26.2928V26.2919ZM45.6187 17.1236C45.3517 17.1065 45.0941 17.0425 44.8672 16.937C44.6404 16.8315 44.4509 16.6875 44.3145 16.517C44.1804 16.3467 44.0939 16.1583 44.06 15.963C44.0262 15.7676 44.0456 15.5691 44.1172 15.3794C44.1929 15.1655 44.3343 14.9674 44.5302 14.8004C44.7262 14.6334 44.9716 14.502 45.2473 14.4164C45.5141 14.3337 45.8094 14.3151 46.0913 14.3633C46.3732 14.4114 46.6275 14.5238 46.8183 14.6846C46.6004 14.9351 46.4729 15.2226 46.448 15.5198C46.4639 15.6872 46.5089 15.7556 46.4639 15.8564C46.3903 16 46.2998 16.1385 46.1935 16.2704C46.0474 16.4666 45.8879 16.7123 45.6187 17.1236ZM66.2284 18.0848C66.3711 17.924 66.573 17.7967 66.8103 17.7179C67.0477 17.6391 67.3106 17.6121 67.568 17.6402C67.9602 17.6764 68.3225 17.8139 68.591 18.0284C68.8594 18.2429 69.0167 18.5205 69.035 18.8124C69.0534 19.1042 68.9316 19.3915 68.6913 19.6234C68.4509 19.8554 68.1074 20.0171 67.7214 20.0801C67.3122 19.7543 67.1076 19.5401 66.9298 19.3772C66.8236 19.2965 66.7236 19.2115 66.6303 19.1225C66.6059 19.0955 66.6851 19.0487 66.6546 18.8786C66.5736 18.5982 66.4295 18.3299 66.2284 18.0848ZM55.3195 21.0413C55.8444 20.8766 56.116 20.7578 56.3583 20.675C56.5312 20.603 56.7274 20.5673 56.9258 20.5715C57.1342 20.5928 57.3315 20.6539 57.4982 20.7488C57.8268 20.9167 58.1352 21.1052 58.42 21.3122C58.3899 21.4771 58.3161 21.6359 58.2028 21.7797C58.0896 21.9234 57.9391 22.0493 57.76 22.1501C57.4554 22.3132 57.0812 22.3893 56.7066 22.3643C56.319 22.3357 55.9583 22.2047 55.691 21.9953C55.53 21.87 55.4122 21.7179 55.3476 21.5518C55.2829 21.3858 55.2733 21.2107 55.3195 21.0413ZM50.6189 11.3402C51.0394 11.4233 51.4499 11.5317 51.8465 11.6642C52.0767 11.7371 52.2887 11.8381 52.4736 11.963C52.6203 12.0743 52.7326 12.2079 52.8024 12.3545C52.9696 12.6294 53.1766 12.8901 53.4198 13.1321C53.2823 13.3016 53.0856 13.4406 52.8503 13.5345C52.615 13.6284 52.3499 13.6737 52.0827 13.6658C51.6087 13.653 51.1568 13.5145 50.8096 13.2757C50.4623 13.0369 50.2429 12.7138 50.1915 12.3653C50.1668 12.1819 50.1919 11.9966 50.2653 11.8205C50.3387 11.6443 50.4589 11.4807 50.6189 11.3393V11.3402ZM64.2203 13.1339C64.4285 13.0547 64.6609 13.0165 64.895 13.0231C65.129 13.0297 65.3568 13.0809 65.5562 13.1717C65.7373 13.2568 65.8918 13.3694 66.0094 13.5021C66.127 13.6348 66.205 13.7845 66.2381 13.9412C66.276 14.0955 66.2689 14.254 66.2173 14.4061C66.1656 14.5582 66.0706 14.7004 65.9386 14.8232C65.7905 14.9529 65.6029 15.0548 65.3912 15.1205C65.1795 15.1862 64.9498 15.2139 64.7208 15.2012C64.392 14.8484 64.2288 14.6495 64.0717 14.5055C63.9414 14.3633 63.8404 14.3039 63.8355 14.2382C63.8209 14.1086 64.0328 13.934 64.2203 13.1339ZM46.8183 21.2591C47.1872 21.3643 47.5661 21.4491 47.952 21.5129C48.1956 21.5489 48.2808 21.4958 48.2589 21.4877C48.2406 21.4751 48.2431 21.5615 48.4562 21.6587C48.6705 21.7667 48.992 21.8648 49.5193 22.0763C49.5311 22.2587 49.4835 22.4406 49.3805 22.6066C49.2776 22.7726 49.1222 22.9179 48.9274 23.0303C48.6979 23.1456 48.4334 23.2172 48.1575 23.2389C47.8815 23.2606 47.6026 23.2317 47.3454 23.1547C47.0882 23.0777 46.8606 22.955 46.6829 22.7976C46.5051 22.6401 46.3826 22.4526 46.3263 22.2518C46.2866 22.069 46.311 21.8818 46.3972 21.708C46.4833 21.5343 46.6283 21.3797 46.8183 21.2591ZM54.8191 15.9032C55.1114 15.7608 55.4373 15.6604 55.7799 15.6071C55.8624 15.591 55.9487 15.5891 56.0323 15.6016C56.116 15.614 56.1946 15.6406 56.2621 15.6791C56.3181 15.7265 56.3582 15.783 56.3792 15.8439C56.4001 15.9049 56.4013 15.9687 56.3827 16.0301C56.3927 16.1627 56.3657 16.2955 56.3034 16.4201C56.241 16.5447 56.1447 16.6584 56.0203 16.7543C55.8959 16.8502 55.7462 16.9262 55.5804 16.9775C55.4146 17.0288 55.2362 17.0543 55.0565 17.0525C54.9745 17.0688 54.8884 17.0706 54.8053 17.0577C54.7222 17.0449 54.6443 17.0179 54.5779 16.9787C54.523 16.9305 54.4838 16.8736 54.4633 16.8124C54.4428 16.7513 54.4416 16.6875 54.4598 16.6259C54.5173 16.3708 54.6392 16.1259 54.8191 15.9041V15.9032ZM63.0305 9.21439C63.3657 9.19582 63.7029 9.21496 64.0303 9.2711C64.2288 9.3134 64.3335 9.37278 64.3591 9.44658C64.3847 9.52038 64.3287 9.60858 64.1789 9.71388C63.9549 9.90657 63.6546 10.0424 63.3205 10.1021C62.9864 10.1619 62.6353 10.1426 62.3169 10.0469C62.1196 10.0028 62.0149 9.94338 61.9918 9.86958C61.9698 9.79578 62.0258 9.70759 62.1744 9.60229C62.4317 9.44207 62.7203 9.3116 63.0305 9.21529V9.21439ZM72.7326 15.2012C73.0682 15.1826 73.4057 15.2017 73.7336 15.2579C73.9308 15.3011 74.0356 15.3605 74.0624 15.4343C74.0867 15.5072 74.0307 15.5963 73.8809 15.7007C73.6571 15.8933 73.357 16.0291 73.0231 16.0888C72.6893 16.1486 72.3384 16.1293 72.0202 16.0337C71.8217 15.9905 71.7169 15.9311 71.695 15.8564C71.6719 15.7826 71.7291 15.6944 71.8777 15.5891C72.1346 15.4289 72.4228 15.2985 72.7326 15.2021V15.2012ZM57.2607 10.0622C57.5955 10.0438 57.9322 10.0629 58.2593 10.1189C58.4578 10.1612 58.5637 10.2206 58.5881 10.2944C58.6149 10.3682 58.5576 10.4564 58.4091 10.5617C58.1852 10.7545 57.8849 10.8904 57.5507 10.9501C57.2166 11.0099 56.8655 10.9905 56.5471 10.8947C56.3498 10.8506 56.2438 10.7912 56.2219 10.7174C56.1988 10.6427 56.256 10.5554 56.4046 10.4501C56.6619 10.2899 56.9505 10.1585 57.2607 10.0622ZM25.4048 32.9672C25.1379 32.9498 24.8805 32.8856 24.6539 32.7799C24.4273 32.6743 24.2381 32.5302 24.1018 32.3597C23.968 32.1895 23.8816 32.0013 23.8477 31.8061C23.8138 31.6109 23.8331 31.4126 23.9045 31.223C23.9803 31.0091 24.1216 30.811 24.3176 30.644C24.5135 30.477 24.7589 30.3456 25.0346 30.26C25.3015 30.1775 25.5967 30.1589 25.8786 30.2071C26.1604 30.2552 26.4147 30.3675 26.6056 30.5282C26.3878 30.7787 26.2603 31.0662 26.2354 31.3634C26.2512 31.5299 26.2963 31.5992 26.2524 31.7C26.1784 31.8436 26.0875 31.9821 25.9809 32.114C25.8347 32.3102 25.6752 32.5559 25.4061 32.9672H25.4048ZM46.0157 33.9284C46.1584 33.7676 46.3603 33.6403 46.5977 33.5615C46.835 33.4827 47.0979 33.4558 47.3553 33.4838C47.7476 33.52 48.1099 33.6575 48.3783 33.872C48.6467 34.0865 48.804 34.3641 48.8224 34.656C48.8407 34.9478 48.719 35.2351 48.4786 35.467C48.2383 35.699 47.8947 35.8607 47.5087 35.9237C47.0995 35.597 46.895 35.3837 46.7172 35.2208C46.6108 35.1402 46.5108 35.0551 46.4176 34.9661C46.3932 34.9391 46.4724 34.8923 46.442 34.7222C46.361 34.4418 46.2169 34.1735 46.0157 33.9284ZM35.1069 36.8849C35.6317 36.7202 35.9033 36.6014 36.1456 36.5186C36.3186 36.4466 36.5148 36.4108 36.7131 36.4151C36.9215 36.4364 37.1188 36.4975 37.2855 36.5924C37.6141 36.7603 37.9225 36.9488 38.2073 37.1558C38.1772 37.3207 38.1034 37.4795 37.9901 37.6233C37.8769 37.767 37.7264 37.8929 37.5473 37.9937C37.2427 38.1568 36.8686 38.2329 36.4939 38.2079C36.1063 38.1793 35.7457 38.0483 35.4783 37.8389C35.3173 37.7136 35.1996 37.5615 35.1349 37.3954C35.0703 37.2294 35.0606 37.0543 35.1069 36.8849ZM30.4062 27.1829C30.8271 27.266 31.238 27.3743 31.635 27.5069C31.8648 27.5802 32.0764 27.6815 32.2609 27.8066C32.4076 27.9179 32.5198 28.0515 32.5898 28.1981C32.757 28.473 32.964 28.7337 33.2072 28.9757C33.0696 29.1452 32.8729 29.2842 32.6376 29.3781C32.4023 29.472 32.1372 29.5173 31.87 29.5094C31.3961 29.4966 30.9441 29.3581 30.5969 29.1193C30.2496 28.8805 30.0303 28.5574 29.9788 28.2089C29.9541 28.0255 29.9792 27.8402 30.0526 27.664C30.126 27.4879 30.2462 27.3243 30.4062 27.1829ZM44.0076 28.9775C44.2158 28.8983 44.4482 28.8601 44.6823 28.8667C44.9163 28.8734 45.1441 28.9245 45.3435 29.0153C45.5247 29.1004 45.6792 29.213 45.7968 29.3457C45.9144 29.4784 45.9923 29.6281 46.0255 29.7848C46.0633 29.9391 46.0561 30.0976 46.0044 30.2497C45.9528 30.4018 45.8578 30.544 45.7259 30.6668C45.5778 30.7965 45.3903 30.8984 45.1786 30.9641C44.9669 31.0298 44.7371 31.0575 44.5081 31.0448C44.1793 30.692 44.0162 30.4931 43.8591 30.3491C43.7288 30.2069 43.6277 30.1475 43.6228 30.0818C43.6082 29.9522 43.8201 29.7776 44.0076 28.9775ZM26.6056 37.1027C26.9745 37.2079 27.3535 37.2927 27.7393 37.3565C27.9829 37.3925 28.0681 37.3394 28.0462 37.3313C28.0279 37.3187 28.0304 37.4051 28.2435 37.5023C28.4578 37.6103 28.7793 37.7084 29.3066 37.919C29.3188 38.1017 29.2714 38.2839 29.1684 38.4502C29.0654 38.6166 28.9099 38.7622 28.7148 38.8748C28.4851 38.99 28.2206 39.0617 27.9446 39.0833C27.6685 39.1049 27.3895 39.0759 27.1323 38.9989C26.8751 38.9218 26.6475 38.799 26.4698 38.6414C26.2921 38.4838 26.1698 38.2963 26.1136 38.0954C26.0739 37.9126 26.0984 37.7254 26.1845 37.5516C26.2706 37.3779 26.4156 37.2233 26.6056 37.1027ZM34.6076 31.7477C34.8994 31.6051 35.225 31.5043 35.5672 31.4507C35.6497 31.4346 35.7361 31.4327 35.8197 31.4452C35.9033 31.4577 35.9819 31.4842 36.0494 31.5227C36.1054 31.5701 36.1455 31.6266 36.1665 31.6876C36.1874 31.7485 36.1886 31.8123 36.17 31.8737C36.1798 32.0062 36.1528 32.1388 36.0905 32.2633C36.0281 32.3878 35.9319 32.5015 35.8076 32.5973C35.6834 32.6932 35.5339 32.7692 35.3683 32.8205C35.2027 32.8719 35.0246 32.8977 34.8451 32.8961C34.7629 32.9125 34.6766 32.9144 34.5932 32.9016C34.5098 32.8888 34.4318 32.8616 34.3652 32.8223C34.3103 32.7741 34.2711 32.7172 34.2506 32.6561C34.2301 32.5949 34.2289 32.5311 34.2471 32.4695C34.3049 32.2143 34.4272 31.9694 34.6076 31.7477ZM42.8191 25.058C43.1539 25.0395 43.4905 25.0586 43.8176 25.1147C44.0161 25.157 44.1209 25.2164 44.1465 25.2902C44.172 25.364 44.116 25.4522 43.9662 25.5575C43.7423 25.7503 43.4421 25.8862 43.1079 25.946C42.7738 26.0057 42.4226 25.9863 42.1042 25.8905C41.907 25.8464 41.8022 25.787 41.7791 25.7132C41.7572 25.6385 41.8132 25.5512 41.963 25.4459C42.2199 25.2857 42.5081 25.1552 42.8179 25.0589L42.8191 25.058ZM52.5199 31.0457C52.8555 31.0268 53.193 31.0456 53.5209 31.1015C53.7182 31.1447 53.8229 31.2041 53.8497 31.277C53.874 31.3508 53.818 31.439 53.6683 31.5443C53.4443 31.7368 53.1443 31.8725 52.8104 31.9322C52.4766 31.992 52.1258 31.9728 51.8075 31.8773C51.6102 31.8341 51.5042 31.7747 51.4823 31.7C51.4592 31.6262 51.5164 31.538 51.665 31.4327C51.9219 31.2725 52.2101 31.1421 52.5199 31.0457ZM37.0468 25.9058C37.3824 25.8869 37.7199 25.9057 38.0478 25.9616C38.2451 26.0048 38.3498 26.0642 38.3766 26.138C38.401 26.2118 38.3449 26.3 38.1964 26.4053C37.9725 26.5981 37.6722 26.734 37.3381 26.7937C37.0039 26.8535 36.6528 26.8341 36.3344 26.7383C36.1371 26.6942 36.0312 26.6348 36.0093 26.561C35.9861 26.4863 36.0433 26.399 36.1919 26.2937C36.4491 26.1334 36.7378 26.0029 37.048 25.9067L37.0468 25.9058ZM90.7618 26.8229C90.4947 26.8058 90.2371 26.7418 90.0103 26.6363C89.7834 26.5308 89.5939 26.3868 89.4575 26.2163C89.3235 26.046 89.2369 25.8576 89.203 25.6622C89.1692 25.4669 89.1886 25.2684 89.2602 25.0787C89.336 24.8648 89.4773 24.6667 89.6733 24.4997C89.8692 24.3328 90.1146 24.2013 90.3903 24.1157C90.6572 24.0332 90.9524 24.0146 91.2343 24.0628C91.5161 24.1109 91.7704 24.2232 91.9613 24.3839C91.7434 24.6344 91.616 24.9219 91.5911 25.2191C91.6069 25.3856 91.6519 25.4549 91.6069 25.5557C91.5333 25.6993 91.4429 25.8378 91.3366 25.9697C91.1904 26.1659 91.0309 26.4116 90.7618 26.8229ZM111.611 50.5685C111.6 50.7607 111.514 50.9464 111.364 51.1036C111.214 51.2609 111.006 51.3831 110.765 51.4559C110.402 51.5729 109.995 51.5913 109.616 51.5079C109.236 51.4244 108.909 51.2444 108.692 50.9998C108.475 50.7552 108.382 50.4617 108.429 50.1713C108.477 49.8809 108.662 49.6122 108.952 49.4129C109.529 49.5407 109.853 49.6469 110.117 49.7207C110.264 49.75 110.409 49.7855 110.551 49.8269C110.591 49.8413 110.554 49.9115 110.699 50.0456C110.962 50.2564 111.271 50.4332 111.613 50.5685H111.611ZM107.371 44.075C107.579 43.9959 107.811 43.9579 108.045 43.9645C108.279 43.9711 108.506 44.0222 108.706 44.1128C108.887 44.1979 109.041 44.3105 109.159 44.4432C109.277 44.5759 109.355 44.7256 109.388 44.8823C109.425 45.0366 109.418 45.1951 109.367 45.3472C109.315 45.4993 109.22 45.6415 109.088 45.7643C108.94 45.894 108.753 45.996 108.541 46.0617C108.329 46.1274 108.099 46.155 107.87 46.1423C107.543 45.7895 107.378 45.5906 107.221 45.4457C107.091 45.3035 106.99 45.2441 106.985 45.1793C106.97 45.0488 107.182 44.8751 107.371 44.075ZM91.9613 30.9584C92.3302 31.0636 92.7092 31.1484 93.095 31.2122C93.3386 31.2482 93.4238 31.1951 93.4019 31.187C93.3836 31.1744 93.3849 31.2608 93.5992 31.358C93.8135 31.466 94.135 31.5641 94.6623 31.7756C94.6741 31.958 94.6266 32.1399 94.5236 32.3059C94.4206 32.4719 94.2652 32.6172 94.0705 32.7296C93.8409 32.8448 93.5765 32.9165 93.3005 32.9382C93.0246 32.9599 92.7456 32.931 92.4884 32.854C92.2312 32.777 92.0037 32.6544 91.8259 32.4969C91.6481 32.3394 91.5256 32.1519 91.4693 31.9511C91.4296 31.7683 91.4541 31.5811 91.5402 31.4073C91.6263 31.2336 91.7713 31.079 91.9613 30.9584ZM106.18 40.1555C106.515 40.1367 106.852 40.1555 107.18 40.2113C107.378 40.2545 107.484 40.3139 107.509 40.3877C107.535 40.4606 107.478 40.5497 107.328 40.6541C107.105 40.8467 106.805 40.9825 106.471 41.0422C106.137 41.102 105.786 41.0827 105.468 40.9871C105.269 40.9439 105.163 40.8845 105.142 40.8098C105.118 40.736 105.175 40.6478 105.325 40.5425C105.582 40.3823 105.87 40.2518 106.18 40.1555ZM107.647 52.6088C107.983 52.5902 108.32 52.6093 108.647 52.6655C108.846 52.7078 108.95 52.7672 108.976 52.841C109.002 52.9148 108.946 53.003 108.796 53.1083C108.572 53.3011 108.272 53.437 107.938 53.4968C107.603 53.5565 107.252 53.5371 106.934 53.4413C106.737 53.3972 106.632 53.3378 106.609 53.264C106.587 53.1893 106.643 53.102 106.791 52.9967C107.049 52.8365 107.337 52.706 107.647 52.6097V52.6088ZM100.41 41.0033C100.745 40.9844 101.082 41.0032 101.41 41.0591C101.607 41.1023 101.713 41.1617 101.739 41.2355C101.764 41.3084 101.707 41.3975 101.559 41.5019C101.335 41.6947 101.034 41.8306 100.7 41.8904C100.366 41.9501 100.015 41.9307 99.6966 41.8349C99.4993 41.7917 99.3934 41.7323 99.3715 41.6576C99.3483 41.5838 99.4055 41.4956 99.5541 41.3903C99.8114 41.2301 100.1 41.0996 100.41 41.0033ZM87.794 23.357C88.1292 23.3382 88.4663 23.357 88.7938 23.4128C88.9923 23.456 89.097 23.5154 89.1226 23.5892C89.1482 23.6621 89.0922 23.7512 88.9424 23.8556C88.7185 24.0484 88.4182 24.1843 88.0841 24.244C87.7499 24.3038 87.3988 24.2844 87.0804 24.1886C86.8831 24.1454 86.7784 24.086 86.7553 24.0113C86.7333 23.9375 86.7894 23.8493 86.938 23.744C87.1952 23.5837 87.4838 23.4533 87.794 23.357Z" fill="#EA7706"/>
<path d="M57.4023 6.80984C57.5159 5.89762 54.9519 4.97752 51.6756 4.75473C48.3993 4.53194 45.6512 5.09082 45.5377 6.00305C45.4241 6.91527 47.988 7.83539 51.2643 8.05818C54.5407 8.28098 57.2887 7.72207 57.4023 6.80984Z" fill="#13A497"/>
<path d="M59.6397 5.30735C60.8354 3.04199 60.8685 0.935691 59.7137 0.602792C58.5589 0.269892 56.6535 1.83646 55.4579 4.10182C54.2622 6.36718 54.2291 8.47349 55.3839 8.80639C56.5387 9.13929 58.4441 7.57271 59.6397 5.30735Z" fill="#E6560F"/>
<path d="M37.1983 22.8073C38.3939 20.542 38.427 18.4357 37.2723 18.1028C36.1175 17.7699 34.2121 19.3365 33.0165 21.6018C31.8208 23.8672 31.7877 25.9735 32.9425 26.3064C34.0973 26.6393 36.0026 25.0727 37.1983 22.8073Z" fill="#E6560F"/>
<path d="M101.433 36.282C102.628 34.0166 102.661 31.9103 101.507 31.5774C100.352 31.2445 98.4465 32.8111 97.2508 35.0764C96.0552 37.3418 96.0221 39.4481 97.1768 39.781C98.3316 40.1139 100.237 38.5473 101.433 36.282Z" fill="#E6560F"/>
<path d="M79.4609 22.2298C79.5744 21.3175 77.0105 20.3974 73.7342 20.1747C70.4579 19.9519 67.7098 20.5107 67.5963 21.423C67.4827 22.3352 70.0466 23.2553 73.3229 23.4781C76.5993 23.7009 79.3473 23.142 79.4609 22.2298Z" fill="#13A497"/>
<path d="M54.8417 41.0032C54.9553 40.091 52.3914 39.1709 49.1151 38.9481C45.8387 38.7253 43.0907 39.2842 42.9771 40.1964C42.8635 41.1087 45.4275 42.0288 48.7038 42.2515C51.9801 42.4743 54.7282 41.9155 54.8417 41.0032Z" fill="#E6560F"/>
<path d="M30.1445 40.2239C30.258 39.3117 27.6941 38.3916 24.4178 38.1688C21.1415 37.946 18.3934 38.5049 18.2799 39.4171C18.1663 40.3293 20.7302 41.2495 24.0065 41.4722C27.2829 41.695 30.0309 41.1361 30.1445 40.2239Z" fill="#13A497"/>
<path d="M72.2129 59.0036C72.5399 58.081 72.4338 57.1038 71.9121 56.2316C71.2423 55.1228 70.0562 54.8726 69.3621 54.2363C68.4147 53.366 68.0469 51.5525 70.8624 47.3621C70.8624 47.3621 73.6182 43.2221 77.7635 41.486C80.2841 40.433 83.1203 39.8613 86.0152 39.8228C88.54 39.8324 91.0377 40.2091 93.3657 40.9316C95.5042 41.4154 97.4923 42.2067 99.2159 43.2599C100.799 44.2721 102.076 45.5185 102.967 46.9184C104.844 49.9082 104.211 53.9564 103.92 55.0454" fill="#F29E41"/>
<path d="M74.3249 49.3404C74.0579 49.3233 73.8002 49.2593 73.5734 49.1538C73.3465 49.0483 73.157 48.9043 73.0206 48.7338C72.8866 48.5635 72.8001 48.3751 72.7662 48.1797C72.7323 47.9843 72.7518 47.7859 72.8234 47.5962C72.8991 47.3823 73.0404 47.1842 73.2364 47.0172C73.4324 46.8502 73.6777 46.7188 73.9535 46.6332C74.2203 46.5507 74.5155 46.5321 74.7974 46.5803C75.0793 46.6284 75.3335 46.7407 75.5244 46.9014C75.3065 47.1519 75.1791 47.4394 75.1542 47.7366C75.17 47.904 75.2151 47.9724 75.17 48.0732C75.0965 48.2168 75.006 48.3553 74.8997 48.4872C74.7535 48.6834 74.5928 48.9291 74.3249 49.3404ZM94.9346 50.3016C95.0772 50.1408 95.2791 50.0135 95.5165 49.9347C95.7538 49.8559 96.0167 49.8289 96.2741 49.857C96.6664 49.8932 97.0287 50.0307 97.2971 50.2452C97.5656 50.4597 97.7228 50.7373 97.7412 51.0292C97.7595 51.321 97.6378 51.6083 97.3975 51.8402C97.1571 52.0722 96.8136 52.2339 96.4276 52.2969C96.0184 51.9711 95.8138 51.7569 95.636 51.5949C95.5296 51.514 95.4296 51.4286 95.3364 51.3393C95.3121 51.3123 95.3912 51.2655 95.3608 51.0954C95.2797 50.815 95.1357 50.5467 94.9346 50.3016ZM84.0257 53.2581C84.5506 53.0934 84.8221 52.9746 85.0645 52.8918C85.2375 52.8199 85.4336 52.7841 85.632 52.7883C85.8404 52.8095 86.0377 52.8706 86.2043 52.9656C86.533 53.1334 86.8414 53.3219 87.1262 53.529C87.0962 53.694 87.0225 53.8531 86.9093 53.997C86.796 54.1409 86.6454 54.2669 86.4661 54.3678C86.1614 54.5305 85.7872 54.6063 85.4128 54.5811C85.0253 54.5527 84.6647 54.422 84.3971 54.213C84.236 54.0876 84.1181 53.9353 84.0534 53.7691C83.9888 53.6029 83.9793 53.4276 84.0257 53.2581ZM79.3251 43.557C79.7455 43.6401 80.156 43.7484 80.5526 43.881C80.7828 43.954 80.9948 44.055 81.1798 44.1798C81.3265 44.2911 81.4387 44.4247 81.5086 44.5713C81.6757 44.8462 81.8828 45.1069 82.126 45.3489C81.9885 45.5184 81.7917 45.6574 81.5565 45.7513C81.3212 45.8452 81.056 45.8905 80.7888 45.8826C80.3149 45.8697 79.863 45.7313 79.5157 45.4925C79.1685 45.2537 78.9491 44.9306 78.8977 44.5821C78.873 44.3987 78.8981 44.2134 78.9715 44.0373C79.0449 43.8611 79.1651 43.6975 79.3251 43.5561V43.557ZM92.9264 45.3516C93.1346 45.2722 93.3669 45.2339 93.601 45.2404C93.835 45.2468 94.0628 45.2979 94.2624 45.3885C94.4436 45.4737 94.5982 45.5864 94.7158 45.7193C94.8334 45.8521 94.9113 46.002 94.9443 46.1589C94.982 46.313 94.9747 46.4714 94.923 46.6233C94.8714 46.7752 94.7765 46.9173 94.6447 47.04C94.4967 47.1697 94.3091 47.2717 94.0974 47.3374C93.8857 47.4031 93.6559 47.4307 93.427 47.418C93.0982 47.0661 92.935 46.8663 92.7779 46.7223C92.6476 46.5801 92.5465 46.5207 92.5416 46.455C92.5258 46.3254 92.7389 46.1508 92.9264 45.3516ZM75.5244 53.4768C75.8933 53.582 76.2723 53.6668 76.6581 53.7306C76.9017 53.7666 76.987 53.7126 76.965 53.7036C76.9468 53.6919 76.948 53.7783 77.1623 53.8764C77.3766 53.9826 77.6981 54.0816 78.2254 54.2931C78.2373 54.4755 78.1897 54.6574 78.0867 54.8234C77.9837 54.9894 77.8284 55.1347 77.6336 55.2471C77.4042 55.3626 77.1397 55.4344 76.8636 55.4562C76.5876 55.478 76.3085 55.4491 76.0512 55.3721C75.7939 55.2951 75.5663 55.1724 75.3886 55.0147C75.2108 54.8571 75.0885 54.6695 75.0324 54.4686C74.993 54.286 75.0175 54.099 75.1037 53.9253C75.1898 53.7517 75.3346 53.5973 75.5244 53.4768ZM83.5252 48.1209C83.8174 47.9782 84.1434 47.8774 84.486 47.8239C84.5685 47.8078 84.6549 47.8059 84.7385 47.8184C84.8221 47.8308 84.9007 47.8574 84.9683 47.8959C85.0243 47.9433 85.0643 47.9997 85.0853 48.0607C85.1062 48.1217 85.1074 48.1855 85.0888 48.2469C85.0987 48.3795 85.0716 48.5122 85.0092 48.6367C84.9468 48.7612 84.8504 48.875 84.726 48.9708C84.6017 49.0667 84.452 49.1427 84.2863 49.194C84.1206 49.2453 83.9424 49.271 83.7627 49.2693C83.6805 49.2857 83.5942 49.2876 83.5108 49.2748C83.4275 49.2619 83.3494 49.2348 83.2829 49.1955C83.2281 49.1472 83.1891 49.0903 83.1689 49.0291C83.1486 48.968 83.1476 48.9042 83.166 48.8427C83.2234 48.5876 83.3453 48.3427 83.5252 48.1209ZM91.7367 41.4312C92.0719 41.4126 92.409 41.4317 92.7365 41.4879C92.935 41.5302 93.0397 41.5905 93.0653 41.6634C93.0909 41.7372 93.0336 41.8254 92.885 41.9307C92.6611 42.1235 92.3609 42.2594 92.0267 42.3191C91.6926 42.3789 91.3415 42.3595 91.0231 42.2637C90.8258 42.2205 90.7211 42.1611 90.6979 42.0864C90.676 42.0126 90.732 41.9244 90.8806 41.8191C91.1378 41.6588 91.4265 41.5283 91.7367 41.4321V41.4312ZM101.439 47.4189C101.774 47.3999 102.112 47.4187 102.44 47.4747C102.637 47.5179 102.742 47.5773 102.769 47.6511C102.793 47.724 102.737 47.8131 102.587 47.9175C102.363 48.1101 102.063 48.2459 101.729 48.3056C101.395 48.3654 101.045 48.3461 100.726 48.2505C100.528 48.2073 100.422 48.1479 100.401 48.0732C100.377 47.9994 100.434 47.9112 100.584 47.8059C100.841 47.6457 101.129 47.5153 101.439 47.4189ZM85.9669 42.279C86.3017 42.2605 86.6384 42.2796 86.9654 42.3357C87.1639 42.378 87.2699 42.4374 87.2942 42.5112C87.321 42.585 87.2638 42.6732 87.114 42.7785C86.8901 42.971 86.59 43.1067 86.2562 43.1664C85.9223 43.2262 85.5715 43.207 85.2532 43.1115C85.056 43.0683 84.95 43.0089 84.9281 42.9342C84.905 42.8604 84.9622 42.7722 85.1108 42.6669C85.3676 42.5067 85.6559 42.3763 85.9656 42.2799L85.9669 42.279Z" fill="#EA7706"/>
<path d="M95.3222 41.0032C95.4358 40.091 92.8719 39.1709 89.5955 38.9481C86.3192 38.7253 83.5712 39.2842 83.4576 40.1964C83.344 41.1086 85.9079 42.0288 89.1843 42.2515C92.4606 42.4743 95.2086 41.9154 95.3222 41.0032Z" fill="#13A497"/>
<path d="M0 46.4224H119.978V54.3729C119.978 63.4338 115.108 72.1236 106.438 78.5306C97.7692 84.9376 86.0112 88.537 73.7511 88.537H46.2269C33.9667 88.537 22.2087 84.9376 13.5395 78.5306C4.87031 72.1236 0 63.4338 0 54.3729V46.4224Z" fill="#78C1D0"/>
<path d="M0.371094 52.7915H119.568V55.4915H0.371094V52.7915Z" fill="#E6560F"/>
</svg>
