<svg width="37" height="36" viewBox="0 0 37 36" fill="none" xmlns="http://www.w3.org/2000/svg">
<g clip-path="url(#clip0_526_9383)">
<path d="M10.9629 12.4492H14.1879V29.1742H10.9629V12.4492Z" fill="#FFD166"/>
<path d="M10.9629 24.0742C11.2629 24.2242 11.5629 24.2992 11.9379 24.2992C12.8379 24.2992 13.6629 23.6992 14.0379 22.9492C14.1129 22.9492 14.1879 22.9492 14.1879 23.0242V12.4492H10.9629V24.0742Z" fill="#B89558"/>
<path d="M10.9629 12.4492H14.1879V29.1742H10.9629V12.4492Z" stroke="#45413C" stroke-miterlimit="10" stroke-linecap="round" stroke-linejoin="round"/>
<path d="M12.5379 5.09961C8.41289 5.09961 5.03789 8.32461 4.73789 12.3746C2.86289 13.1246 1.58789 14.9246 1.58789 17.0246C1.58789 19.7996 3.83789 21.9746 6.53789 21.9746C7.96289 21.9746 9.23789 21.3746 10.1379 20.3996C10.8879 20.6246 11.7129 20.7746 12.5379 20.7746C16.8879 20.7746 20.3379 17.2496 20.3379 12.9746C20.3379 8.69961 16.8879 5.09961 12.5379 5.09961Z" fill="#FF7A5A"/>
<path d="M4.73789 14.4748C5.03789 10.4248 8.41289 7.1998 12.5379 7.1998C16.5129 7.1998 19.8129 10.1248 20.2629 14.0248C20.3379 13.6498 20.3379 13.3498 20.3379 12.9748C20.3379 8.6248 16.8129 5.1748 12.5379 5.1748C8.41289 5.1748 5.03789 8.39981 4.73789 12.4498C2.86289 13.1998 1.58789 14.9998 1.58789 17.0998C1.58789 17.4748 1.66289 17.8498 1.73789 18.1498C2.03789 16.4248 3.16289 15.0748 4.73789 14.4748Z" fill="#FF7A5A"/>
<path d="M12.5379 5.09961C8.41289 5.09961 5.03789 8.32461 4.73789 12.3746C2.86289 13.1246 1.58789 14.9246 1.58789 17.0246C1.58789 19.7996 3.83789 21.9746 6.53789 21.9746C7.96289 21.9746 9.23789 21.3746 10.1379 20.3996C10.8879 20.6246 11.7129 20.7746 12.5379 20.7746C16.8879 20.7746 20.3379 17.2496 20.3379 12.9746C20.3379 8.69961 16.8879 5.09961 12.5379 5.09961Z" stroke="#45413C" stroke-miterlimit="10" stroke-linecap="round" stroke-linejoin="round"/>
<path d="M12.5375 16.425L21.2375 11.325C21.6125 11.1 22.1375 11.1 22.5125 11.325L31.2875 16.425C31.8125 16.725 31.9625 17.325 31.7375 17.85C31.4375 18.45 30.7625 18.675 30.1625 18.3L21.9125 13.5L13.6625 18.3C13.0625 18.6 12.3875 18.375 12.0875 17.85C11.7875 17.325 12.0125 16.725 12.5375 16.425Z" fill="#262730"/>
<path d="M12.1634 18C12.2384 17.85 12.3884 17.775 12.5384 17.7L21.2384 12.6C21.6134 12.375 22.1384 12.375 22.5134 12.6L31.2884 17.7C31.4384 17.775 31.5884 17.925 31.6634 18C31.6634 17.925 31.7384 17.925 31.7384 17.85C31.9634 17.325 31.8134 16.725 31.2884 16.425L22.5134 11.325C22.1384 11.1 21.6134 11.1 21.2384 11.325L12.4634 16.425C11.9384 16.725 11.7884 17.325 12.0134 17.85C12.0884 17.925 12.0884 18 12.1634 18Z" fill="#FF7A5A"/>
<path d="M12.5375 16.425L21.2375 11.325C21.6125 11.1 22.1375 11.1 22.5125 11.325L31.2875 16.425C31.8125 16.725 31.9625 17.325 31.7375 17.85C31.4375 18.45 30.7625 18.675 30.1625 18.3L21.9125 13.5L13.6625 18.3C13.0625 18.6 12.3875 18.375 12.0875 17.85C11.7875 17.325 12.0125 16.725 12.5375 16.425Z" stroke="#45413C" stroke-miterlimit="10" stroke-linecap="round" stroke-linejoin="round"/>
<path opacity="0.15" d="M20.6387 30.8994C29.3372 30.8994 36.3887 30.3957 36.3887 29.7744C36.3887 29.1531 29.3372 28.6494 20.6387 28.6494C11.9402 28.6494 4.88867 29.1531 4.88867 29.7744C4.88867 30.3957 11.9402 30.8994 20.6387 30.8994Z" fill="#45413C"/>
<path d="M29.6375 29.175H14.1875V18L21.9125 13.5L29.6375 18V29.175Z" fill="#262730"/>
<path d="M21.9125 13.5L14.1875 18V19.8L21.9125 15.3L29.6375 19.8V18L21.9125 13.5Z" fill="#262730"/>
<path d="M29.6375 29.175H14.1875V18L21.9125 13.5L29.6375 18V29.175Z" stroke="#45413C" stroke-miterlimit="10" stroke-linecap="round" stroke-linejoin="round"/>
<path d="M22.8879 29.1744H15.4629V28.1994C15.4629 27.8244 15.7629 27.5244 16.1379 27.5244H22.2879C22.6629 27.5244 22.9629 27.8244 22.9629 28.1994V29.1744H22.8879Z" fill="#E0E0E0" stroke="#45413C" stroke-miterlimit="10" stroke-linecap="round" stroke-linejoin="round"/>
<path d="M21.3125 19.7998H17.1125C16.7375 19.7998 16.4375 20.0998 16.4375 20.4748V27.5248H21.9125V20.4748C21.9125 20.0998 21.6125 19.7998 21.3125 19.7998Z" fill="#BF8256"/>
<path d="M21.3125 19.7998H17.1125C16.7375 19.7998 16.4375 20.0998 16.4375 20.4748V21.7498C16.4375 21.3748 16.7375 21.0748 17.1125 21.0748H21.3125C21.6875 21.0748 21.9875 21.3748 21.9875 21.7498V20.4748C21.9125 20.0998 21.6125 19.7998 21.3125 19.7998Z" fill="#915E3A"/>
<path d="M21.3125 19.7998H17.1125C16.7375 19.7998 16.4375 20.0998 16.4375 20.4748V27.5248H21.9125V20.4748C21.9125 20.0998 21.6125 19.7998 21.3125 19.7998Z" stroke="#45413C" stroke-miterlimit="10" stroke-linecap="round" stroke-linejoin="round"/>
<path d="M27.0883 23.6998H24.5383C24.1633 23.6998 23.8633 23.3998 23.8633 23.0248V20.4748C23.8633 20.0998 24.1633 19.7998 24.5383 19.7998H27.0883C27.4633 19.7998 27.7633 20.0998 27.7633 20.4748V23.0248C27.6883 23.3998 27.4633 23.6998 27.0883 23.6998Z" fill="#00B8F0"/>
<path d="M27.0883 19.7998H24.5383C24.1633 19.7998 23.8633 20.0998 23.8633 20.4748V23.0248C23.8633 23.3998 24.1633 23.6998 24.5383 23.6998H24.9883L27.2383 19.8748C27.1633 19.8748 27.0883 19.7998 27.0883 19.7998Z" fill="#4ACFFF"/>
<path d="M19.9629 23.9992H18.3879C18.0129 23.9992 17.7129 23.6992 17.7129 23.3242V21.7492C17.7129 21.3742 18.0129 21.0742 18.3879 21.0742H19.9629C20.3379 21.0742 20.6379 21.3742 20.6379 21.7492V23.3242C20.6379 23.6992 20.3379 23.9992 19.9629 23.9992Z" fill="#00B8F0"/>
<path d="M19.9629 21.0742H18.3879C18.0129 21.0742 17.7129 21.3742 17.7129 21.7492V23.3242C17.7129 23.6992 18.0129 23.9992 18.3879 23.9992H18.5379L20.1879 21.1492C20.1129 21.1492 20.0379 21.0742 19.9629 21.0742Z" fill="#4ACFFF"/>
<path d="M27.0883 23.6998H24.5383C24.1633 23.6998 23.8633 23.3998 23.8633 23.0248V20.4748C23.8633 20.0998 24.1633 19.7998 24.5383 19.7998H27.0883C27.4633 19.7998 27.7633 20.0998 27.7633 20.4748V23.0248C27.6883 23.3998 27.4633 23.6998 27.0883 23.6998Z" stroke="#45413C" stroke-miterlimit="10" stroke-linecap="round" stroke-linejoin="round"/>
<path d="M19.9629 23.9992H18.3879C18.0129 23.9992 17.7129 23.6992 17.7129 23.3242V21.7492C17.7129 21.3742 18.0129 21.0742 18.3879 21.0742H19.9629C20.3379 21.0742 20.6379 21.3742 20.6379 21.7492V23.3242C20.6379 23.6992 20.3379 23.9992 19.9629 23.9992Z" stroke="#45413C" stroke-miterlimit="10" stroke-linecap="round" stroke-linejoin="round"/>
<path d="M35.1117 29.175C35.4867 28.875 35.7867 28.425 35.7867 27.9C35.7867 27 35.0367 26.325 34.2117 26.325C33.8367 26.325 33.4617 26.475 33.1617 26.7C32.8617 25.35 31.7367 24.375 30.3117 24.375C28.7367 24.375 27.3867 25.65 27.3867 27.3C27.3867 28.05 27.6867 28.725 28.1367 29.25H35.1117V29.175Z" fill="#FF7A5A"/>
<path d="M30.3129 25.65C31.7379 25.65 32.8629 26.625 33.1629 27.975C33.4629 27.75 33.7629 27.6 34.2129 27.6C34.8879 27.6 35.4129 27.975 35.7129 28.575C35.7879 28.35 35.8629 28.2 35.8629 27.9C35.8629 27 35.1129 26.325 34.2879 26.325C33.9129 26.325 33.5379 26.475 33.2379 26.7C32.9379 25.35 31.8129 24.375 30.3879 24.375C28.8129 24.375 27.4629 25.65 27.4629 27.3C27.4629 27.525 27.4629 27.75 27.5379 27.975C27.7629 26.625 28.8879 25.65 30.3129 25.65Z" fill="#FF7A5A"/>
<path d="M35.1117 29.175C35.4867 28.875 35.7867 28.425 35.7867 27.9C35.7867 27 35.0367 26.325 34.2117 26.325C33.8367 26.325 33.4617 26.475 33.1617 26.7C32.8617 25.35 31.7367 24.375 30.3117 24.375C28.7367 24.375 27.3867 25.65 27.3867 27.3C27.3867 28.05 27.6867 28.725 28.1367 29.25H35.1117V29.175Z" stroke="#45413C" stroke-miterlimit="10" stroke-linecap="round" stroke-linejoin="round"/>
</g>
<defs>
<clipPath id="clip0_526_9383">
<rect width="36" height="36" fill="white" transform="translate(0.988281)"/>
</clipPath>
</defs>
</svg>
