<svg width="37" height="36" viewBox="0 0 37 36" fill="none" xmlns="http://www.w3.org/2000/svg">
<path d="M24.0616 25.2393L23.8647 27.4893H13.5484L13.3516 25.2393H14.3416H16.4284H18.7066H20.9847H23.0716H24.0616Z" fill="#BABABA"/>
<path d="M16.4281 25.2391H14.3413L13.9981 21.2847V21.2791C12.9856 20.8909 12.2656 19.7997 12.2938 18.6747C12.35 16.8466 13.8463 15.8172 15.2019 16.0253L15.2131 15.9634C15.7306 14.4616 17.12 13.444 18.7063 13.3984C20.2925 13.4434 21.6819 14.4616 22.1994 15.9634L22.2106 16.0253C23.5663 15.8172 25.0625 16.8466 25.1188 18.6747C25.1469 19.7879 24.5 20.8066 23.4819 21.2566C23.4594 21.2678 23.4369 21.2734 23.4144 21.2791V21.2847L23.0713 25.2391H20.9844H18.7063H16.4281Z" fill="#FF7A5A"/>
<path d="M31.255 9.5625V30.9375C31.255 31.8713 30.5013 32.625 29.5675 32.625H8.40625C7.4725 32.625 6.71875 31.8713 6.71875 30.9375V5.625C6.71875 6.82875 7.66375 7.81312 8.85625 7.86937C8.89563 7.875 8.92937 7.875 8.96875 7.875H26.1925H28.4425H29.5675C30.5013 7.875 31.255 8.62875 31.255 9.5625ZM23.4813 21.2569C24.4994 20.8069 25.1463 19.7888 25.1181 18.675C25.0619 16.8469 23.5656 15.8175 22.21 16.0256L22.1988 15.9637C21.6813 14.4619 20.2919 13.4443 18.7056 13.3987C17.1194 13.4437 15.73 14.4619 15.2125 15.9637L15.2013 16.0256C13.8456 15.8175 12.3494 16.8469 12.2931 18.675C12.265 19.8 12.985 20.8907 13.9975 21.2794V21.285L14.3406 25.2394H13.3506L13.5475 27.4894H23.8638L24.0606 25.2394H23.0706L23.4137 21.285V21.2794C23.4363 21.2738 23.4588 21.2681 23.4813 21.2569Z" fill="#262730"/>
<path d="M28.4425 5.0625V7.875H26.1925V5.625H8.96875C8.34438 5.625 7.84375 6.13125 7.84375 6.75C7.84375 7.32938 8.2825 7.81312 8.85625 7.86937C7.66375 7.81256 6.71875 6.82819 6.71875 5.625C6.71875 4.38188 7.72563 3.375 8.96875 3.375H26.755C27.6888 3.375 28.4425 4.12875 28.4425 5.0625Z" fill="#262730"/>
<path d="M26.1925 5.625V7.875H8.96875C8.92938 7.875 8.89563 7.875 8.85625 7.86937C8.2825 7.81256 7.84375 7.32938 7.84375 6.75C7.84375 6.13125 8.34438 5.625 8.96875 5.625H26.1925Z" fill="#BABABA"/>
<path opacity="0.2" d="M28.4425 5.0625V7.875H26.1925V5.625H8.96875C8.34438 5.625 7.84375 6.13125 7.84375 6.75C7.84375 7.32938 8.2825 7.81312 8.85625 7.86937C7.66375 7.81256 6.71875 6.82819 6.71875 5.625C6.71875 4.38188 7.72563 3.375 8.96875 3.375H26.755C27.6888 3.375 28.4425 4.12875 28.4425 5.0625Z" fill="black"/>
<path opacity="0.4" d="M10.6563 32.625H8.40625C7.4725 32.625 6.71875 31.8713 6.71875 30.9375V5.625C6.71875 6.82875 7.66375 7.81312 8.85625 7.86937C8.89563 7.875 8.92937 7.875 8.96875 7.875V30.9431C8.96875 31.8712 9.72813 32.625 10.6563 32.625Z" fill="white"/>
<path d="M26.1947 6.1875H8.96875C8.65825 6.1875 8.40625 5.93606 8.40625 5.625C8.40625 5.31394 8.65825 5.0625 8.96875 5.0625H26.1947C26.5053 5.0625 26.7572 5.31394 26.7572 5.625C26.7572 5.93606 26.5053 6.1875 26.1947 6.1875Z" fill="#FFF5E1"/>
<path d="M8.96875 8.4375C8.03837 8.4375 7.28125 7.68038 7.28125 6.75C7.28125 5.81962 8.03837 5.0625 8.96875 5.0625C9.27925 5.0625 9.53125 5.31394 9.53125 5.625C9.53125 5.93606 9.27925 6.1875 8.96875 6.1875C8.65881 6.1875 8.40625 6.4395 8.40625 6.75C8.40625 7.0605 8.65881 7.3125 8.96875 7.3125C9.27925 7.3125 9.53125 7.56394 9.53125 7.875C9.53125 8.18606 9.27925 8.4375 8.96875 8.4375ZM31.255 10.125C30.9445 10.125 30.6925 9.87356 30.6925 9.5625C30.6925 8.94206 30.1879 8.4375 29.5675 8.4375C29.257 8.4375 29.005 8.18606 29.005 7.875C29.005 7.56394 29.257 7.3125 29.5675 7.3125C30.8084 7.3125 31.8175 8.32162 31.8175 9.5625C31.8175 9.87356 31.5655 10.125 31.255 10.125Z" fill="#FFF5E1"/>
<path d="M29.5675 8.4375H8.96875C8.65825 8.4375 8.40625 8.18606 8.40625 7.875C8.40625 7.56394 8.65825 7.3125 8.96875 7.3125H29.5675C29.878 7.3125 30.13 7.56394 30.13 7.875C30.13 8.18606 29.878 8.4375 29.5675 8.4375Z" fill="#FFF5E1"/>
<path d="M26.1953 8.4375C25.8848 8.4375 25.6328 8.18606 25.6328 7.875V5.625C25.6328 5.31394 25.8848 5.0625 26.1953 5.0625C26.5058 5.0625 26.7578 5.31394 26.7578 5.625V7.875C26.7578 8.18606 26.5058 8.4375 26.1953 8.4375ZM28.4453 5.625C28.1348 5.625 27.8828 5.37356 27.8828 5.0625C27.8828 4.44206 27.3783 3.9375 26.7578 3.9375C26.4473 3.9375 26.1953 3.68606 26.1953 3.375C26.1953 3.06394 26.4473 2.8125 26.7578 2.8125C27.9987 2.8125 29.0078 3.82162 29.0078 5.0625C29.0078 5.37356 28.7558 5.625 28.4453 5.625Z" fill="#FFF5E1"/>
<path d="M26.7578 3.9375H8.96875C8.65825 3.9375 8.40625 3.68606 8.40625 3.375C8.40625 3.06394 8.65825 2.8125 8.96875 2.8125H26.7578C27.0683 2.8125 27.3203 3.06394 27.3203 3.375C27.3203 3.68606 27.0683 3.9375 26.7578 3.9375Z" fill="#FFF5E1"/>
<path d="M8.96875 8.4375C7.41794 8.4375 6.15625 7.17581 6.15625 5.625C6.15625 4.07419 7.41794 2.8125 8.96875 2.8125C9.27925 2.8125 9.53125 3.06394 9.53125 3.375C9.53125 3.68606 9.27925 3.9375 8.96875 3.9375C8.03838 3.9375 7.28125 4.69463 7.28125 5.625C7.28125 6.55538 8.03838 7.3125 8.96875 7.3125C9.27925 7.3125 9.53125 7.56394 9.53125 7.875C9.53125 8.18606 9.27925 8.4375 8.96875 8.4375ZM29.5675 33.1875H8.40625C8.09575 33.1875 7.84375 32.9361 7.84375 32.625C7.84375 32.3139 8.09575 32.0625 8.40625 32.0625H29.5675C29.878 32.0625 30.13 32.3139 30.13 32.625C30.13 32.9361 29.878 33.1875 29.5675 33.1875Z" fill="#FFF5E1"/>
<path d="M8.40625 33.1875C7.16537 33.1875 6.15625 32.1784 6.15625 30.9375C6.15625 30.6264 6.40825 30.375 6.71875 30.375C7.02925 30.375 7.28125 30.6264 7.28125 30.9375C7.28125 31.5579 7.78581 32.0625 8.40625 32.0625C8.71675 32.0625 8.96875 32.3139 8.96875 32.625C8.96875 32.9361 8.71675 33.1875 8.40625 33.1875ZM29.5675 33.1875C29.257 33.1875 29.005 32.9361 29.005 32.625C29.005 32.3139 29.257 32.0625 29.5675 32.0625C30.1879 32.0625 30.6925 31.5579 30.6925 30.9375C30.6925 30.6264 30.9445 30.375 31.255 30.375C31.5655 30.375 31.8175 30.6264 31.8175 30.9375C31.8175 32.1784 30.8084 33.1875 29.5675 33.1875Z" fill="#FFF5E1"/>
<path d="M6.71875 31.5C6.40825 31.5 6.15625 31.2486 6.15625 30.9375V5.625C6.15625 5.31394 6.40825 5.0625 6.71875 5.0625C7.02925 5.0625 7.28125 5.31394 7.28125 5.625V30.9375C7.28125 31.2486 7.02925 31.5 6.71875 31.5ZM28.4447 8.4375C28.1343 8.4375 27.8822 8.18606 27.8822 7.875V5.0625C27.8822 4.75144 28.1343 4.5 28.4447 4.5C28.7553 4.5 29.0072 4.75144 29.0072 5.0625V7.875C29.0072 8.18606 28.7553 8.4375 28.4447 8.4375ZM31.255 31.5C30.9445 31.5 30.6925 31.2486 30.6925 30.9375V9.5625C30.6925 9.25144 30.9445 9 31.255 9C31.5655 9 31.8175 9.25144 31.8175 9.5625V30.9375C31.8175 31.2486 31.5655 31.5 31.255 31.5ZM13.5464 28.0502C13.2578 28.0502 13.012 27.8291 12.9867 27.5366L12.7909 25.2866C12.7639 24.9767 12.9929 24.7044 13.3028 24.6774C13.6139 24.6493 13.885 24.8794 13.912 25.1887L14.1078 27.4387C14.1348 27.7487 13.9058 28.0209 13.5959 28.0479C13.579 28.0496 13.5621 28.0502 13.5464 28.0502Z" fill="#FFF5E1"/>
<path d="M23.8662 28.0498H13.5488C13.2383 28.0498 12.9863 27.7984 12.9863 27.4873C12.9863 27.1762 13.2383 26.9248 13.5488 26.9248H23.8668C24.1773 26.9248 24.4293 27.1762 24.4293 27.4873C24.4293 27.7984 24.1773 28.0498 23.8662 28.0498Z" fill="#FFF5E1"/>
<path d="M23.8673 28.0498C23.851 28.0498 23.8347 28.0492 23.8183 28.0475C23.509 28.0205 23.2795 27.7483 23.3065 27.4384L23.5022 25.1884C23.5287 24.879 23.8003 24.6489 24.1114 24.677C24.4208 24.704 24.6503 24.9763 24.6233 25.2862L24.4275 27.5362C24.4022 27.8293 24.1564 28.0498 23.8673 28.0498ZM14.343 25.7998C14.0545 25.7998 13.8087 25.5787 13.7834 25.2862L13.4397 21.3319C13.4127 21.0219 13.6416 20.7497 13.9515 20.7227C14.262 20.6906 14.5337 20.9246 14.5607 21.234L14.9044 25.1884C14.9314 25.4983 14.7025 25.7705 14.3925 25.7975C14.3757 25.7992 14.3593 25.7998 14.343 25.7998Z" fill="#FFF5E1"/>
<path d="M23.0723 25.8C23.056 25.8 23.0396 25.7994 23.0233 25.7977C22.714 25.7707 22.4845 25.4985 22.5115 25.1885L22.8551 21.2342C22.8816 20.9248 23.1544 20.6908 23.4643 20.7228C23.7737 20.7498 24.0032 21.0221 23.9762 21.332L23.6325 25.2864C23.6066 25.5795 23.3608 25.8 23.0723 25.8ZM14.7833 21.9873C14.124 21.9873 13.4856 21.7511 12.9416 21.2977C12.1603 20.6469 11.7086 19.6608 11.7334 18.6596C11.7407 18.3491 11.995 18.1016 12.3094 18.1106C12.6199 18.1185 12.8657 18.3767 12.8578 18.6866C12.8421 19.3374 13.1498 20.0073 13.6616 20.4332C14.0948 20.7943 14.6179 20.9321 15.1331 20.8247C15.438 20.7617 15.7356 20.9552 15.7991 21.2595C15.8627 21.5638 15.6681 21.8613 15.3638 21.9255C15.1697 21.9671 14.9756 21.9873 14.7833 21.9873Z" fill="#FFF5E1"/>
<path d="M23.483 21.8202C23.267 21.8202 23.0612 21.6953 22.9684 21.4855C22.8424 21.2014 22.9706 20.869 23.2552 20.7435C24.068 20.383 24.5794 19.5763 24.5574 18.6876C24.5495 18.3771 24.7954 18.1189 25.1059 18.1116C25.4276 18.102 25.6745 18.3501 25.6819 18.6606C25.715 20.0061 24.9416 21.2273 23.7103 21.7723C23.6366 21.805 23.559 21.8202 23.483 21.8202Z" fill="#FFF5E1"/>
<path d="M22.63 21.9871C22.4365 21.9871 22.2424 21.9674 22.0501 21.9269C21.7458 21.8633 21.5511 21.5652 21.6147 21.2609C21.6788 20.9566 21.9758 20.7625 22.2807 20.8261C22.612 20.8953 22.9546 20.8643 23.2701 20.7367C23.5581 20.6197 23.8861 20.7586 24.0031 21.0466C24.1201 21.3346 23.9811 21.6625 23.6931 21.7795C23.3517 21.9173 22.9917 21.9871 22.63 21.9871ZM12.2952 19.2359C12.2896 19.2359 12.2834 19.2359 12.2778 19.2359C11.9673 19.2258 11.7231 18.9665 11.7327 18.6565C11.7906 16.7452 13.1569 15.6657 14.4023 15.4722C15.8564 15.2438 17.1383 16.0763 17.6699 17.5855C17.7728 17.8786 17.6193 18.1998 17.3262 18.3027C17.0326 18.404 16.7125 18.2515 16.609 17.959C16.1928 16.7772 15.2854 16.4746 14.5756 16.5843C13.7481 16.7131 12.8965 17.414 12.8577 18.6908C12.8476 18.9957 12.5984 19.2359 12.2952 19.2359ZM25.1179 19.2359C24.8148 19.2359 24.5656 18.9952 24.556 18.6903C24.5172 17.4128 23.6656 16.712 22.8381 16.5837C22.1283 16.474 21.2204 16.7772 20.8047 17.9585C20.7012 18.2515 20.38 18.4034 20.0875 18.3022C19.7944 18.1987 19.6409 17.8775 19.7438 17.585C20.2748 16.0752 21.5551 15.2444 23.0114 15.4717C24.2562 15.6652 25.6231 16.7446 25.681 18.656C25.6906 18.9665 25.4464 19.2258 25.1359 19.2353C25.1292 19.2359 25.1236 19.2359 25.1179 19.2359Z" fill="#FFF5E1"/>
<path d="M15.2109 16.5262C15.1501 16.5262 15.0883 16.516 15.0275 16.4952C14.7339 16.3934 14.5781 16.0733 14.6793 15.7803C15.27 14.0697 16.8821 12.8873 18.6905 12.839C18.9931 12.8333 19.2598 13.0758 19.2676 13.3863C19.2761 13.6973 19.0314 13.9555 18.7203 13.964C17.3776 14 16.1806 14.8775 15.7425 16.1476C15.662 16.3799 15.4443 16.5262 15.2109 16.5262Z" fill="#FFF5E1"/>
<path d="M22.2004 16.5257C21.967 16.5257 21.7493 16.3795 21.6688 16.1466C21.2307 14.8765 20.0337 13.9995 18.691 13.963C18.3805 13.954 18.1352 13.6958 18.1437 13.3853C18.1521 13.0748 18.4249 12.8329 18.7208 12.838C20.5298 12.8869 22.1419 14.0687 22.732 15.7793C22.8332 16.0723 22.6774 16.393 22.3838 16.4942C22.323 16.5156 22.2612 16.5257 22.2004 16.5257ZM16.4258 25.8002C16.1153 25.8002 15.8633 25.5488 15.8633 25.2377V23.5086C15.8633 23.1975 16.1153 22.9461 16.4258 22.9461C16.7363 22.9461 16.9883 23.1975 16.9883 23.5086V25.2377C16.9883 25.5488 16.7363 25.8002 16.4258 25.8002ZM20.9854 25.8002C20.6749 25.8002 20.4229 25.5488 20.4229 25.2377V23.5086C20.4229 23.1975 20.6749 22.9461 20.9854 22.9461C21.2959 22.9461 21.5479 23.1975 21.5479 23.5086V25.2377C21.5479 25.5488 21.2959 25.8002 20.9854 25.8002ZM18.7056 25.8002C18.3951 25.8002 18.1431 25.5488 18.1431 25.2377V21.7193C18.1431 21.4082 18.3951 21.1568 18.7056 21.1568C19.0161 21.1568 19.2681 21.4082 19.2681 21.7193V25.2377C19.2681 25.5488 19.0161 25.8002 18.7056 25.8002Z" fill="#FFF5E1"/>
<path d="M24.0604 25.7998H13.3516C13.0411 25.7998 12.7891 25.5484 12.7891 25.2373C12.7891 24.9262 13.0411 24.6748 13.3516 24.6748H24.0604C24.3709 24.6748 24.6229 24.9262 24.6229 25.2373C24.6229 25.5484 24.3709 25.7998 24.0604 25.7998Z" fill="#FFF5E1"/>
</svg>
