<svg width="37" height="36" viewBox="0 0 37 36" fill="none" xmlns="http://www.w3.org/2000/svg">
<g clip-path="url(#clip0_526_9343)">
<path d="M11.9119 15.2329L6.27564 17.3029C6.19126 17.3367 6.12376 17.3085 6.09001 17.2973C6.05064 17.2804 5.98876 17.241 5.96064 17.151L5.62314 16.2004L11.76 13.9954L12.075 14.8898C12.12 15.0248 12.0525 15.1823 11.9119 15.2329ZM30.525 7.24542L30.8738 8.19604C30.9075 8.28042 30.885 8.35354 30.8681 8.38729C30.8513 8.42104 30.8119 8.48292 30.7275 8.51667L25.0631 10.5023C24.9225 10.5529 24.7706 10.4798 24.72 10.3392L24.3938 9.45042L30.525 7.24542ZM5.23501 10.4123C8.44126 7.90354 11.9063 5.95729 15.5175 4.62417C19.1625 3.3473 23.0719 2.64417 27.1444 2.5373H27.2006C28.1569 2.5373 29.0175 3.14479 29.355 4.06167L30.1481 6.22167L24.0113 8.42667C23.73 7.71792 23.0213 7.23979 22.2563 7.25667C20.3381 7.29604 18.51 7.61667 16.8169 8.20729C16.8169 8.20729 16.8113 8.20729 16.8113 8.21292C15.1238 8.83167 13.5094 9.74855 12.0075 10.941C11.4 11.4248 11.1638 12.2348 11.4 12.9604L5.26314 15.171L4.49814 12.9942C4.16626 12.0548 4.46439 11.0198 5.23501 10.4123ZM36.4425 30.3867H34.9631L33.3319 20.6723C33.1575 19.6148 32.2519 18.8498 31.1831 18.8498H29.2031V16.6335C29.2031 16.3354 28.9613 16.0879 28.6575 16.0879H24.7988C24.5006 16.0879 24.2531 16.3354 24.2531 16.6335V18.8498H20.0175V16.6335C20.0175 16.3354 19.7756 16.0879 19.4719 16.0879H15.6131C15.3094 16.0879 15.0675 16.3354 15.0675 16.6335V18.8498H13.0931C12.0244 18.8498 11.1188 19.6148 10.9388 20.6723L9.94314 26.6348C8.31751 26.2917 7.65939 24.6942 7.40626 23.7098C7.20939 22.9448 6.82126 22.3148 6.27564 21.8929C5.64564 21.4092 4.89751 21.1729 4.03126 21.2123C3.44626 21.2404 2.90064 21.0042 2.51814 20.571C2.15814 20.1604 2.01189 19.6429 2.10189 19.1142C2.42814 17.196 3.46314 15.8685 4.11564 15.1992L4.41376 16.0429C4.41376 16.0485 4.41376 16.0485 4.41376 16.0542C4.41939 16.0598 4.41939 16.0598 4.41939 16.0654L4.93126 17.511C5.04939 17.8542 5.29689 18.1298 5.62314 18.2817C5.80314 18.366 5.99439 18.411 6.19126 18.411C6.34876 18.411 6.50626 18.3829 6.65251 18.3267L12.2888 16.2567C12.9863 15.9979 13.3519 15.2217 13.0988 14.5242L12.6038 13.1123V13.1067L12.4406 12.6398C12.3338 12.336 12.435 11.9985 12.6881 11.796C14.0944 10.6767 15.6075 9.81604 17.1825 9.23667C18.7631 8.67979 20.4788 8.38167 22.2731 8.34792C22.605 8.34229 22.8919 8.53917 23.0044 8.84292L23.1788 9.30979L23.6963 10.7104C23.9438 11.4079 24.72 11.7792 25.4231 11.5317L31.0875 9.54604C31.4306 9.42229 31.7006 9.18042 31.8525 8.85417C32.01 8.52792 32.0269 8.15667 31.8975 7.81917L31.3688 6.37354C31.3688 6.37354 31.3688 6.36792 31.3688 6.3623C31.3631 6.3623 31.3631 6.35667 31.3631 6.35667L30.3788 3.6848C29.8781 2.3123 28.545 1.39542 27.1163 1.45167C22.9313 1.55854 18.9094 2.27855 15.1519 3.60042C11.4225 4.97292 7.86189 6.97542 4.56564 9.55729C3.42376 10.4517 2.98501 11.976 3.46876 13.3598L3.71626 14.0629C3.03564 14.6648 1.47751 16.3017 1.02751 18.9285C0.881262 19.7779 1.12876 20.6385 1.70251 21.291C2.29876 21.9717 3.15939 22.3429 4.07626 22.3035C4.66126 22.281 5.18439 22.4329 5.60626 22.7592C6.05064 23.1023 6.25876 23.6142 6.34876 23.9798C6.61314 24.9979 7.45126 27.2592 9.75751 27.7148L9.31314 30.3867H7.83376C7.53001 30.3867 7.28814 30.6342 7.28814 30.9323V34.0092C7.28814 34.3129 7.53001 34.5548 7.83376 34.5548H36.4425C36.7406 34.5548 36.9881 34.3129 36.9881 34.0092V30.9323C36.9881 30.6342 36.7406 30.3867 36.4425 30.3867ZM25.3444 17.1792H28.1119V18.8498H25.3444V17.1792ZM16.1588 17.1792H18.9263V18.8498H16.1588V17.1792ZM12.0188 20.8523C12.1031 20.3235 12.5588 19.941 13.0931 19.941H31.1831C31.7175 19.941 32.1675 20.3235 32.2575 20.8523L33.855 30.3867H10.4156L12.0188 20.8523ZM35.8969 33.4635H8.37939V31.4779H35.8969V33.4635Z" fill="#FF7A5A"/>
<path d="M11.9118 15.2326L6.27555 17.3026C6.19117 17.3364 6.12367 17.3082 6.08992 17.297C6.05055 17.2801 5.98867 17.2407 5.96055 17.1507L5.62305 16.2001L11.7599 13.9951L12.0749 14.8895C12.1199 15.0245 12.0524 15.182 11.9118 15.2326ZM30.868 8.38699C30.8512 8.42074 30.8118 8.48262 30.7274 8.51637L25.063 10.502C24.9224 10.5526 24.7705 10.4795 24.7199 10.3389L24.3937 9.45012L30.5249 7.24512L30.8737 8.19574C30.9074 8.28012 30.8849 8.35324 30.868 8.38699Z" fill="#D8DFE7"/>
<path d="M30.1474 6.22148L24.0106 8.42648C23.7293 7.71773 23.0206 7.23961 22.2556 7.25648C20.3374 7.29586 18.5093 7.61648 16.8162 8.20711C16.8162 8.20711 16.8106 8.20711 16.8106 8.21273C15.1231 8.83148 13.5087 9.74836 12.0068 10.9409C11.3993 11.4246 11.1631 12.2346 11.3993 12.9602L5.26243 15.1709L4.49743 12.994C4.16556 12.0546 4.46368 11.0196 5.23431 10.4121C8.44056 7.90336 11.9056 5.95711 15.5168 4.62398C19.1618 3.34711 23.0712 2.64398 27.1437 2.53711H27.1999C28.1562 2.53711 29.0168 3.14461 29.3543 4.06148L30.1474 6.22148Z" fill="#262730"/>
<path d="M18.9277 17.1787H16.1602V18.8493H18.9277V17.1787Z" fill="#D8DFE7"/>
<path d="M28.1113 17.1787H25.3438V18.8493H28.1113V17.1787Z" fill="#D8DFE7"/>
<path d="M32.2579 20.8517C32.1679 20.3229 31.7179 19.9404 31.1835 19.9404H13.0935C12.5591 19.9404 12.1035 20.3229 12.0191 20.8517L10.416 30.3861H33.8554L32.2579 20.8517ZM22.1385 30.0092C19.4666 30.0092 17.2898 27.8379 17.2898 25.1661C17.2898 22.4942 19.4666 20.3173 22.1385 20.3173C24.8104 20.3173 26.9816 22.4942 26.9816 25.1661C26.9816 27.8379 24.8104 30.0092 22.1385 30.0092Z" fill="#262730"/>
<path d="M35.8964 31.4775H8.37891V33.4632H35.8964V31.4775Z" fill="#D8DFE7"/>
<path d="M22.1378 20.3174C19.4659 20.3174 17.2891 22.4943 17.2891 25.1661C17.2891 27.838 19.4659 30.0093 22.1378 30.0093C24.8097 30.0093 26.9809 27.838 26.9809 25.1661C26.9809 22.4943 24.8097 20.3174 22.1378 20.3174ZM22.1378 28.918C20.0678 28.918 18.3803 27.2361 18.3803 25.1661C18.3803 23.0961 20.0678 21.4086 22.1378 21.4086C24.2078 21.4086 25.8897 23.0961 25.8897 25.1661C25.8897 27.2361 24.2078 28.918 22.1378 28.918Z" fill="#FF7A5A"/>
<path d="M22.1384 21.4092C20.0684 21.4092 18.3809 23.0967 18.3809 25.1667C18.3809 27.2367 20.0684 28.9186 22.1384 28.9186C24.2084 28.9186 25.8902 27.2367 25.8902 25.1667C25.8902 23.0967 24.2084 21.4092 22.1384 21.4092ZM23.4377 23.0967L23.8315 22.6973C24.0452 22.4836 24.394 22.4836 24.6077 22.6973C24.8159 22.9111 24.8159 23.2542 24.6077 23.4679L24.2084 23.8673C24.1015 23.9742 23.9609 24.0248 23.8202 24.0248C23.6796 24.0248 23.5446 23.9742 23.4377 23.8673C23.224 23.6536 23.224 23.3104 23.4377 23.0967ZM21.5927 22.2192C21.5927 21.9154 21.8346 21.6736 22.1384 21.6736C22.4365 21.6736 22.684 21.9154 22.684 22.2192V22.7817C22.684 23.0854 22.4365 23.3273 22.1384 23.3273C21.8346 23.3273 21.5927 23.0854 21.5927 22.7817V22.2192ZM19.669 22.6973C19.8827 22.4836 20.2259 22.4836 20.4396 22.6973L20.839 23.0967C21.0471 23.3104 21.0471 23.6536 20.839 23.8673C20.7321 23.9742 20.5915 24.0248 20.4509 24.0248C20.3102 24.0248 20.1696 23.9742 20.0627 23.8673L19.669 23.4679C19.4552 23.2542 19.4552 22.9111 19.669 22.6973ZM19.1909 25.7123C18.8871 25.7123 18.6452 25.4648 18.6452 25.1667C18.6452 24.8629 18.8871 24.6211 19.1909 24.6211H19.7534C20.0571 24.6211 20.299 24.8629 20.299 25.1667C20.299 25.4648 20.0571 25.7123 19.7534 25.7123H19.1909ZM20.839 27.2367L20.4396 27.6361C20.3327 27.7429 20.1921 27.7936 20.0515 27.7936C19.9165 27.7936 19.7759 27.7429 19.669 27.6361C19.4552 27.4223 19.4552 27.0736 19.669 26.8598L20.0627 26.4661C20.2765 26.2523 20.6252 26.2523 20.839 26.4661C21.0471 26.6798 21.0471 27.0229 20.839 27.2367ZM22.684 28.1086C22.684 28.4123 22.4365 28.6542 22.1384 28.6542C21.8346 28.6542 21.5927 28.4123 21.5927 28.1086V27.5461C21.5927 27.2479 21.8346 27.0004 22.1384 27.0004C22.4365 27.0004 22.684 27.2479 22.684 27.5461V28.1086ZM22.1384 26.5729C21.3621 26.5729 20.7321 25.9429 20.7321 25.1667C20.7321 24.3904 21.3621 23.7604 22.1384 23.7604C22.909 23.7604 23.5446 24.3904 23.5446 25.1667C23.5446 25.9429 22.909 26.5729 22.1384 26.5729ZM24.6077 27.6361C24.5009 27.7429 24.3602 27.7936 24.2196 27.7936C24.079 27.7936 23.9384 27.7429 23.8315 27.6361L23.4377 27.2367C23.224 27.0229 23.224 26.6798 23.4377 26.4661C23.6515 26.2523 23.9946 26.2523 24.2084 26.4661L24.6077 26.8598C24.8159 27.0736 24.8159 27.4223 24.6077 27.6361ZM25.0802 25.7123H24.5177C24.2196 25.7123 23.9721 25.4648 23.9721 25.1667C23.9721 24.8629 24.2196 24.6211 24.5177 24.6211H25.0802C25.384 24.6211 25.6259 24.8629 25.6259 25.1667C25.6259 25.4648 25.384 25.7123 25.0802 25.7123Z" fill="#D8DFE7"/>
<path d="M22.6833 22.2185V22.781C22.6833 23.0847 22.4358 23.3266 22.1377 23.3266C21.8339 23.3266 21.592 23.0847 21.592 22.781V22.2185C21.592 21.9147 21.8339 21.6729 22.1377 21.6729C22.4358 21.6729 22.6833 21.9147 22.6833 22.2185ZM20.8383 23.8666C20.7314 23.9735 20.5908 24.0241 20.4502 24.0241C20.3095 24.0241 20.1689 23.9735 20.062 23.8666L19.6683 23.4672C19.4545 23.2535 19.4545 22.9104 19.6683 22.6966C19.882 22.4829 20.2252 22.4829 20.4389 22.6966L20.8383 23.096C21.0464 23.3097 21.0464 23.6529 20.8383 23.8666ZM20.2983 25.166C20.2983 25.4641 20.0564 25.7116 19.7527 25.7116H19.1902C18.8864 25.7116 18.6445 25.4641 18.6445 25.166C18.6445 24.8622 18.8864 24.6204 19.1902 24.6204H19.7527C20.0564 24.6204 20.2983 24.8622 20.2983 25.166ZM20.8383 27.236L20.4389 27.6354C20.332 27.7422 20.1914 27.7929 20.0508 27.7929C19.9158 27.7929 19.7752 27.7422 19.6683 27.6354C19.4545 27.4216 19.4545 27.0729 19.6683 26.8591L20.062 26.4654C20.2758 26.2516 20.6245 26.2516 20.8383 26.4654C21.0464 26.6791 21.0464 27.0222 20.8383 27.236ZM22.6833 27.5454V28.1079C22.6833 28.4116 22.4358 28.6535 22.1377 28.6535C21.8339 28.6535 21.592 28.4116 21.592 28.1079V27.5454C21.592 27.2472 21.8339 26.9997 22.1377 26.9997C22.4358 26.9997 22.6833 27.2472 22.6833 27.5454ZM24.607 27.6354C24.5002 27.7422 24.3595 27.7929 24.2189 27.7929C24.0783 27.7929 23.9377 27.7422 23.8308 27.6354L23.437 27.236C23.2233 27.0222 23.2233 26.6791 23.437 26.4654C23.6508 26.2516 23.9939 26.2516 24.2077 26.4654L24.607 26.8591C24.8152 27.0729 24.8152 27.4216 24.607 27.6354ZM25.6252 25.166C25.6252 25.4641 25.3833 25.7116 25.0795 25.7116H24.517C24.2189 25.7116 23.9714 25.4641 23.9714 25.166C23.9714 24.8622 24.2189 24.6204 24.517 24.6204H25.0795C25.3833 24.6204 25.6252 24.8622 25.6252 25.166ZM24.607 23.4672L24.2077 23.8666C24.1008 23.9735 23.9602 24.0241 23.8195 24.0241C23.6789 24.0241 23.5439 23.9735 23.437 23.8666C23.2233 23.6529 23.2233 23.3097 23.437 23.096L23.8308 22.6966C24.0445 22.4829 24.3933 22.4829 24.607 22.6966C24.8152 22.9104 24.8152 23.2535 24.607 23.4672ZM22.1377 23.7597C21.3614 23.7597 20.7314 24.3897 20.7314 25.166C20.7314 25.9422 21.3614 26.5722 22.1377 26.5722C22.9083 26.5722 23.5439 25.9422 23.5439 25.166C23.5439 24.3897 22.9083 23.7597 22.1377 23.7597ZM22.1377 25.481C21.9633 25.481 21.8227 25.3404 21.8227 25.166C21.8227 24.9916 21.9633 24.851 22.1377 24.851C22.312 24.851 22.4527 24.9916 22.4527 25.166C22.4527 25.3404 22.312 25.481 22.1377 25.481Z" fill="#FF7A5A"/>
<path d="M22.4542 25.1666C22.4542 25.3409 22.3136 25.4816 22.1392 25.4816C21.9648 25.4816 21.8242 25.3409 21.8242 25.1666C21.8242 24.9922 21.9648 24.8516 22.1392 24.8516C22.3136 24.8516 22.4542 24.9922 22.4542 25.1666Z" fill="#262730"/>
<path d="M27.7972 13.978C27.5216 13.8599 27.201 13.9892 27.0828 14.2649C26.9647 14.5405 27.0941 14.8611 27.3697 14.9792C28.0785 15.283 28.821 15.4292 29.5466 15.4292C31.6897 15.4292 33.7372 14.1749 34.6372 12.0824C34.7553 11.8067 34.626 11.4861 34.3503 11.368C34.0747 11.2499 33.7541 11.3792 33.636 11.6549C32.6572 13.9049 30.0416 14.9455 27.7972 13.978Z" fill="#FF7A5A"/>
<path d="M31.8413 10.3834C31.5488 11.0584 31.0145 11.5871 30.3282 11.8571C29.642 12.1328 28.8938 12.1215 28.2132 11.829C27.9376 11.7109 27.617 11.8403 27.4988 12.1159C27.3807 12.3915 27.5101 12.7121 27.7857 12.8303C28.2751 13.0384 28.787 13.1453 29.3045 13.1453C29.7882 13.1453 30.272 13.0553 30.7332 12.8696C31.6895 12.4871 32.4376 11.7559 32.8426 10.8109C32.9607 10.5353 32.8313 10.2146 32.5557 10.0965C32.2857 9.97838 31.9595 10.1078 31.8413 10.3834Z" fill="#FF7A5A"/>
</g>
<defs>
<clipPath id="clip0_526_9343">
<rect width="36" height="36" fill="white" transform="translate(0.988281)"/>
</clipPath>
</defs>
</svg>
